<?xml version="1.0" standalone="no"?>
<!DOCTYPE svg PUBLIC "-//W3C//DTD SVG 20010904//EN"
 "http://www.w3.org/TR/2001/REC-SVG-20010904/DTD/svg10.dtd">
<svg version="1.0" xmlns="http://www.w3.org/2000/svg"
 width="700.000000pt" height="700.000000pt" viewBox="0 0 700.000000 700.000000"
 preserveAspectRatio="xMidYMid meet">
<metadata>
Created by potrace 1.14, written by Peter Selinger 2001-2017
</metadata>
<g transform="translate(0.000000,700.000000) scale(0.100000,-0.100000)"
fill="#000000" stroke="none">
<path d="M3495 6990 c-28 -7 -29 -8 -5 -10 58 -4 72 -7 78 -16 4 -5 14 -9 22
-9 8 1 26 -3 40 -8 49 -17 119 -10 150 16 l29 25 -31 4 c-50 8 -250 6 -283 -2z"/>
<path d="M3049 6966 c-2 -2 -26 -7 -54 -10 -27 -4 -57 -9 -65 -11 -8 -2 -33
-6 -55 -10 -148 -21 -374 -71 -389 -86 -6 -6 -4 -9 5 -9 10 -1 9 -5 -5 -15
-22 -17 -61 -20 -51 -5 13 20 -20 9 -91 -32 -76 -45 -102 -70 -37 -37 55 28
82 23 51 -10 -11 -10 -10 -11 5 -6 9 4 17 11 17 15 0 5 17 14 38 21 20 6 73
28 117 49 105 48 168 68 235 74 30 2 78 11 105 20 55 18 125 31 125 23 0 -3
-24 -11 -52 -18 -29 -6 -71 -20 -93 -31 l-40 -18 35 6 c19 3 46 8 60 10 14 2
-20 -12 -75 -31 -55 -20 -109 -33 -121 -31 -11 3 -92 -19 -180 -49 -87 -30
-172 -55 -189 -55 -48 0 -148 -36 -208 -74 -30 -19 -57 -33 -60 -30 -8 9 -106
-44 -197 -107 -92 -63 -170 -127 -132 -109 12 6 22 7 22 2 0 -6 -10 -16 -22
-25 -13 -8 -34 -25 -48 -39 -33 -32 -59 -42 -66 -24 -10 26 29 68 113 123 46
30 83 57 83 60 0 5 -2 3 -75 -42 -52 -33 -135 -69 -141 -62 -8 8 49 57 94 82
28 16 48 22 52 15 7 -11 54 12 150 75 36 23 78 45 93 49 16 4 46 18 68 31 21
14 42 25 46 25 5 0 19 10 33 21 14 11 -5 4 -42 -15 -36 -20 -73 -34 -81 -30
-23 8 -292 -127 -389 -196 -73 -52 -87 -66 -98 -103 -38 -130 -45 -139 -163
-240 -61 -53 -131 -114 -154 -136 -122 -114 -145 -134 -135 -116 13 26 88 112
126 145 82 71 246 237 246 248 0 9 -14 4 -43 -13 -53 -30 -66 -32 -42 -5 17
18 17 20 2 14 -15 -5 -22 -18 -14 -27 8 -11 -189 -227 -207 -227 -13 0 15 38
64 88 29 29 48 52 43 52 -20 0 -97 -76 -149 -146 -30 -41 -63 -84 -73 -97 -84
-100 -109 -128 -153 -174 -27 -29 -64 -71 -83 -92 -18 -22 -35 -38 -37 -36 -9
9 -113 -100 -149 -155 -56 -85 -175 -304 -210 -383 -17 -40 -48 -103 -69 -142
-76 -139 -103 -236 -115 -410 -7 -108 -22 -198 -40 -242 -8 -18 -17 -53 -20
-78 -9 -55 -22 -69 -17 -17 3 25 1 34 -6 27 -5 -5 -12 -54 -14 -108 -3 -71 -8
-101 -18 -107 -9 -5 -17 -5 -21 1 -13 21 -18 -39 -14 -165 2 -72 6 -152 8
-177 2 -26 -2 -68 -9 -95 -17 -65 -20 -264 -3 -274 6 -4 15 -30 19 -57 5 -27
14 -69 21 -94 l13 -44 4 34 c2 18 -1 45 -7 60 -6 14 -12 60 -15 101 -4 61 -3
69 6 40 19 -66 23 -48 22 88 -2 182 -2 184 -14 177 -5 -3 -10 -5 -10 -3 -1 2
-3 71 -6 154 -5 109 -3 157 6 170 9 16 11 16 6 2 -3 -10 -1 -20 5 -24 6 -3 13
3 16 15 8 30 19 18 38 -43 16 -50 17 -124 4 -321 -3 -42 15 -251 22 -256 5 -3
12 -25 15 -50 3 -24 7 -50 9 -56 4 -13 -22 -83 -30 -83 -3 0 -10 10 -16 23 -7
18 -8 15 -4 -15 4 -26 2 -38 -6 -38 -15 0 -5 -131 13 -163 6 -12 14 -42 16
-67 2 -25 9 -73 16 -107 7 -35 11 -63 10 -63 -1 0 -17 25 -34 55 -43 76 -51
76 -24 0 13 -35 26 -84 29 -109 5 -34 17 -55 51 -92 24 -27 47 -57 50 -66 3
-10 9 -18 14 -18 10 0 -9 59 -35 111 -10 19 -13 30 -7 24 13 -14 142 -217 142
-224 0 -3 9 -36 19 -74 21 -74 10 -92 -17 -27 -17 39 -32 52 -32 28 0 -7 -27
34 -61 90 -34 57 -63 101 -66 99 -2 -3 0 -22 6 -44 10 -38 10 -38 -9 -15 -10
12 -21 22 -24 22 -9 0 58 -107 68 -108 5 0 21 -27 36 -59 27 -58 27 -58 6 -63
-19 -6 -19 -7 11 -29 18 -14 60 -73 99 -140 91 -155 167 -271 198 -300 36 -34
32 -19 -9 35 -19 25 -35 51 -35 58 0 7 -9 21 -21 32 -32 29 -57 67 -85 131
-28 64 -25 63 32 -17 21 -30 61 -79 87 -110 59 -66 141 -189 134 -197 -17 -16
39 -87 204 -262 55 -58 99 -108 99 -113 0 -9 60 -109 75 -123 5 -6 39 -33 75
-60 36 -26 95 -76 131 -109 37 -34 104 -87 150 -118 46 -31 100 -73 120 -91
20 -19 52 -40 72 -46 19 -7 46 -22 59 -35 24 -24 108 -77 143 -89 14 -5 11 0
-10 18 -16 15 -25 24 -20 22 105 -46 140 -68 125 -77 -15 -10 61 -67 133 -100
83 -37 187 -67 336 -96 39 -8 129 -31 246 -64 61 -16 124 -33 140 -36 17 -3
48 -9 70 -14 69 -15 137 -22 231 -24 67 -2 97 -7 115 -19 27 -19 39 -19 -131
-2 -40 5 -51 3 -40 -4 11 -8 1 -11 -40 -12 -36 -1 -19 -5 50 -9 58 -4 130 -11
160 -15 30 -4 91 -9 135 -11 44 -2 100 -6 125 -9 86 -11 275 -13 335 -4 95 14
105 18 105 38 0 16 12 21 69 32 77 13 132 4 72 -13 -18 -5 -31 -11 -29 -13 2
-2 28 2 58 10 62 17 85 18 55 4 -18 -8 -17 -9 5 -5 14 3 90 17 170 32 162 29
206 44 318 108 90 51 277 146 287 146 4 0 58 24 120 54 63 30 124 58 137 62
13 3 64 32 114 64 49 31 109 64 133 73 23 10 54 29 69 42 15 14 35 28 45 31 9
3 17 9 17 13 0 4 29 29 65 55 36 26 65 49 65 52 0 9 -57 -19 -80 -40 -34 -31
-79 -60 -86 -54 -7 7 137 128 146 123 4 -3 10 8 13 23 3 17 16 33 30 39 13 6
64 57 112 112 49 56 90 101 91 101 2 0 -5 -14 -16 -32 -10 -17 -16 -36 -13
-41 3 -6 1 -7 -6 -3 -6 4 -10 3 -9 -2 2 -6 -80 -105 -131 -158 -2 -2 0 -4 6
-4 33 0 212 215 445 533 37 51 83 106 101 122 54 48 163 235 203 349 8 22 37
75 64 117 49 77 61 109 39 109 -17 0 -6 44 31 125 17 39 38 84 45 100 53 117
96 253 77 241 -5 -3 -13 -22 -17 -42 -3 -20 -9 -33 -12 -30 -8 8 26 132 48
176 31 61 72 490 47 490 -13 0 -9 28 5 33 9 4 9 6 0 6 -20 2 -26 -20 -24 -78
2 -63 -5 -66 -13 -6 -2 22 -5 42 -5 44 -1 3 -8 -4 -16 -15 -14 -18 -14 -17
-15 16 -1 19 -3 44 -5 55 -3 11 -7 52 -11 90 -3 39 -8 72 -10 74 -3 3 -4 -99
-3 -225 1 -216 -6 -288 -29 -303 -5 -3 -12 -37 -15 -76 -11 -122 -43 -258 -48
-205 -1 8 -1 21 0 28 7 50 -28 -46 -43 -118 -43 -213 -166 -519 -280 -695 -29
-44 -64 -100 -78 -125 -34 -58 -144 -193 -198 -244 -23 -22 -82 -93 -131 -157
-85 -113 -169 -210 -169 -195 0 16 -62 -29 -160 -115 -187 -165 -459 -354
-533 -371 -22 -5 -70 -23 -106 -39 -81 -38 -122 -54 -182 -69 -26 -6 -59 -20
-75 -31 -31 -20 -21 -25 21 -9 17 7 24 7 20 0 -3 -6 -11 -10 -16 -10 -6 0 -46
-18 -89 -39 -44 -22 -96 -43 -117 -47 -21 -4 -56 -17 -79 -30 -22 -13 -52 -24
-65 -24 -13 0 -37 -9 -54 -20 -16 -11 -39 -20 -50 -20 -18 0 -18 1 3 16 36 25
25 33 -25 18 -56 -17 -70 -10 -20 11 19 8 38 19 41 24 8 12 -86 -10 -228 -53
-61 -19 -138 -37 -171 -41 -32 -3 -63 -8 -66 -11 -4 -2 -10 0 -14 6 -3 5 -1
10 4 10 6 0 11 5 11 11 0 6 -14 8 -37 4 -21 -3 -56 -9 -78 -13 -70 -11 -198
-7 -350 13 -16 2 -79 7 -140 11 -122 7 -166 19 -264 71 -39 21 -118 50 -194
69 -70 19 -130 34 -133 34 -3 0 3 -11 13 -25 16 -21 26 -25 78 -25 33 -1 69
-6 80 -11 13 -6 -12 -7 -73 -4 -105 6 -119 11 -179 66 -24 22 -47 39 -52 39
-5 0 -42 15 -83 34 -233 108 -300 136 -367 154 -79 23 -91 29 -196 106 -52 38
-78 51 -104 51 -29 0 -39 6 -58 34 -12 18 -21 37 -18 41 3 4 -12 20 -33 36
-20 15 -68 59 -107 97 -55 55 -63 66 -37 53 55 -28 36 -8 -38 39 -75 48 -85
52 -75 33 19 -39 -88 93 -110 136 -18 32 -78 101 -164 186 -120 119 -141 145
-179 220 -23 47 -42 90 -42 95 0 6 -14 30 -30 55 -35 52 -68 119 -131 265 -50
119 -142 375 -136 381 1 2 51 -24 111 -58 109 -62 119 -73 131 -140 8 -45 31
-95 70 -154 19 -29 44 -73 55 -98 11 -26 38 -74 60 -109 23 -34 32 -51 21 -37
-60 72 -81 102 -121 172 -24 43 -45 77 -46 75 -1 -1 3 -27 10 -57 7 -30 11
-66 9 -79 -5 -34 53 -94 84 -86 25 6 48 -20 101 -115 20 -36 43 -62 67 -74 21
-11 31 -22 25 -26 -7 -4 8 -31 40 -71 61 -75 83 -115 74 -131 -11 -18 55 -68
87 -66 27 2 38 12 22 20 -5 2 -21 23 -37 48 -16 25 -64 88 -106 140 -132 165
-206 294 -340 593 -29 64 -56 117 -60 117 -5 0 -23 25 -40 55 -30 53 -64 76
-89 61 -11 -7 -46 78 -43 108 0 12 -5 30 -12 42 -8 11 -21 40 -30 65 -8 24
-15 35 -16 24 -1 -32 -67 115 -75 168 -8 52 8 66 25 22 11 -30 24 -34 15 -5
-3 11 -2 20 3 20 4 0 14 -28 20 -62 9 -46 19 -70 44 -95 35 -37 48 -37 24 -1
-11 17 -17 56 -19 131 -2 59 -7 110 -10 114 -9 9 -37 -17 -38 -36 -1 -9 -5 0
-8 19 -4 19 -4 52 0 73 3 20 3 40 -1 42 -4 3 -6 25 -4 50 3 25 1 45 -4 45 -14
0 -21 -50 -17 -113 4 -44 2 -57 -9 -57 -21 0 -23 13 -20 180 4 194 12 243 24
155 6 -40 7 -35 4 25 -3 51 -1 70 6 60 8 -12 10 -10 11 10 3 56 -3 135 -11
151 -19 34 7 330 31 369 7 10 9 -8 6 -52 -1 -37 0 -64 4 -60 4 4 9 45 10 92 2
87 12 139 27 149 22 14 39 72 41 135 2 40 13 102 26 145 14 42 27 94 31 116 7
44 78 195 107 225 9 11 36 64 59 117 23 54 47 105 54 113 12 14 61 131 51 120
-23 -24 -102 -141 -136 -201 -47 -85 -49 -83 -20 15 29 101 39 127 66 163 12
17 23 41 23 52 0 31 16 67 44 94 14 14 46 67 71 117 52 108 85 163 92 156 7
-7 -19 -62 -64 -141 -20 -33 -36 -69 -38 -80 -1 -11 -10 -35 -19 -53 -9 -18
-15 -39 -13 -45 2 -7 12 4 22 23 9 19 26 44 36 55 11 11 37 45 57 75 26 37 45
55 59 55 11 0 30 9 42 19 39 35 19 -10 -37 -81 -34 -44 -45 -76 -17 -53 17 14
99 140 145 225 31 56 32 58 9 38 -22 -20 -28 -21 -44 -9 -18 13 -17 14 8 31
15 10 34 32 42 49 20 40 292 207 304 187 6 -9 27 3 77 41 276 211 397 297 380
269 -5 -8 0 -8 21 -1 67 25 117 57 157 103 40 45 51 50 137 74 58 16 126 44
179 74 47 27 111 57 143 68 53 19 62 19 87 6 41 -21 78 -19 151 9 61 23 150
40 268 51 62 6 79 14 60 26 -11 7 -9 9 6 10 31 1 71 7 192 30 62 11 127 18
145 16 l33 -4 -37 -1 c-29 -2 -39 -8 -51 -30 l-14 -28 291 -1 c259 -1 302 -4
391 -23 253 -55 451 -124 478 -167 4 -7 13 -13 18 -13 6 0 23 -10 37 -21 l27
-21 -35 7 c-19 4 -47 14 -62 21 -17 9 -28 10 -28 4 0 -5 5 -10 11 -10 5 0 7
-4 4 -10 -4 -6 1 -7 11 -3 12 4 15 3 10 -5 -4 -7 -1 -12 6 -12 7 0 48 -17 91
-39 42 -21 101 -46 130 -56 90 -29 151 -64 246 -141 90 -72 109 -85 96 -64
-10 16 3 12 46 -15 22 -14 60 -30 84 -34 48 -9 94 -37 165 -100 52 -47 43 -51
-34 -16 -64 29 -83 32 -41 7 17 -11 77 -62 134 -114 72 -66 119 -100 151 -112
26 -10 61 -32 76 -49 49 -55 109 -133 86 -113 -12 11 -25 17 -28 13 -3 -3 25
-30 62 -61 37 -31 70 -54 72 -51 6 6 21 -14 51 -67 11 -21 16 -38 10 -38 -14
0 -7 -17 26 -71 18 -28 30 -38 35 -30 12 21 61 -42 121 -156 65 -127 169 -296
176 -289 3 3 -4 20 -16 39 -19 32 -20 67 -1 67 10 0 44 -72 71 -148 11 -32 24
-65 30 -74 12 -23 12 -41 -1 -33 -6 4 -7 -1 -3 -11 4 -11 8 -13 11 -6 2 7 8
10 12 7 10 -6 7 4 -41 148 -18 53 -36 97 -41 97 -5 0 -6 5 -2 12 4 6 3 8 -4 5
-14 -9 -76 77 -107 149 -14 33 -19 50 -10 40 8 -11 15 -25 15 -30 0 -6 10 -22
21 -36 14 -17 10 -5 -11 38 -17 35 -50 87 -73 116 -60 76 -177 248 -210 309
l-28 52 31 -35 32 -35 -16 32 c-16 31 -28 44 -181 186 -44 40 -107 100 -140
132 -49 47 -53 53 -20 30 22 -15 60 -47 85 -70 25 -23 68 -58 96 -78 94 -67
264 -254 338 -372 129 -204 160 -250 178 -263 10 -7 29 -33 44 -57 14 -25 32
-45 40 -45 15 0 36 -36 70 -124 20 -52 23 -57 24 -30 0 17 -17 63 -39 105 -38
72 -55 121 -65 187 -4 29 -2 32 15 27 31 -10 22 8 -36 75 -30 35 -55 67 -55
72 0 5 -9 21 -20 36 -11 15 -26 45 -35 67 l-16 40 21 -25 c12 -14 -18 52 -65
145 -86 170 -164 285 -194 285 -9 0 -32 10 -51 21 -30 19 -33 19 -20 3 21 -27
76 -82 60 -61 -23 31 15 20 49 -15 27 -27 111 -174 111 -193 0 -20 -98 82
-234 242 -42 50 -73 80 -82 76 -7 -3 -27 10 -44 28 -50 56 -35 77 28 39 18
-11 38 -20 45 -20 8 0 31 -13 53 -30 21 -16 42 -30 47 -30 13 0 -19 53 -63
102 -35 41 -45 46 -61 38 -10 -6 -19 -17 -19 -24 0 -19 -172 85 -230 138 -25
23 -70 59 -102 79 -94 63 -106 92 -14 36 97 -60 103 -63 64 -27 -20 19 -67 49
-105 68 -81 40 -153 87 -153 100 0 5 34 -10 75 -35 41 -24 75 -40 75 -34 0 5
-6 12 -14 15 -8 3 -17 11 -19 19 -3 7 28 -10 70 -38 41 -28 79 -61 83 -73 5
-12 15 -26 23 -31 14 -7 82 -65 166 -139 20 -18 38 -31 40 -29 7 7 -112 126
-189 188 -41 34 -84 70 -95 80 -11 10 -50 38 -87 63 -69 45 -82 58 -50 48 12
-4 10 0 -7 15 -13 12 -35 21 -48 21 -32 0 -75 26 -183 109 -46 36 -98 72 -115
79 -55 25 -523 212 -529 212 -3 0 -14 8 -24 18 -14 14 -36 19 -90 21 -39 1
-82 4 -94 6 l-23 4 24 -18 c24 -18 23 -18 -50 -4 -41 8 -117 16 -169 19 -151
7 -200 15 -200 33 0 7 137 5 173 -3 9 -2 17 0 17 5 0 5 -10 9 -22 10 -13 0
-30 2 -38 3 -8 2 -78 6 -154 10 -76 4 -143 9 -147 12 -5 3 -9 1 -9 -5 0 -9 32
-16 109 -26 18 -2 36 -7 39 -10 9 -9 -196 9 -240 21 -5 1 -26 2 -49 3 -32 1
-42 5 -46 22 -5 18 -13 20 -72 18 -36 -1 -81 -8 -99 -15 -21 -8 -40 -10 -55
-5 -22 9 -22 9 4 19 15 6 47 14 70 17 70 11 58 14 -45 13 -53 0 -96 -5 -96
-10 0 -5 5 -6 10 -3 6 3 10 2 10 -3 0 -15 -27 -22 -90 -22 -32 0 -60 -4 -62
-9 -1 -5 -31 -12 -65 -14 -34 -3 -65 -7 -70 -10 -4 -3 -26 -8 -48 -11 -48 -8
-125 3 -104 14 11 6 74 17 113 19 5 1 3 8 -4 16 -10 12 -10 18 0 30 11 13 1
22 -11 11z m487 -207 c-25 -19 -43 -23 -135 -25 -69 -2 -97 0 -81 5 23 8 24 9
3 10 -34 2 -162 -27 -224 -50 -56 -20 -126 -22 -122 -2 2 11 -45 3 -112 -17
-16 -5 -63 -18 -102 -30 -40 -11 -73 -24 -73 -29 0 -4 25 -6 56 -3 64 5 65 -1
7 -41 -42 -29 -183 -63 -193 -47 -4 6 -30 2 -68 -11 -85 -29 -81 -40 5 -13 10
3 0 -5 -22 -17 -55 -30 -291 -133 -340 -148 -79 -24 -110 -42 -125 -73 -10
-21 -35 -42 -75 -64 -37 -20 -74 -50 -95 -78 -20 -26 -52 -58 -73 -73 -20 -14
-35 -28 -32 -31 3 -3 32 14 65 37 33 23 65 41 73 39 7 -2 32 12 55 31 24 18
45 32 47 29 4 -4 -174 -157 -247 -212 -41 -31 -51 -23 -17 13 12 12 19 24 17
27 -3 2 -13 -5 -23 -16 -24 -26 -38 -25 -29 2 7 24 15 28 -73 -29 -14 -10 -32
-18 -40 -19 -8 -2 -22 -9 -31 -16 -10 -8 -30 -22 -47 -32 l-30 -17 25 21 c14
12 34 29 45 38 11 10 38 28 60 41 118 71 194 126 210 153 l18 31 -54 -40 c-30
-23 -64 -44 -76 -48 -13 -3 -23 -10 -23 -15 0 -4 -7 -11 -16 -14 -19 -7 -19
-7 51 78 l40 50 -34 -20 c-40 -23 -104 -78 -226 -194 -85 -81 -179 -170 -270
-255 -45 -42 -168 -125 -185 -125 -17 0 49 90 74 100 21 8 34 22 166 180 34
41 79 93 100 115 48 52 150 146 127 119 -9 -11 -17 -24 -17 -28 0 -4 23 20 51
53 30 36 62 64 77 67 15 4 47 20 72 37 25 17 72 49 105 71 33 22 129 75 214
118 85 43 177 93 205 112 46 31 55 33 96 27 l45 -7 -58 -28 c-78 -39 -80 -49
-5 -24 35 11 88 39 118 63 89 68 183 120 251 139 35 9 87 24 114 31 28 8 71
13 96 11 25 -2 84 5 130 15 156 37 233 46 409 48 l174 2 -28 -22z m404 -43
c338 -15 401 -22 567 -67 40 -10 75 -19 78 -19 4 0 4 -4 1 -9 -3 -5 2 -11 12
-14 9 -3 55 -17 102 -31 47 -15 95 -28 108 -31 44 -8 60 -16 64 -33 3 -9 40
-34 82 -55 73 -36 100 -59 44 -38 -17 6 -29 6 -35 0 -7 -7 -32 -5 -72 4 -82
19 -65 5 20 -18 82 -21 100 -31 80 -44 -24 -15 -155 19 -137 36 8 8 -120 68
-166 78 -43 9 -80 33 -72 46 3 6 16 14 28 19 l21 9 -22 2 c-13 1 -27 3 -33 4
-5 1 -21 3 -35 4 -14 0 -35 11 -47 23 -30 30 -243 100 -312 102 -33 1 -29 -20
6 -32 30 -11 29 -11 -22 -7 -30 3 -75 8 -100 10 -33 4 -40 3 -25 -4 18 -9 17
-10 -10 -11 -73 -5 -165 -3 -220 3 l-60 7 30 -25 30 -25 -27 0 c-16 0 -28 4
-28 9 0 11 -53 24 -93 23 -15 0 -25 3 -23 7 3 4 27 7 55 6 30 -1 49 3 48 9 -1
7 23 11 65 11 71 0 98 10 51 19 -15 3 -54 10 -85 16 -32 6 -58 15 -58 20 0 5
10 7 23 5 12 -2 87 -6 167 -9z m-2870 -910 c0 -8 -31 -46 -70 -85 -38 -38 -70
-75 -70 -81 0 -5 -11 -33 -25 -62 -14 -28 -25 -58 -25 -65 0 -8 -30 -44 -67
-81 -81 -80 -187 -235 -180 -262 3 -10 -6 -36 -19 -57 -21 -35 -23 -36 -24
-13 0 27 7 39 -91 -150 -27 -52 -42 -84 -32 -71 49 68 54 67 27 -4 -38 -100
-74 -213 -74 -230 0 -10 -10 -15 -29 -15 l-29 0 3 58 c1 31 5 80 9 107 6 44 2
37 -37 -60 -24 -60 -54 -140 -67 -177 -13 -37 -25 -66 -27 -64 -2 2 3 43 12
91 15 80 30 126 57 179 22 42 118 277 118 288 0 6 2 9 5 6 3 -2 -2 -37 -11
-77 -8 -41 -13 -79 -11 -85 7 -19 35 47 42 99 9 61 26 104 58 147 35 48 43 63
27 53 -16 -10 -8 5 27 52 13 18 22 36 21 40 -3 10 70 118 106 157 15 15 36 53
48 83 11 31 23 50 27 44 9 -15 26 -1 81 69 63 79 64 80 35 25 -14 -27 -43 -68
-64 -90 -20 -22 -44 -49 -52 -60 -13 -19 -13 -19 5 -5 23 18 21 13 -28 -73
-21 -37 -36 -70 -33 -73 3 -3 26 26 52 65 26 39 51 69 57 68 18 -3 96 143 108
200 16 74 57 114 128 122 6 0 12 -5 12 -13z m-196 -603 c-9 -21 -29 -72 -43
-113 -28 -76 -51 -125 -80 -169 -8 -13 -16 -29 -17 -35 -1 -6 -16 -49 -34 -96
-18 -47 -39 -107 -47 -135 -8 -27 -34 -81 -57 -120 -33 -56 -41 -79 -41 -120
-1 -66 -35 -205 -51 -205 -7 0 -15 -8 -18 -17 -3 -10 -3 4 -1 30 3 33 1 46 -6
41 -16 -10 -6 71 16 124 9 23 23 42 30 42 7 0 16 11 19 24 3 13 9 32 12 43 6
16 5 16 -9 -2 -27 -35 -30 -8 -7 67 28 92 77 198 96 205 15 5 36 40 54 87 15
39 -27 20 -50 -23 -11 -20 -19 -31 -20 -24 0 12 9 29 56 110 10 18 29 35 41
38 21 5 60 61 50 71 -2 3 -12 -10 -20 -28 -16 -31 -17 -32 -17 -8 l0 25 -21
-25 -20 -25 7 25 c12 47 56 145 70 160 8 8 29 15 46 15 26 0 34 6 50 38 11 20
22 37 24 37 2 0 -3 -17 -12 -37z m-367 -1025 c-3 -8 -6 -5 -6 6 -1 11 2 17 5
13 3 -3 4 -12 1 -19z m-62 -73 c-3 -35 -15 -44 -15 -13 0 21 7 38 16 38 1 0 1
-11 -1 -25z m-90 -100 c27 -171 43 -345 33 -351 -4 -3 -8 22 -8 55 0 34 -4 61
-9 61 -5 0 -18 -35 -29 -77 -41 -155 -41 -155 -36 -58 6 92 7 106 20 230 4 39
8 86 9 105 4 76 5 83 9 79 2 -2 7 -22 11 -44z m68 -717 c8 -35 22 -88 31 -118
9 -30 15 -68 15 -85 l-1 -30 -10 34 c-5 19 -16 44 -24 55 -8 11 -14 36 -15 56
0 19 -3 29 -6 23 -13 -32 -23 -7 -23 57 0 39 4 70 9 70 5 0 16 -28 24 -62z
m74 -680 c-3 -7 -5 -2 -5 12 0 14 2 19 5 13 2 -7 2 -19 0 -25z m93 -214 c22
-47 40 -88 40 -89 0 -2 25 -56 55 -120 30 -65 55 -120 55 -124 0 -3 -16 19
-35 49 -50 80 -43 48 10 -45 25 -44 64 -96 85 -116 40 -36 51 -59 29 -59 -6 0
-29 19 -51 43 -22 23 -38 34 -34 24 3 -11 2 -16 -5 -12 -5 4 -7 16 -3 27 3 12
2 18 -3 15 -10 -7 -26 22 -79 146 -19 43 -29 75 -24 72 7 -4 7 2 1 17 -34 82
-91 238 -91 247 0 24 12 7 50 -75z m720 -826 c0 -6 -6 -5 -15 2 -8 7 -15 14
-15 16 0 2 7 1 15 -2 8 -4 15 -11 15 -16z"/>
<path d="M2244 6445 c-10 -8 -14 -15 -8 -15 5 0 19 7 30 15 10 8 14 15 8 15
-5 0 -19 -7 -30 -15z"/>
<path d="M2050 6364 c-99 -38 -170 -74 -170 -87 0 -15 -57 -53 -90 -60 -14 -4
-34 -13 -45 -22 -11 -9 -14 -14 -7 -10 6 3 12 1 12 -5 0 -6 12 -3 28 9 16 11
41 23 58 27 36 9 93 37 158 79 28 18 73 46 100 64 59 37 45 39 -44 5z"/>
<path d="M1860 6080 c-9 -6 -10 -10 -3 -10 6 0 15 5 18 10 8 12 4 12 -15 0z"/>
<path d="M1293 5825 c-15 -13 -23 -25 -17 -25 6 0 21 11 34 25 30 32 19 32
-17 0z"/>
<path d="M3958 6653 c7 -3 16 -2 19 1 4 3 -2 6 -13 5 -11 0 -14 -3 -6 -6z"/>
<path d="M4820 6482 c0 -9 50 -35 56 -29 2 2 -10 11 -26 21 -17 9 -30 13 -30
8z"/>
<path d="M640 5349 c-11 -19 -10 -20 9 -9 12 6 21 15 21 20 0 18 -19 11 -30
-11z"/>
<path d="M811 5139 c-7 -12 -10 -23 -8 -26 3 -3 11 5 17 17 15 28 8 35 -9 9z"/>
<path d="M3266 6957 c-17 -12 -13 -14 32 -13 47 1 89 16 46 16 -10 0 -28 3
-39 6 -11 3 -28 -1 -39 -9z"/>
<path d="M3959 6966 c-5 -5 -53 -14 -82 -15 -10 -1 -15 -6 -12 -11 4 -6 10 -8
15 -5 5 3 33 6 64 7 44 2 53 5 44 15 -11 13 -21 16 -29 9z"/>
<path d="M3188 6953 c7 -3 16 -2 19 1 4 3 -2 6 -13 5 -11 0 -14 -3 -6 -6z"/>
<path d="M4230 6870 c0 -5 5 -10 11 -10 5 0 7 5 4 10 -3 6 -8 10 -11 10 -2 0
-4 -4 -4 -10z"/>
<path d="M3445 6590 l-20 -9 20 0 c11 0 27 4 35 9 13 9 13 10 0 9 -8 0 -24 -4
-35 -9z"/>
<path d="M4530 6396 c0 -3 9 -10 20 -16 11 -6 20 -8 20 -6 0 3 -9 10 -20 16
-11 6 -20 8 -20 6z"/>
<path d="M5720 6227 c0 -3 12 -12 26 -22 15 -9 23 -12 20 -6 -7 11 -46 35 -46
28z"/>
<path d="M1307 6192 c-24 -27 -21 -36 4 -11 11 11 19 23 16 25 -2 2 -11 -4
-20 -14z"/>
<path d="M1035 5946 c-16 -18 -52 -56 -80 -85 l-50 -54 53 37 c53 35 73 56
100 105 20 34 11 33 -23 -3z"/>
<path d="M1396 5711 c-9 -10 -14 -25 -11 -33 5 -13 12 -12 45 5 48 23 51 31
10 22 -25 -5 -29 -4 -24 9 8 21 1 20 -20 -3z"/>
<path d="M790 5675 c-7 -9 -11 -17 -9 -20 3 -2 10 5 17 15 14 24 10 26 -8 5z"/>
<path d="M1089 5297 c-70 -111 -82 -168 -14 -63 37 56 56 106 43 106 -2 0 -15
-19 -29 -43z"/>
<path d="M6525 4906 c2 -16 11 -37 20 -45 21 -21 18 -3 -5 39 -20 35 -20 35
-15 6z"/>
<path d="M6686 4865 c9 -15 13 -33 9 -47 -4 -16 -3 -19 3 -9 7 10 18 -9 41
-69 18 -45 31 -89 29 -98 -3 -22 40 -150 53 -158 15 -9 23 4 12 18 -6 7 -13
27 -17 43 -5 24 -1 21 19 -17 22 -41 45 -69 45 -54 0 3 -12 37 -26 77 -47 130
-156 339 -177 339 -4 0 0 -11 9 -25z"/>
<path d="M6590 4825 c0 -2 9 -19 20 -37 23 -39 27 -30 5 12 -14 27 -25 38 -25
25z"/>
<path d="M6700 4782 c0 -5 7 -31 15 -59 8 -28 14 -61 14 -74 -1 -13 6 -37 14
-54 l17 -30 -5 45 c-6 67 -55 218 -55 172z"/>
<path d="M6606 4747 c3 -10 9 -15 12 -12 3 3 0 11 -7 18 -10 9 -11 8 -5 -6z"/>
<path d="M6510 4591 c0 -15 100 -221 107 -221 10 0 -10 86 -22 95 -7 6 -23 31
-36 55 -31 62 -49 87 -49 71z"/>
<path d="M6730 4538 c0 -10 13 -50 29 -90 31 -80 56 -175 66 -252 7 -57 22
-89 38 -83 7 2 12 18 12 35 0 18 1 32 3 32 1 0 11 -20 22 -44 27 -65 40 -67
35 -4 -8 81 -26 178 -35 183 -11 7 -23 -32 -15 -45 3 -5 2 -10 -2 -10 -15 0
-40 52 -56 115 -21 82 -35 115 -47 115 -7 0 -8 -6 0 -19 5 -11 10 -23 9 -28 0
-4 -14 19 -29 52 -16 33 -29 52 -30 43z"/>
<path d="M107 4120 c-3 -11 -1 -23 4 -26 5 -3 9 6 9 20 0 31 -6 34 -13 6z"/>
<path d="M6866 3970 c3 -34 14 -82 24 -106 22 -47 25 -75 11 -89 -10 -11 3
-100 18 -119 4 -6 9 -31 10 -55 0 -24 4 -47 7 -50 3 -3 3 81 0 186 -6 199 -9
214 -55 272 l-19 25 4 -64z m59 -270 c3 -5 1 -10 -4 -10 -6 0 -11 5 -11 10 0
6 2 10 4 10 3 0 8 -4 11 -10z"/>
<path d="M555 3827 c-4 -25 -5 -52 -2 -59 3 -7 6 3 6 22 1 27 4 32 12 20 7
-11 9 -7 5 18 -7 50 -14 49 -21 -1z"/>
<path d="M121 3594 c0 -11 3 -14 6 -6 3 7 2 16 -1 19 -3 4 -6 -2 -5 -13z"/>
<path d="M6711 3224 c0 -11 3 -14 6 -6 3 7 2 16 -1 19 -3 4 -6 -2 -5 -13z"/>
<path d="M6705 3189 c-4 -6 -5 -12 -2 -15 2 -3 7 2 10 11 7 17 1 20 -8 4z"/>
<path d="M82 3150 c0 -14 2 -19 5 -12 2 6 2 18 0 25 -3 6 -5 1 -5 -13z"/>
<path d="M431 1959 c-1 -14 60 -177 76 -202 3 -5 9 -5 14 0 5 5 -10 47 -35 98
-23 50 -46 97 -49 105 -5 13 -6 12 -6 -1z"/>
<path d="M877 1938 c3 -18 26 -64 50 -103 41 -67 52 -95 35 -95 -4 0 -14 6
-21 13 -8 6 -6 0 4 -15 9 -15 22 -25 28 -21 5 3 7 1 4 -4 -4 -6 3 -19 16 -29
19 -16 20 -17 8 -1 -27 34 -5 25 59 -23 73 -57 91 -65 40 -17 -30 28 -125 166
-199 290 -13 20 -24 37 -27 37 -2 0 -1 -15 3 -32z"/>
<path d="M603 1698 c7 -20 -8 -25 -17 -5 -3 6 -4 -1 0 -18 6 -34 47 -127 71
-165 15 -22 17 -23 23 -6 5 15 17 4 62 -55 56 -75 90 -132 86 -146 -7 -26 58
-86 202 -188 52 -37 54 -37 26 -8 -15 17 -25 36 -21 42 6 11 94 -84 95 -102 0
-14 109 -110 154 -137 23 -14 55 -34 71 -46 43 -31 127 -76 132 -71 2 2 -29
24 -69 47 -92 55 -132 84 -185 136 -44 43 -54 60 -28 50 29 -11 15 12 -31 53
-26 23 -53 41 -62 41 -30 0 -155 137 -239 263 -47 70 -87 127 -90 127 -2 0 -1
-6 3 -12 18 -32 -52 42 -78 82 -16 25 -27 37 -24 28 10 -33 -4 -19 -46 45 -22
34 -38 54 -35 45z"/>
<path d="M1150 1570 c0 -5 5 -10 10 -10 6 0 10 5 10 10 0 6 -4 10 -10 10 -5 0
-10 -4 -10 -10z"/>
<path d="M1288 1490 c6 -8 12 -23 12 -34 0 -12 15 -32 35 -46 34 -25 44 -40
25 -40 -37 0 36 -81 130 -144 69 -47 243 -140 310 -166 19 -7 58 -24 85 -36
28 -12 75 -33 105 -47 31 -13 62 -31 71 -39 9 -9 57 -39 108 -68 91 -52 111
-72 50 -51 -57 20 -55 11 3 -19 49 -24 62 -27 86 -18 22 9 35 7 67 -10 l40
-21 -40 -1 -40 -2 33 -14 c18 -8 49 -16 70 -19 33 -4 35 -4 14 7 -16 8 -22 18
-19 30 4 13 -4 23 -25 34 -49 25 -24 28 48 4 79 -25 124 -47 124 -59 0 -9 72
-37 116 -45 75 -15 158 -38 203 -55 53 -22 111 -26 146 -12 19 8 18 9 -7 21
-16 7 -28 17 -28 22 0 4 -13 8 -28 8 -16 0 -50 6 -75 14 -25 7 -48 11 -51 8
-17 -16 -146 8 -146 28 0 3 -6 7 -12 8 -29 2 -103 24 -127 37 -14 7 -62 23
-106 35 -44 12 -84 27 -90 34 -5 7 -26 18 -45 26 -62 24 -143 67 -199 104 -29
20 -59 36 -66 36 -7 0 -30 17 -51 38 -39 38 -233 191 -289 228 -16 11 -64 35
-105 54 -71 33 -204 103 -300 158 -25 14 -39 19 -32 12z"/>
<path d="M5991 1053 c-16 -16 -41 -39 -56 -52 -14 -13 -31 -33 -37 -45 -6 -12
10 -1 38 24 52 47 94 91 94 96 0 9 -11 2 -39 -23z"/>
<path d="M1740 1045 c0 -15 87 -81 153 -115 42 -23 75 -45 72 -50 -5 -8 86
-65 171 -108 23 -12 60 -23 84 -26 23 -3 50 -12 60 -21 10 -9 55 -29 101 -46
46 -16 116 -41 154 -55 139 -52 186 -64 203 -55 12 7 8 10 -19 16 -89 18 -138
36 -133 50 7 18 -3 23 -76 30 -103 10 -344 117 -391 172 -29 35 -77 65 -146
92 -29 11 -85 40 -125 64 -73 44 -108 61 -108 52z"/>
<path d="M1247 881 c56 -55 105 -101 109 -101 4 0 -5 14 -21 30 -16 17 -30 37
-31 46 -3 19 -60 69 -118 103 -32 19 -19 2 61 -78z"/>
<path d="M5806 905 c-49 -49 -51 -52 -36 -75 8 -13 11 -13 27 3 9 9 18 28 18
42 1 13 12 33 26 44 13 10 21 22 17 26 -3 3 -27 -14 -52 -40z"/>
<path d="M1900 867 c0 -3 12 -12 26 -22 15 -9 23 -12 20 -6 -7 11 -46 35 -46
28z"/>
<path d="M1399 750 c13 -11 49 -43 80 -71 31 -28 75 -59 98 -69 23 -10 73 -38
110 -62 37 -25 98 -61 136 -82 37 -21 67 -41 67 -46 0 -5 39 -24 88 -43 48
-20 138 -59 201 -87 201 -91 516 -186 761 -229 152 -27 166 -29 230 -36 30 -3
71 -8 90 -10 19 -2 96 -6 170 -9 132 -5 134 -5 85 10 -27 8 -68 17 -90 20 -64
10 -54 14 31 14 l79 0 -30 21 c-27 18 -39 19 -115 14 -202 -16 -238 -15 -242
3 -3 12 -17 18 -39 20 -18 2 -61 10 -94 19 -33 9 -73 17 -90 17 -16 1 -39 7
-50 13 -11 6 -24 11 -30 11 -85 2 -359 75 -550 146 -33 13 -36 15 -15 16 35 1
9 14 -58 30 -30 7 -56 18 -59 25 -2 7 -50 30 -106 50 -56 20 -111 40 -122 45
-50 21 -56 21 -44 -1 13 -24 11 -24 -60 24 -40 27 -43 31 -25 39 15 7 14 8 -8
5 -15 -2 -25 -1 -23 3 2 4 -13 12 -34 19 -35 10 -76 41 -54 41 5 0 46 -16 92
-35 46 -20 85 -34 86 -33 2 2 -56 34 -128 72 -102 53 -126 62 -108 42 14 -14
20 -26 14 -26 -11 0 -117 72 -150 102 -12 11 -26 17 -31 14 -6 -3 -27 1 -48 9
l-39 16 24 -21z"/>
<path d="M2495 730 c11 -5 31 -9 45 -9 23 0 23 1 5 9 -11 5 -31 9 -45 9 -23 0
-23 -1 -5 -9z"/>
<path d="M5640 720 c-8 -5 -10 -10 -5 -10 6 0 17 5 25 10 8 5 11 10 5 10 -5 0
-17 -5 -25 -10z"/>
<path d="M3182 613 c-6 -3 -10 -9 -6 -14 3 -5 -3 -9 -13 -9 -15 0 -15 -2 -3
-9 8 -6 18 -7 22 -5 4 3 8 1 8 -4 0 -14 -30 -18 -75 -11 -22 3 -34 7 -27 8 7
0 11 5 7 10 -3 6 -24 4 -53 -4 -26 -8 -65 -15 -87 -15 -61 0 -30 -16 65 -34
124 -22 219 -31 292 -27 25 2 48 30 44 54 -3 12 -5 27 -5 34 -1 14 -142 36
-169 26z"/>
<path d="M5258 487 c-38 -22 -48 -37 -26 -37 22 0 98 42 92 51 -8 14 -25 10
-66 -14z"/>
<path d="M5170 455 c-7 -8 -8 -15 -2 -15 5 0 15 7 22 15 7 8 8 15 2 15 -5 0
-15 -7 -22 -15z"/>
<path d="M5114 414 c-18 -14 -18 -15 4 -4 12 6 22 13 22 15 0 8 -5 6 -26 -11z"/>
<path d="M3920 360 c-12 -8 -12 -10 5 -9 11 0 29 4 40 9 18 8 18 9 -5 9 -14 0
-32 -4 -40 -9z"/>
<path d="M4760 283 c-69 -25 -152 -55 -186 -67 -33 -11 -71 -28 -85 -37 l-24
-17 30 5 30 4 -32 -15 c-65 -30 -347 -90 -313 -66 18 12 151 56 198 65 18 4
30 10 27 15 -5 8 -18 7 -70 -4 -103 -23 -220 -45 -269 -51 -32 -4 -68 -8 -80
-10 -11 -2 -66 -9 -121 -15 -136 -15 -179 -21 -184 -26 -2 -2 4 -4 15 -4 35
-1 -7 -17 -61 -25 -56 -7 -85 -25 -34 -20 19 1 68 4 109 5 41 2 83 5 94 8 20
5 20 5 0 14 -11 5 19 6 71 3 50 -3 105 -6 124 -5 32 1 283 42 326 54 11 3 49
12 84 21 91 22 405 127 479 160 59 27 77 42 50 42 -7 0 -22 2 -33 6 -12 3 -73
-14 -145 -40z"/>
</g>
</svg>
