<svg width="363" height="369" viewBox="0 0 363 369" fill="none" xmlns="http://www.w3.org/2000/svg">
<path d="M182.15 0.40387C178.58 0.922791 178.379 1.03809 180.97 1.09573C182.15 1.12457 183.704 1.2399 184.424 1.32639C187.648 1.84528 182.294 2.39301 175.356 2.27771C173.14 2.22003 171.269 2.13358 171.182 2.0759C171.125 1.98941 171.24 1.78763 171.47 1.64349C172.219 1.12457 170.002 1.70114 168.822 2.30652C168.217 2.62363 167.728 2.91193 167.728 2.94073C167.728 2.96957 169.484 2.94073 171.614 2.88309C175.356 2.76779 175.5 2.76779 175.5 3.34433C175.5 4.12271 174.809 4.26685 170.923 4.26685C167.814 4.26685 167.67 4.29568 167.814 4.84341C167.958 5.39114 167.814 5.41995 164.878 5.41995C163.18 5.41995 161.683 5.53528 161.51 5.67941C161.164 6.02536 156.76 6.86136 155.378 6.86136C154.803 6.83255 154.025 6.65958 153.622 6.42896C152.442 5.7659 151.147 5.93887 148.153 7.14966C146.598 7.75504 144.238 8.56223 142.914 8.87933C141.618 9.22528 140.265 9.57123 139.949 9.65771C139.431 9.80185 139.402 9.77301 139.805 9.31177C140.208 8.85052 140.179 8.82169 139.661 8.96582C139.344 9.05231 138.25 9.34061 137.214 9.60004C136.178 9.8595 132.579 11.1279 129.211 12.3676C123.166 14.645 120.489 15.308 120.115 14.7026C119.913 14.3567 118.819 14.645 115.509 15.9134C114.415 16.3458 113.379 16.6341 113.206 16.5764C113.033 16.49 111.507 17.4125 109.78 18.5656C108.082 19.7476 106.614 20.6989 106.499 20.6989C106.383 20.6989 106.614 20.3818 106.988 19.9782C107.362 19.5746 107.592 19.2575 107.506 19.2575C107.42 19.2575 106.297 19.834 105.002 20.5547C103.706 21.2754 102.526 21.852 102.382 21.852C101.576 21.852 89.8311 30.0968 88.4493 31.6247L87.9024 32.2301L89.2553 31.6247C90.0038 31.3076 90.6947 31.1058 90.781 31.1635C90.8386 31.25 89.7447 32.2589 88.3054 33.3832C86.8661 34.5075 85.6858 35.5742 85.6858 35.7183C85.6858 36.1508 83.9586 36.8715 83.3829 36.6985C81.742 36.1796 84.0162 32.4896 86.8373 31.1058C88.3342 30.3563 94.0339 26.3203 94.0339 26.0032C94.0339 25.7438 92.3643 26.7528 89.8023 28.5978C88.3342 29.6356 86.8948 30.5004 86.5494 30.5004C86.2327 30.5004 85.1964 30.8752 84.2465 31.3653C83.2965 31.8265 82.3178 32.2301 82.0875 32.2301C81.3678 32.2301 82.4041 30.5869 83.7859 29.6068C84.9373 28.7419 89.5144 26.1762 89.8599 26.1762C89.9462 26.1762 89.975 26.4357 89.8599 26.7239C89.7159 27.2429 89.7735 27.2717 90.522 27.0699C91.8174 26.6951 93.084 25.9456 96.452 23.6682C100.108 21.189 101.518 20.4106 102.44 20.4106C102.814 20.4106 104.8 19.4593 106.873 18.3062C110.817 16.144 112.083 15.3369 111.853 15.1062C111.795 15.0197 109.924 15.9999 107.736 17.2683C103.937 19.4593 102.987 19.834 103.821 18.825C104.656 17.8161 103.649 18.1043 100.338 19.8052C98.4383 20.8142 96.7975 21.5349 96.7111 21.4484C96.4808 21.2178 90.3492 24.4465 86.8373 26.6086C85.3404 27.5311 82.8935 29.232 81.3678 30.3851C78.7194 32.3743 78.5755 32.5472 78.2588 33.9886C78.0573 34.7958 77.3664 36.9579 76.7044 38.8029L75.4953 42.1182L72.1561 44.8568C66.2836 49.7288 62.311 53.2747 57.9642 57.57C55.6325 59.8763 53.7326 61.6348 53.7326 61.4619C53.7326 60.77 56.3234 57.2818 58.7703 54.7161C61.3611 51.9774 62.714 50.7666 62.4837 51.4008C62.1959 52.208 66.5139 47.9415 67.6366 46.2982C68.1547 45.5487 68.8456 44.8857 69.191 44.7992C69.9395 44.5974 73.1636 41.4263 73.7393 40.302C74.459 38.9182 73.4227 38.6876 72.2136 39.9561C71.7818 40.4173 70.7167 41.0804 69.8531 41.4263C68.5289 41.9452 68.1835 42.2623 67.7229 43.2137C67.4063 43.9344 65.3336 46.2118 62.2822 49.2387C59.5475 51.9197 57.3021 54.053 57.2446 53.9954C57.187 53.9377 57.7339 52.9576 58.4824 51.8044C59.8929 49.6423 62.5989 46.7883 63.5488 46.5001C64.2109 46.2694 64.2685 45.8947 63.6352 45.664C63.3473 45.5487 62.6277 46.0388 61.5626 47.1054C60.6702 47.9991 59.6051 48.8928 59.2021 49.1522C58.799 49.3829 57.59 50.9396 56.4673 52.5828C55.3734 54.2548 53.5023 56.6764 52.3796 57.9736C51.2281 59.2709 49.5585 61.3177 48.6373 62.4997C47.745 63.6816 45.1542 66.5356 42.9088 68.8419C38.7923 73.1084 37.0651 75.3282 37.5257 75.7894C37.9863 76.2507 38.9938 75.2417 41.9588 71.4075C43.5709 69.3319 44.9239 67.7176 45.0102 67.804C45.0966 67.8905 44.8087 68.4959 44.3481 69.1301C42.7361 71.4075 42.6497 71.5517 43.0239 71.3211C43.1967 71.2057 43.3694 71.2346 43.3694 71.3787C43.3694 71.9265 41.671 73.9444 39.9438 75.4435C38.965 76.3083 37.8999 77.5191 37.5545 78.1822L36.9787 79.3641L38.0151 78.3839C38.5908 77.8362 39.0514 77.4903 39.0514 77.6632C39.0514 77.8074 38.3893 78.9605 37.5833 80.2001C36.0576 82.6217 34.4455 85.6487 34.4455 86.1387C34.4455 86.8882 35.1364 86.2829 36.1151 84.6685C38.0438 81.4686 39.9438 78.6434 40.1741 78.6434C40.318 78.6434 40.3468 78.9893 40.2892 79.4218C40.1453 80.2001 40.1741 80.2001 40.5483 79.6524C40.7786 79.3353 42.0452 77.2596 43.3982 75.0399C45.6147 71.3211 45.8162 70.8598 45.845 69.3319C45.9026 67.9482 46.1041 67.314 47.0829 65.6996C48.1192 63.9411 48.407 63.6528 49.9327 62.9897C52.2357 61.9519 53.7326 61.9807 53.7326 63.0762C53.7326 63.6528 48.4646 68.8419 47.8889 68.8419C47.3707 68.8419 43.283 77.6632 43.3118 78.6722C43.3118 79.3353 42.9952 79.7389 41.4982 80.9496C39.1377 82.7946 36 86.5711 32.6895 91.5008C31.279 93.634 30.0411 95.5655 29.9548 95.7961C29.8684 95.9979 30.0411 96.4304 30.3578 96.7475C30.9047 97.2952 30.9047 97.324 29.6669 99.1114C28.976 100.092 28.3715 101.043 28.3139 101.245C28.0261 102.052 27.8822 101.129 28.1412 100.005C28.2852 99.3132 28.3715 98.7078 28.3139 98.6501C28.2564 98.5925 26.961 101.043 25.4065 104.099C23.852 107.126 22.3839 109.778 22.1824 109.951C21.7794 110.268 20.9158 112.43 20.9158 113.064C20.9158 113.237 21.3764 112.545 21.9233 111.507C23.0172 109.49 23.9096 108.423 24.1687 108.826C24.255 108.942 23.7081 110.556 22.9596 112.372C21.0885 116.927 19.7643 120.79 19.3613 122.981L19.0159 124.855L17.6053 124.884L16.166 124.913L16.1084 123.471C16.022 121.741 16.5114 116.754 16.9432 115.025C17.1159 114.361 17.1735 113.727 17.1159 113.641C16.8856 113.439 13.1434 123.068 11.5313 127.997C9.66018 133.705 9.11324 133.734 10.2647 128.055C10.6101 126.469 10.898 124.74 10.9556 124.192C11.0707 123.096 13.863 116.235 14.4388 115.63C14.6403 115.428 15.1009 114.39 15.4463 113.352C15.8205 112.286 16.7705 109.922 17.6341 108.048C18.4689 106.203 19.3037 104.041 19.5052 103.263C19.6779 102.484 19.9658 101.706 20.1385 101.562C20.4264 101.245 20.4264 101.302 19.6204 104.733C19.0159 107.385 18.5553 110.527 18.6704 111.306C18.7568 111.796 18.9871 111.507 19.7355 110.066C20.4552 108.682 20.7718 107.587 20.9733 105.886C21.3476 102.311 21.8945 100.841 23.7657 98.3042C26.1262 95.1043 26.8458 93.6917 25.3777 95.0754C24.9747 95.4502 24.658 95.652 24.658 95.5367C24.658 95.2772 26.1837 93.0286 27.3928 91.4719C28.6594 89.8864 28.9185 89.3098 28.0549 90.0882C26.817 91.2413 26.9034 90.8089 28.3427 88.9351C29.12 87.9549 30.4154 86.1675 31.2502 84.9279C32.085 83.7172 33.4092 82.0451 34.2152 81.2091C35.2803 80.1136 35.6833 79.4218 35.7409 78.7587C35.7697 78.2686 36.2015 77.0002 36.6909 75.9336L37.612 73.9732L35.1364 76.2218C31.8547 79.22 30.9335 80.3731 28.0549 85.2739C21.9521 95.6808 19.4189 100.524 16.7417 106.924C15.9645 108.798 15.1872 110.239 15.0433 110.181C14.6403 110.037 12.2222 115.428 10.8117 119.579C9.60261 123.212 9.28596 125.374 8.85416 132.984C8.5375 138.318 7.61633 143.593 6.8103 144.717C6.20578 145.525 5.83156 146.995 5.54369 149.561C5.34218 151.088 4.96796 152.155 4.70888 151.867C4.62252 151.78 4.68009 150.944 4.82402 150.022C5.14068 148.177 4.85281 147.485 4.19072 148.292C3.87406 148.667 3.81649 149.561 3.87406 152.184C3.98921 156.018 3.47105 160.054 2.9241 159.823C2.72259 159.766 2.43473 159.823 2.26201 159.996C1.94535 160.313 1.88778 160.256 1.54234 159.074C1.48477 158.843 1.25447 159.795 1.02418 161.236C0.506021 164.609 0.506021 170.23 1.05297 172.767C1.25447 173.863 1.45598 176.284 1.45598 178.1C1.45598 180.868 1.36962 181.704 0.793888 183.174C0.218154 184.702 0.160581 185.365 0.246941 187.873C0.275727 189.488 0.218154 190.785 0.103007 190.785C-0.184859 190.785 0.189367 196.839 0.506021 197.415C0.707528 197.761 0.736314 197.704 0.765101 197.185C0.765101 195.887 1.28326 196.608 1.48477 198.194C1.80142 200.961 2.78017 205.516 3.26954 206.611L3.75891 207.649L3.93164 205.487C4.07557 203.585 4.018 203.239 3.47105 202.46C2.83774 201.567 2.80895 201.307 2.34837 194.1L2.20443 191.794L2.60745 193.841C2.95289 195.657 3.81649 197.905 4.07557 197.646C4.13314 197.617 4.01799 196.435 3.84527 195.023C3.61498 193.149 3.61498 192.284 3.87406 191.563C4.24829 190.497 4.04678 178.85 3.61498 177.38C3.44226 176.803 3.41348 177.409 3.49984 179.167C3.70134 182.252 3.26954 182.771 2.80895 180.032C2.31958 177.005 2.0605 165.041 2.4923 164.003C2.95289 162.85 3.29833 162.85 3.12561 163.975C3.01046 164.84 3.49984 165.82 3.93164 165.56C4.07557 165.474 4.24829 164.868 4.36344 164.176C4.47858 163.513 4.6513 162.85 4.73766 162.706C4.79524 162.562 5.34218 163.946 5.91792 165.733L6.95424 169.02L6.92545 175.073C6.89666 179.282 6.78152 181.329 6.55122 181.79C6.26336 182.309 6.26336 183.145 6.52244 185.682C6.72394 187.47 6.89666 190.669 6.95424 192.832C6.98302 195.051 7.15574 196.983 7.32846 197.3C7.50118 197.588 7.6739 197.675 7.6739 197.473C7.6739 196.666 8.24964 197.213 8.24964 198.049C8.24964 198.568 8.45114 200.212 8.68144 201.653C9.11324 204.248 9.08445 204.363 8.5375 204.911C8.22085 205.228 7.96177 205.718 7.96177 206.006C7.96177 206.294 7.78905 206.784 7.55876 207.102C7.15574 207.62 7.09817 207.563 6.49365 206.121C6.14821 205.285 5.83156 204.651 5.77398 204.709C5.71641 204.738 5.86034 205.574 6.09064 206.496C6.6088 208.687 6.6088 208.975 6.11942 208.774C5.42854 208.514 5.3134 209.638 5.65884 213.213C5.97549 216.096 6.11942 216.701 6.69516 217.336C7.2421 217.883 7.38604 218.373 7.38604 219.498C7.38604 221.602 7.96177 225.811 8.5375 228.117C8.82537 229.213 9.02688 230.164 8.9693 230.222C8.94052 230.279 8.1057 228.896 7.15574 227.166C5.65884 224.514 4.50737 222.871 4.50737 223.447C4.50737 223.534 5.16946 225.321 5.97549 227.425C7.0406 230.308 7.41482 231.605 7.35725 232.586C7.27089 233.998 7.9042 236.304 8.22085 235.814C8.47993 235.382 11.6177 239.043 12.7691 241.119C13.2873 242.07 13.7191 242.589 13.7191 242.301C13.7191 241.349 12.2798 237.429 11.2435 235.613C9.54504 232.557 10.1783 232.932 12.1071 236.131C13.1146 237.803 14.7554 240.312 15.763 241.724C16.7417 243.108 17.922 245.155 18.3538 246.279C19.3325 248.787 20.7718 253.861 20.5415 254.091C19.9658 254.697 18.0371 251.554 18.0371 249.969C18.0371 249.162 17.0296 249.709 16.8856 250.603C16.7417 251.41 16.6841 251.382 16.1948 249.882C15.9069 249.018 15.4463 248.037 15.1297 247.72C14.813 247.403 13.7191 245.645 12.6828 243.829C11.6753 242.012 10.495 240.11 10.092 239.648L9.37232 238.784L9.8329 239.706C10.2935 240.686 11.2147 244.693 11.0132 244.895C10.9556 244.953 10.5526 244.376 10.092 243.569C9.42989 242.301 8.82537 241.695 8.82537 242.272C8.82537 242.675 12.4237 249.018 12.654 249.018C12.7979 249.018 12.7979 248.758 12.7116 248.441C12.6252 248.124 12.6252 247.864 12.7116 247.864C12.8843 247.864 15.3887 253.025 15.8205 254.264C15.9357 254.553 15.8781 254.783 15.7342 254.783C15.5615 254.783 15.4463 254.639 15.4463 254.495C15.4463 254.12 14.3812 254.12 14.1221 254.524C13.8918 254.927 15.619 256.715 16.4538 256.917C16.8856 257.032 17.2311 257.435 17.4614 258.098C17.6341 258.646 17.9795 259.28 18.181 259.511C18.4113 259.742 19.8507 262.106 21.3764 264.758C26.1837 273.118 29.3791 277.932 31.5381 279.979C33.0062 281.392 32.8335 280.642 31.1926 278.538C29.4654 276.347 28.4003 274.502 28.4003 273.781C28.4003 273.522 27.8246 272.83 27.1049 272.253C26.3852 271.648 25.2913 270.264 24.6005 269.111C23.1323 266.574 21.6642 263.172 21.9521 262.913C22.0672 262.797 22.1824 262.855 22.24 262.999C22.7005 264.268 26.3852 269.168 28.976 271.994C31.1063 274.271 32.891 276.577 34.4455 279.057C35.7121 281.046 36.7484 282.833 36.7484 283.006C36.7484 283.179 36.5182 283.208 36.2591 283.121C35.8561 282.977 35.8848 283.121 36.4606 284.073C38.1014 286.84 40.3756 289.579 44.8087 294.134C49.904 299.409 52.2933 302.09 52.2933 302.551C52.2933 302.724 52.9266 303.849 53.7326 305.059C54.5098 306.27 55.1719 307.423 55.1719 307.625C55.1719 308.432 58.8566 311.546 62.2822 313.621C63.664 314.486 65.1897 315.812 66.9745 317.773C69.0183 319.992 70.0258 320.857 71.4076 321.52C72.3864 322.01 74.0848 323.135 75.1787 324C76.3013 324.864 78.3452 326.479 79.727 327.545C81.1375 328.641 82.3465 329.708 82.4329 329.938C82.6344 330.428 84.5919 331.466 85.3404 331.466C86.0024 331.466 88.5645 333.08 88.5645 333.484C88.5645 334.061 96.0202 338.529 96.6535 338.327C96.8262 338.27 96.1641 337.635 95.1566 336.943C94.1779 336.252 93.5158 335.617 93.6885 335.56C94.0627 335.444 99.7913 338.356 100.943 339.25L101.662 339.826H100.885C100.425 339.826 100.079 339.913 100.079 340.057C100.079 340.172 100.914 340.835 101.95 341.527C102.987 342.219 103.821 342.911 103.821 343.055C103.821 343.401 108.542 345.592 111.709 346.716C114.991 347.869 118.589 348.792 124.836 350.031C127.599 350.579 131.37 351.502 133.184 352.078C141.273 354.644 151.118 356.806 157.077 357.354C158.574 357.498 161.308 357.556 163.122 357.498C166.404 357.354 166.432 357.354 167.123 358.103C167.584 358.593 168.131 358.853 168.707 358.853C169.484 358.882 169.513 358.91 169.081 359.17C168.707 359.401 167.325 359.314 164.043 358.882C161.567 358.536 159.149 358.276 158.66 358.305L157.796 358.334L158.602 358.651C160.013 359.199 159.437 359.429 156.587 359.429C154.141 359.458 153.824 359.487 154.284 359.833C154.687 360.15 155.062 360.179 155.868 359.948C157.077 359.602 161.021 359.804 165.655 360.438C169.513 360.957 176.047 361.505 176.364 361.303C176.508 361.217 177.544 361.13 178.724 361.13C180.739 361.101 183.848 361.707 185.201 362.37C185.633 362.6 187.591 362.629 191.39 362.514C196.284 362.341 198.127 362.168 203.337 361.303C204.028 361.188 204.488 360.957 204.402 360.813C204.316 360.669 204.373 360.381 204.575 360.15C204.834 359.862 204.776 359.689 204.402 359.487C203.855 359.199 203.999 359.141 209.267 358.103C211.426 357.7 211.973 357.671 212.923 357.988C213.556 358.19 213.988 358.449 213.93 358.593C213.844 358.709 213.009 358.882 212.031 358.997C210.879 359.141 210.39 359.314 210.562 359.487C210.879 359.804 211.944 359.602 215.773 358.565C216.953 358.247 217.961 358.046 218.018 358.103C218.104 358.161 217.27 358.507 216.233 358.853C215.197 359.199 214.362 359.545 214.42 359.602C214.477 359.66 215.37 359.487 216.377 359.256C217.414 359.026 221.415 358.247 225.301 357.527C236.125 355.566 234.542 356.201 247.611 348.907C250.777 347.149 254.606 345.275 256.103 344.727C257.6 344.179 261.486 342.392 264.768 340.778C268.136 339.134 270.784 337.981 270.842 338.154C270.899 338.327 272.569 337.462 274.555 336.223C282.27 331.322 283.565 330.601 284.458 330.601C285.12 330.601 285.84 330.198 287.221 329.073C288.229 328.237 291.136 325.931 293.67 324C298.362 320.367 299.542 319.272 297.181 320.656C296.433 321.059 295.713 321.347 295.569 321.232C295.397 321.146 294.389 321.953 293.324 323.019C291.885 324.461 290.992 325.095 289.927 325.441C288.689 325.845 287.941 325.931 288.373 325.614C288.574 325.441 295.656 319.589 296.203 319.099C296.635 318.753 296.778 318.724 296.951 319.041C297.124 319.301 297.268 319.329 297.383 319.099C297.498 318.926 297.441 318.782 297.239 318.782C296.98 318.782 296.98 318.695 297.239 318.378C297.412 318.147 297.556 317.859 297.527 317.744C297.412 317.081 297.642 316.735 298.563 316.043C299.081 315.611 299.772 315.236 300.06 315.207C300.348 315.149 301.586 313.91 302.852 312.411C307.257 307.106 309.704 304.339 309.848 304.454C310.049 304.656 309.214 306.126 308.063 307.683C307.027 309.038 307.142 309.124 308.495 308L309.214 307.395L308.639 308.115C308.351 308.519 306.969 309.989 305.616 311.431C302.421 314.746 300.434 317.052 300.434 317.369C300.434 319.329 311.373 307.049 316.9 298.89C317.908 297.391 319.462 295.431 320.326 294.566C321.218 293.701 323.09 291.222 324.529 289.089C327.436 284.736 329.538 282.256 330.488 281.997C331.841 281.68 338.548 269.486 340.736 263.432C341.455 261.414 342.031 260.347 342.924 259.367C344.133 258.041 346.493 253.774 346.493 252.909C346.493 252.563 346.32 252.477 345.917 252.621C345.543 252.736 345.284 252.65 345.198 252.391C344.939 251.785 346.407 247.519 347.443 245.76C348.566 243.915 353.517 231.634 353.978 229.587C354.265 228.261 354.15 227.541 353.719 227.829C353.575 227.887 353.316 228.751 353.114 229.703C352.913 230.654 352.567 231.663 352.337 231.923C351.963 232.384 351.963 232.297 352.106 231.058C352.222 230.308 352.74 228.233 353.287 226.445C354.697 221.948 354.553 222.294 354.812 222.755C354.985 223.015 355.158 222.669 355.388 221.66C355.878 219.382 357.087 210.59 357.432 206.929C357.777 202.979 357.777 194.331 357.432 192.514C357.202 191.39 357.202 191.477 357.288 193.235C357.374 194.331 357.317 195.714 357.173 196.262L356.943 197.271L356.712 195.743C356.367 193.293 356.137 194.331 356.223 197.992C356.309 200.212 356.223 201.451 356.021 201.567C355.82 201.711 355.705 201.394 355.705 200.644C355.705 198.741 355.359 195.974 355.129 196.118C355.014 196.204 354.755 196.868 354.553 197.617L354.179 199.001L353.949 197.992C353.834 197.444 353.459 194.331 353.114 191.073C352.769 187.816 352.366 184.904 352.222 184.587C352.049 184.212 352.02 186.778 352.164 191.65C352.481 203.556 352.423 207.62 351.876 210.215C351.416 212.377 350.754 213.444 350.149 213.069C350.005 212.982 349.976 213.3 350.063 213.761C350.178 214.251 350.12 215.721 349.947 217.047C349.775 218.373 349.516 220.449 349.401 221.631C349.084 224.456 347.932 228.665 347.587 228.319C347.443 228.175 347.299 227.31 347.27 226.416C347.242 225.523 347.155 224.975 347.04 225.148C346.925 225.35 346.234 227.973 345.514 231C342.492 243.31 339.786 251.209 335.698 259.54C332.906 265.248 329.797 270.552 329.279 270.437C329.135 270.408 328.645 271.186 328.214 272.167C327.321 274.213 324.702 278.192 322.341 281.161C319.491 284.764 316.152 288.512 315.806 288.512C315.317 288.512 312.726 291.568 309.79 295.575C305.213 301.831 304.234 303.042 302.133 305.175C300.751 306.616 300.003 307.193 299.859 306.933C299.513 306.414 295.31 309.499 291.942 312.728C286.444 318.032 276.541 325.383 267.099 331.149C264.796 332.59 264.077 332.907 263.76 332.648C263.271 332.244 262.263 332.619 256.189 335.502C252.908 337.059 251.353 337.635 249.971 337.808C248.043 338.039 244.387 339.567 243.149 340.662C242.746 341.008 242.631 341.239 242.861 341.152C247.697 339.538 248.129 339.942 243.581 341.787C241.508 342.623 239.176 343.747 238.399 344.266C237.19 345.073 236.557 345.275 234.686 345.448C232.642 345.621 232.325 345.736 231.49 346.601C230.368 347.696 228.324 348.475 226.539 348.475C225.531 348.475 225.128 348.619 224.639 349.224C224.207 349.714 223.43 350.089 222.279 350.348C221.357 350.579 220.523 350.723 220.494 350.666C220.436 350.608 221.156 350.003 222.135 349.311C224.322 347.696 223.775 347.552 220.148 348.763C217.039 349.772 217.011 349.801 217.644 349.08C217.903 348.792 219.112 348.129 220.292 347.61C221.473 347.091 222.394 346.601 222.307 346.543C221.904 346.14 216.752 347.322 211.944 348.907C208.922 349.916 205.41 350.925 204.143 351.185C202.013 351.617 197.321 352.222 196.169 352.222C195.334 352.222 195.593 351.703 196.514 351.502C197.58 351.271 197.839 350.896 197.177 350.55C196.831 350.377 195.162 350.579 192.34 351.127C188.31 351.876 187.706 351.905 183.273 351.761C180.567 351.646 177.227 351.329 175.5 351.012C173.629 350.666 170.203 350.377 166.432 350.204C163.122 350.089 159.668 349.83 158.804 349.628C156.962 349.224 150.859 346.399 150.11 345.592C149.506 344.929 146.253 343.862 141.762 342.853C138.797 342.161 135.256 341.21 134.076 340.749C133.817 340.662 134.191 341.268 134.882 342.075L136.12 343.603L138.912 343.516C140.64 343.459 142.194 343.574 143.029 343.833C145.217 344.468 144.727 344.842 142.05 344.612C140.726 344.525 138.394 344.352 136.84 344.237C134.364 344.093 133.817 343.949 132.522 343.17C131.716 342.68 130.593 341.671 130.046 340.922C129.154 339.711 128.779 339.48 126.16 338.529C124.548 337.924 119.769 335.761 115.538 333.715C108.744 330.457 107.42 329.909 104.599 329.275C100.338 328.353 97.6323 326.969 93.3143 323.509C89.2841 320.281 88.8523 320.021 88.8523 320.656C88.8523 321.117 88.5645 321.088 87.2115 320.598C87.01 320.511 86.8373 320.598 86.8373 320.771C86.8373 321.376 85.4267 320.194 84.5343 318.839C84.0162 318.061 83.6707 317.167 83.6707 316.591C83.6707 315.755 83.5556 315.611 82.6056 315.293C81.7996 315.034 80.1588 313.564 76.4741 309.874C71.5228 304.915 71.4652 304.858 73.653 306.386C74.8908 307.222 75.9847 307.827 76.0998 307.741C76.4165 307.423 75.8408 306.991 71.7818 304.483C68.1835 302.234 66.9457 301.658 68.4426 302.897C68.8168 303.214 68.9607 303.474 68.7592 303.503C68.0108 303.503 64.7291 299.784 63.0595 296.988C62.1383 295.431 61.3898 293.961 61.3898 293.788C61.4186 293.586 60.4687 292.49 59.2596 291.337C49.6737 282.141 47.745 280.238 47.5434 279.72C47.4283 279.402 47.1116 278.884 46.8238 278.566C46.1041 277.759 42.5058 270.783 42.5058 270.206C42.5058 269.486 40.8649 266.401 40.0589 265.68C39.1953 264.873 35.7697 257.522 32.5744 249.594C30.1275 243.54 26.2701 232.614 26.5004 232.355C26.5868 232.297 27.3928 232.701 28.3139 233.249C29.2351 233.825 31.7683 235.238 33.9561 236.42C37.8711 238.553 37.9575 238.611 38.6772 240.139C39.1377 241.061 39.4256 242.243 39.4544 243.108C39.512 244.924 41.2104 248.47 43.6285 251.872C44.6072 253.227 45.5572 254.899 45.7875 255.763C46.3344 257.58 48.0616 260.578 49.9903 262.999C50.7676 264.008 51.4296 264.902 51.4296 264.988C51.4296 265.623 50.6812 264.844 49.1555 262.596C48.2055 261.183 47.2268 259.972 46.9965 259.886C46.7662 259.799 46.3632 259.28 46.0753 258.762C45.1829 257.003 41.2967 250.43 41.1816 250.517C41.124 250.574 41.3543 251.439 41.6422 252.419C42.5058 255.158 42.8224 257.58 42.4482 258.387C42.1891 258.963 42.3043 259.28 43.4845 260.808C44.8375 262.567 45.989 263.23 46.6223 262.596C47.6586 261.558 49.4434 263.461 52.063 268.39C53.7902 271.619 53.9341 271.821 55.1719 272.282C57.0431 272.974 58.1945 274.098 57.0431 274.098C56.8128 274.098 56.6113 274.213 56.6113 274.329C56.6113 274.703 58.1369 276.721 59.0581 277.557C60.152 278.566 62.6565 282.026 62.6565 282.516C62.6565 282.747 62.858 283.179 63.0883 283.496C63.6352 284.217 63.6352 284.505 63.0883 284.303C62.8292 284.188 62.6565 284.303 62.6565 284.592C62.6565 285.139 65.6215 288.109 66.3987 288.368C67.0608 288.57 68.2123 288.022 67.982 287.618C67.6366 287.1 68.2699 287.388 69.0471 288.137C69.4789 288.57 69.8531 288.772 69.8531 288.627C69.8531 288.454 69.3925 287.907 68.8456 287.359C68.2986 286.811 67.8381 286.235 67.8381 286.062C67.8381 285.543 64.614 281.132 61.908 277.99C58.0218 273.464 52.0054 264.7 51.8615 263.345C51.8039 262.999 51.1706 261.673 50.3933 260.405C48.7525 257.637 45.989 251.872 42.9376 244.924C41.0664 240.6 40.6059 239.793 39.915 239.504C39.3392 239.274 38.9074 238.697 38.3317 237.285C37.8711 236.276 37.0939 234.978 36.5757 234.402C35.6833 233.479 35.5682 233.422 34.3304 233.595L33.0062 233.796L32.1714 231.894C30.9623 229.242 30.6457 227.973 31.135 227.973C31.6244 227.973 30.9047 226.128 29.7533 224.427C29.3503 223.851 28.9473 222.871 28.8321 222.265C28.6306 221.112 27.8534 219.469 27.8246 220.189C27.8246 220.42 27.9397 221.054 28.0837 221.573C28.2276 222.063 28.2564 222.496 28.1124 222.496C27.9973 222.496 27.7382 221.89 27.5655 221.112C27.364 220.362 26.7019 218.95 26.0686 217.999C25.4353 217.018 24.802 215.779 24.658 215.26C24.1399 213.53 23.7657 209.725 24.0823 209.408C24.5141 208.975 25.205 209.783 25.5504 211.137C26.011 212.982 26.5004 212.752 26.2413 210.82C26.011 208.802 26.4716 208.745 26.9034 210.734C27.0761 211.57 27.4503 213.357 27.7094 214.683C28.2564 217.249 28.573 217.768 31.3078 219.901C32.3729 220.737 32.488 220.795 32.085 220.189C30.7608 218.316 30.1275 217.047 29.9548 215.923C29.8684 215.26 29.8684 214.712 30.0124 214.712C30.3866 214.712 30.0124 207.246 29.5806 206.15C29.2351 205.257 29.2063 205.228 28.5155 205.689C28.0549 205.977 27.767 206.525 27.6519 207.275C27.3064 209.264 26.8746 207.995 26.8458 204.997C26.8458 203.152 26.961 201.941 27.2201 201.48C27.5367 200.875 27.5367 200.759 27.1337 200.529C26.6155 200.24 26.5004 198.222 26.9322 197.069C27.1049 196.608 27.0761 196.147 26.817 195.714C26.3565 194.85 26.2125 195.109 25.8095 197.531C25.5216 199.03 25.5216 199.981 25.8095 201.768C26.1549 203.93 26.1262 204.103 25.6368 204.478C24.8595 205.055 24.3414 204.449 23.9384 202.403C23.5354 200.529 23.6217 200.096 24.3126 200.644C24.6868 200.961 24.7156 200.903 24.5717 200.154C24.1399 198.107 24.0247 190.497 24.3414 187.181C24.5429 185.279 24.802 183.607 24.9171 183.491C25.0323 183.376 25.2338 184.644 25.3201 186.345C25.4065 188.046 25.6368 189.574 25.8095 189.747C26.1837 190.122 26.1837 187.181 25.7807 184.875C25.6368 183.924 25.4353 182.684 25.3489 182.136L25.205 181.127L25.6944 181.963C26.0974 182.713 26.2125 182.742 26.4428 182.309C26.5868 182.05 26.7019 181.416 26.6731 180.897C26.6443 180.378 26.6155 178.562 26.5868 176.832C26.5868 174.497 26.5004 173.863 26.2989 174.382C26.011 175.045 26.011 175.016 25.7807 173.92C25.4641 172.277 25.4641 167.693 25.8095 164.234C26.0974 161.351 27.0761 155.211 27.4503 154.029L27.6231 153.452L27.8534 154.029C27.9973 154.346 28.0261 156.105 27.9109 157.921C27.7958 160.717 27.8246 161.178 28.1412 160.861C28.4579 160.573 28.5442 159.362 28.573 155.816C28.6018 150.8 29.2063 147.427 29.9836 147.744C30.2427 147.831 30.7032 147.254 31.2502 146.101C32.085 144.458 32.1426 144.054 32.1714 141.229C32.2001 137.136 32.4304 135.838 33.8698 132.148C34.7046 129.957 35.0788 128.487 35.1364 127.248C35.194 126.21 35.5106 124.797 35.9424 123.759C37.0363 121.107 40.9801 114.016 41.124 114.448C41.2104 114.65 41.5558 114.275 41.8725 113.612C42.3618 112.689 45.1542 106.145 46.4496 102.917C46.5359 102.715 46.7662 102.6 46.9677 102.686C47.2268 102.773 47.4571 102.369 47.6874 101.475C47.8601 100.755 48.4646 99.169 49.0116 97.9871C50.163 95.5079 50.1055 94.989 48.954 96.9781C48.4934 97.7564 47.1116 99.7456 45.845 101.418C44.3769 103.378 42.9088 105.771 41.7573 108.192C40.7498 110.239 39.915 111.796 39.915 111.652C39.915 110.96 40.8937 107.299 42.1316 103.349C43.283 99.7168 43.6572 98.8807 44.7224 97.6411C45.7011 96.488 45.9602 95.9691 45.9602 95.1043C45.9602 93.4034 46.7662 91.0972 47.4859 90.7224C47.8313 90.5206 48.2919 90.1747 48.4934 89.9152C50.0767 87.9261 51.4009 85.5622 52.5523 82.7082C53.8765 79.3641 56.3234 75.4723 57.1006 75.4723C57.7339 75.4723 56.784 77.4903 53.3296 83.4001C51.7751 86.1099 51.2569 87.1765 51.5736 87.2342C51.8902 87.3207 51.6599 87.9261 50.6524 89.7711C49.904 91.1837 49.4434 92.3368 49.5873 92.4809C50.0191 92.8845 50.7388 92.135 51.1418 90.8954C51.6599 89.3098 52.5523 88.0702 53.0705 88.272C53.3584 88.3873 53.7038 87.9549 54.222 86.7729C54.9416 85.2451 57.6188 81.5262 58.3672 81.065C58.5687 80.9496 58.8278 81.0938 58.9718 81.3532C59.3748 82.0451 59.6626 81.9298 61.1883 80.5172C61.9368 79.7965 62.6565 79.22 62.7428 79.22C62.858 79.22 62.5989 79.6812 62.2247 80.2578C61.8216 80.8344 61.505 81.5262 61.505 81.7857C61.4762 82.0451 60.5838 83.3424 59.4899 84.6973C57.4461 87.1477 57.0431 87.9837 57.9642 87.8108C59.0293 87.6089 66.0821 76.3372 67.2623 73.0219C67.5214 72.2436 67.435 72.3012 66.3699 73.512C65.1609 74.9246 64.6715 75.2129 64.6715 74.4922C64.6715 74.2615 64.3261 74.0309 63.9231 73.9732L63.1746 73.8868L64.2685 72.7913C64.8442 72.2147 65.5063 71.7247 65.7366 71.7247C65.9381 71.7247 66.1109 71.5229 66.1109 71.2634C66.1109 71.0328 66.5139 70.2544 66.9745 69.5626C67.4638 68.8707 67.8381 68.2076 67.8381 68.0635C67.8381 67.9482 68.5865 67.5157 69.4789 67.141C70.3713 66.7374 72.9909 65.2095 75.2938 63.7104C77.5967 62.2114 80.1875 60.6547 81.0224 60.2222C82.5193 59.5015 82.5768 59.5015 82.9511 60.0204C83.4404 60.6835 83.1526 60.8853 91.0113 54.6872C97.3732 49.7 102.123 46.1829 105.146 44.2803C107.938 42.493 108.082 42.4353 107.362 43.2425C106.988 43.6172 106.7 44.0208 106.7 44.1073C106.7 44.4821 111.795 42.2911 113.235 41.2822C114.069 40.7056 115.221 39.6389 115.797 38.9182C117.409 36.8715 118.848 35.4012 119.107 35.5453C119.222 35.6318 120.978 35.1706 122.993 34.5364C125.037 33.9022 127.023 33.3832 127.398 33.3832C127.801 33.3832 129.96 32.2878 132.234 30.9329C136.494 28.3383 138.25 27.5311 141.733 26.4645L143.806 25.8303L145.159 26.6375C146.282 27.3005 146.829 27.4446 148.412 27.4158C149.995 27.4158 150.629 27.2429 152.327 26.378C153.968 25.542 155.292 25.1672 159.38 24.4177C162.143 23.8988 165.54 23.4664 166.922 23.4087C169.887 23.3511 171.24 23.0628 171.096 22.6304C171.038 22.4286 170.635 22.2556 170.232 22.1979C169.8 22.1403 169.455 21.9961 169.455 21.852C169.455 21.6214 172.622 21.1313 173.629 21.2466C173.946 21.2754 176.134 20.9007 178.523 20.4106C180.883 19.9205 184.309 19.344 186.094 19.1133C189.98 18.5944 196.687 18.5368 196.975 18.998C197.061 19.171 197.724 19.5746 198.443 19.8917C199.134 20.18 199.623 20.5547 199.537 20.7277C199.278 21.1313 196.86 21.0448 196.601 20.6124C195.91 19.4305 191.506 18.9404 187.619 19.5746C185.892 19.8629 185.662 19.9782 185.806 20.4683C185.892 20.8142 185.633 21.3331 185.115 21.9097L184.28 22.7745L185.576 22.5439C186.295 22.3997 189.922 22.3421 193.636 22.4286C199.681 22.5439 208.259 22.5439 212.635 22.4286C216.147 22.3421 231.605 25.9456 237.19 28.1653C238.37 28.6554 239.579 29.0014 239.867 29.0014C240.587 28.9437 246.085 31.913 245.884 32.2301C245.797 32.3743 246.143 32.7202 246.661 32.9796C248.043 33.6715 250.115 35.1418 249.971 35.2859C249.741 35.5453 246.056 34.5652 244.847 33.931C244.185 33.6139 243.581 33.4121 243.494 33.4986C243.293 33.7292 243.35 33.758 245.02 34.6229C246.603 35.4589 246.2 35.6318 244.3 34.9688C243.609 34.7382 243.005 34.5652 242.947 34.6517C242.89 34.7094 244.559 35.3724 246.661 36.1219C251.094 37.7075 251.727 37.9958 252.994 39.1201C253.627 39.6389 254.664 40.1002 256.103 40.4173C260.651 41.5128 265.43 43.8767 268.049 46.3271C268.683 46.9325 269.69 47.7108 270.295 48.0568C270.87 48.4315 271.36 48.864 271.389 49.0369C271.389 49.2387 272.655 50.19 274.181 51.199C276.311 52.5828 276.714 52.7846 275.822 51.9774C274.843 51.0837 274.757 50.9684 275.39 51.1414C276.599 51.4585 278.297 52.4386 279.075 53.217C279.708 53.8224 280.197 53.9665 282.04 54.1395C283.681 54.2836 284.602 54.5431 285.58 55.1197C287.25 56.0998 292.547 60.597 292.979 61.4042C293.267 61.9231 293.209 61.9519 292.604 61.779C292.259 61.6636 290.561 60.9141 288.833 60.1069C287.135 59.3286 285.667 58.7232 285.58 58.8385C285.494 58.925 285.926 59.2709 286.559 59.588C288.574 60.6258 294.677 65.9302 294.677 66.6797C294.677 66.8239 295.253 67.3428 295.972 67.7752C296.692 68.2365 297.757 69.1878 298.391 69.8797C298.995 70.5715 299.715 71.1481 299.945 71.1481C300.204 71.1481 301.298 71.494 302.421 71.8976C304.263 72.5895 304.666 72.9066 306.94 75.357C308.293 76.856 309.329 78.0668 309.214 78.0668C309.099 78.0668 309.675 78.7875 310.481 79.6812C312.438 81.8145 312.352 82.3334 310.366 80.3731C309.502 79.5082 308.783 78.9317 308.783 79.1046C308.783 79.7101 310.107 81.3821 311.057 81.9586C311.575 82.2758 312.841 83.2847 313.907 84.1784C315.979 85.9946 316.411 86.1964 316.123 85.1874C315.95 84.582 315.95 84.582 316.526 85.2739C316.843 85.6775 317.649 86.9747 318.282 88.1855C318.915 89.3963 319.606 90.5494 319.865 90.7512C320.556 91.3278 320.384 91.6449 319.578 91.2701C319.175 91.0972 318.8 91.0107 318.714 91.0972C318.628 91.1837 319.203 92.3368 320.038 93.6629C322.514 97.6988 322.341 97.497 322.629 97.0646C322.744 96.834 322.802 96.3439 322.686 95.9403C322.514 95.1619 322.658 95.2484 323.752 96.661C324.356 97.4682 324.385 97.497 324.183 96.8051C323.896 95.7673 327.062 100.582 328.386 103.205C328.991 104.445 329.509 105.655 329.509 105.886C329.509 106.145 329.883 106.895 330.344 107.558C330.776 108.221 332.301 110.7 333.683 113.093C335.065 115.457 336.677 118.138 337.253 119.003C338.145 120.387 338.289 120.502 338.375 119.925C338.433 119.551 338.289 119.032 338.059 118.772C337.828 118.513 337.281 117.59 336.85 116.725C336.274 115.543 336.187 115.226 336.533 115.342C336.907 115.486 336.993 115.342 336.993 114.621C336.993 113.756 337.022 113.727 337.54 114.217C338.404 115.025 340.045 118.57 341.283 122.347C342.377 125.777 343.816 129.006 344.075 128.718C344.161 128.631 343.614 126.585 342.866 124.163C341.081 118.253 339.21 113.525 338.836 113.9C338.749 113.987 338.893 114.477 339.152 114.967C339.412 115.486 339.498 115.832 339.354 115.716C338.893 115.428 334.691 109.835 334.691 109.518C334.691 109.345 334.057 107.904 333.251 106.318C332.474 104.733 331.812 103.378 331.812 103.291C331.812 102.686 332.589 103.868 333.827 106.318C334.604 107.875 335.381 109.23 335.554 109.345C335.986 109.605 335.497 108.423 333.654 104.733C332.186 101.821 331.15 100.12 331.697 101.533C332.215 102.859 331.063 101.36 327.379 95.7961C325.22 92.5386 322.658 88.9062 321.737 87.7243C320.787 86.5423 320.009 85.418 320.009 85.2451C320.009 85.0721 319.549 84.1784 319.002 83.2559C318.455 82.3334 317.994 81.4397 317.994 81.2091C317.994 80.6902 319.549 82.2469 320.182 83.4289C320.47 83.9766 320.844 84.409 320.959 84.409C321.362 84.409 320.988 83.7172 319.29 81.2379C317.62 78.9029 314.972 76.3372 314.166 76.3372C313.734 76.3372 308.207 70.7157 308.207 70.2544C308.207 70.1103 307.775 69.822 307.286 69.5914C306.221 69.1013 300.204 63.5086 300.463 63.2492C300.751 62.9321 305.674 66.8239 307.977 69.1878C309.186 70.4274 310.395 71.4364 310.625 71.4364C311.373 71.4364 315.922 75.4723 320.441 80.1425C325.364 85.1874 326.515 86.6288 328.789 90.463C329.71 91.962 331.006 94.0088 331.697 95.0178C332.388 96.0268 332.963 96.9204 332.963 97.0357C332.963 97.3817 338.951 106.318 339.181 106.318C339.268 106.318 339.181 106.059 339.009 105.713C338.807 105.396 338.721 105.05 338.807 104.992C338.951 104.819 341.657 108.971 342.348 110.47C342.751 111.306 342.981 111.45 343.499 111.335C344.046 111.19 344.276 111.392 345.025 112.718C345.514 113.554 346.263 115.284 346.666 116.552C347.472 118.916 348.451 121.165 348.652 120.963C348.854 120.761 348.019 116.552 347.673 115.861C347.472 115.486 346.81 114.419 346.205 113.497C344.708 111.19 343.384 107.356 343.067 104.502C342.924 103.205 342.837 102.081 342.895 102.023C342.952 101.965 343.413 102.225 343.902 102.571C344.392 102.917 344.852 103.147 344.939 103.061C345.226 102.773 344.161 101.072 342.664 99.4573C340.246 96.8051 339.009 95.1907 339.009 94.7007C339.009 94.4412 338.634 93.807 338.174 93.2881C337.253 92.2215 334.863 87.2918 335.266 87.2918C335.41 87.2918 335.871 87.7819 336.303 88.3585C336.763 88.9639 337.224 89.5693 337.339 89.7422C337.886 90.3765 336.187 86.8882 333.971 82.8235C330.718 76.856 329.509 74.4345 329.509 73.7715C329.509 72.9643 323.953 66.0743 323.118 65.8437C322.744 65.7572 322.168 65.6707 321.823 65.6707C321.477 65.6707 320.614 65.2095 319.894 64.6618C319.146 64.114 318.484 63.6528 318.397 63.6528C318.196 63.6528 320.873 67.141 321.449 67.6311C322.571 68.5824 322.946 68.5247 322.024 67.5446C321.305 66.7662 321.19 66.5068 321.593 66.6797C321.909 66.795 322.543 66.968 323.003 67.0545C324.385 67.2851 327.235 71.3499 329.682 76.5678C330.373 78.0668 330.919 79.3641 330.862 79.3929C330.804 79.4506 330.056 78.7875 329.221 77.9227C328.357 77.0579 327.494 76.3372 327.321 76.3372C327.12 76.3372 326.659 75.9047 326.314 75.3858C325.939 74.8958 324.702 73.4543 323.55 72.2436C322.399 71.004 321.449 69.8797 321.449 69.7067C321.449 69.5337 320.384 68.2941 319.088 66.9392C317.764 65.5843 316.641 64.3447 316.584 64.1429C316.44 63.6528 314.482 61.6348 314.166 61.6348C314.022 61.6348 313.964 61.8366 314.079 62.0672C314.281 62.6438 314.079 62.615 312.899 61.8943C311.805 61.2024 309.934 58.8961 309.934 58.2043C309.934 57.9448 310.193 57.57 310.539 57.3683C311.057 57.0223 311.229 57.0511 311.776 57.5412C312.985 58.6655 314.828 59.6745 315.26 59.5015C315.893 59.2709 316.526 59.6457 318.743 61.5195C320.124 62.7014 320.643 62.9897 320.758 62.6726C320.988 62.0961 320.268 60.8276 318.311 58.4061C316.037 55.6097 314.569 54.1971 314.626 54.889C314.655 55.2061 314.425 55.4656 313.964 55.5809C313.388 55.725 313.244 55.9268 313.273 56.6476L313.331 57.5412L311.546 56.3016C310.596 55.6385 308.437 54.399 306.767 53.5341C304.234 52.2368 303.313 51.545 301.01 49.2675C299.053 47.3361 297.786 46.3559 296.548 45.7794C294.936 45.0298 291.021 41.8587 291.338 41.5416C291.568 41.311 294.36 42.8101 297.21 44.6839C298.678 45.664 299.945 46.3847 300.031 46.2982C300.089 46.2118 299.427 45.4622 298.506 44.6262C297.325 43.5596 295.713 42.5506 292.806 41.138C288.373 38.9759 285.84 37.3904 284.89 36.1796C283.911 34.94 284.746 35.1994 287.855 37.1309C290.704 38.8894 292.777 40.0137 293.123 40.0137C293.238 40.0137 292.46 39.2065 291.395 38.2552C289.179 36.2084 289.064 35.6895 291.194 37.3904C292 38.0246 293.67 39.1489 294.907 39.8696C297.239 41.2822 299.628 43.1848 299.024 43.1848C298.65 43.1848 299.456 44.6262 300.06 45.001C300.981 45.5775 304.321 48.4027 307.458 51.199C309.329 52.8999 310.97 54.3125 311.114 54.3701C312.496 54.889 306.854 48.8063 303.255 45.8947C302.046 44.9145 299.974 43.156 298.65 42.0317C295.339 39.1489 293.439 37.7075 291.079 36.3237C288.718 34.94 287.02 33.5562 287.912 33.758C288.229 33.8445 288.718 33.9886 289.006 34.1039C289.985 34.5075 289.467 33.7868 288.085 32.8643C286.905 32.0572 286.588 31.9418 286.127 32.2301C285.667 32.5184 285.35 32.4608 284.285 31.9418C281.982 30.7599 278.441 28.3383 275.966 26.1762C272.742 23.3799 270.986 22.3133 268.078 21.2754C266.754 20.7854 262.494 19.1133 258.636 17.499C250.662 14.1837 243.379 11.3297 242.199 11.0414C241.738 10.9261 241.422 10.6378 241.422 10.3496C241.422 9.39825 240.788 9.16763 238.313 9.16763C236.989 9.16763 234.714 9.02347 233.217 8.85052C229.619 8.41809 229.015 8.6199 231.433 9.42706C232.527 9.80185 233.333 10.1478 233.275 10.2343C233.016 10.4649 226.078 9.39825 224.322 8.85052C222.941 8.44693 222.566 8.41809 222.25 8.70636C221.847 9.13879 220.81 9.08115 215.514 8.41809C213.7 8.18747 211.8 8.0145 211.282 8.0145C210.764 8.0145 210.332 7.87036 210.332 7.72623C210.332 7.55325 209.9 7.23615 209.411 7.00552C208.519 6.63074 208.662 6.60193 211.771 6.60193C213.585 6.60193 216.665 6.7749 218.594 6.94785C220.551 7.14966 222.019 7.20731 221.904 7.12082C221.3 6.51544 216.205 5.93887 209.468 5.67941C205.438 5.53528 201.523 5.30466 200.775 5.16052C199.998 5.0452 199.393 4.98755 199.393 5.0452C199.393 5.10284 199.969 5.41995 200.689 5.73709C201.552 6.11185 202.934 6.37131 204.661 6.4866C206.475 6.60193 207.626 6.83255 208.317 7.20731L209.325 7.75504L208.317 7.58206C206.014 7.14966 203.135 6.8902 200.775 6.86136C199.393 6.86136 197.695 6.68842 197.033 6.45779C196.342 6.22714 194.413 5.96771 192.715 5.85239C189.606 5.6506 189.116 5.44879 189.951 4.61279C190.728 3.83441 189.721 3.63263 185.95 3.74792C182.841 3.83441 182.064 3.94974 180.912 4.52631C179.847 5.0452 179.271 5.13168 178.379 4.98755C177.199 4.78574 177.083 4.67044 177.458 4.09387C177.717 3.66144 182.524 2.62363 185.259 2.3642C186.813 2.22003 187.418 2.27771 187.936 2.59482C188.742 3.11371 193.06 3.48849 194.499 3.17139C195.19 3.02722 195.622 2.71011 195.881 2.16238C196.14 1.64349 196.572 1.29755 197.119 1.18222C197.58 1.09573 197.925 0.951599 197.839 0.893951C197.781 0.836304 196.514 0.576843 195.046 0.375031C191.707 -0.14386 185.748 -0.115021 182.15 0.40387ZM184.424 12.0216C183.301 12.3964 182.841 12.6558 182.87 13.0018C182.898 13.2612 182.898 13.4919 182.87 13.4919C182.87 13.4919 181.747 13.6936 180.394 13.9243C177.774 14.3855 169.743 14.5008 170.75 14.0684C171.067 13.9243 171.758 13.809 172.276 13.809C173.514 13.7801 173.197 13.2036 171.931 13.2036C170.808 13.2036 164.216 14.4432 161.999 15.0774C161.107 15.3369 160.128 15.7981 159.811 16.0864C159.495 16.3458 158.66 16.6629 157.94 16.7494C156.443 16.9512 153.047 16.6629 153.047 16.3747C153.047 16.2593 153.45 15.9999 153.968 15.7693C156.818 14.5873 150.312 15.9999 144.698 17.7584C143.202 18.2485 141.014 18.9115 139.891 19.2575C138.74 19.5746 137.79 20.007 137.79 20.1512C137.79 20.3241 137.962 20.4106 138.164 20.3241C138.394 20.2376 140.035 20.0935 141.849 20.007C145.044 19.8052 145.101 19.834 144.439 20.3241C144.065 20.6124 143.288 21.2754 142.712 21.8232C142.136 22.3421 141.215 23.0051 140.668 23.2934C139.661 23.8123 137.588 24.3312 137.128 24.2159C137.012 24.1871 135.89 24.4177 134.623 24.7348C133.385 25.0519 132.147 25.3114 131.86 25.3114C131.399 25.3114 131.399 25.2825 131.86 24.7636C132.349 24.2159 132.32 24.2159 131.37 24.3024C130.391 24.3889 125.498 26.2915 124.98 26.7816C124.519 27.214 125.267 27.0699 127.426 26.2915C128.578 25.8879 129.557 25.5996 129.614 25.6861C129.873 25.9168 127.311 27.2429 122.965 29.1455C120.604 30.1833 117.178 31.6824 115.394 32.4896C112.371 33.8445 109.348 34.9111 106.527 35.6607C104.656 36.1508 103.418 37.1309 103.303 38.1975C103.188 39.4372 102.037 40.3885 98.3807 42.2911C96.1641 43.4731 95.243 44.1361 94.7536 44.8857C94.4082 45.4622 93.8324 46.1829 93.487 46.4712C93.1703 46.7883 92.8825 47.2496 92.8825 47.509C92.8825 47.7973 92.1628 48.4604 91.2416 49.0946C89.3705 50.3054 88.2766 51.2278 88.2766 51.6026C88.2766 52.1215 88.9387 51.7468 91.8749 49.527C94.5809 47.4802 96.049 46.7595 96.049 47.4225C96.049 47.5667 95.5596 48.0568 94.9839 48.5757C94.3794 49.0946 94.0627 49.4982 94.2642 49.527C94.4657 49.527 95.6748 48.518 96.999 47.2496C99.4458 44.9145 100.914 43.9344 101.749 44.1073C102.094 44.1938 101.835 44.4532 100.972 44.8857C100.252 45.2604 98.9565 46.2982 98.0353 47.1919C96.1066 49.0946 94.0627 50.8531 91.2992 52.9864C90.2053 53.8512 88.8235 54.9467 88.2478 55.4656C87.1539 56.4169 86.06 56.907 85.7434 56.6187C85.657 56.5034 86.463 55.4944 87.5857 54.3701C89.7735 52.1215 89.572 52.035 87.0963 54.1971C86.204 54.9467 85.3979 55.5809 85.2828 55.5809C84.9949 55.5809 85.0813 54.1395 85.3979 53.5341C85.7722 52.8999 82.0587 55.1485 80.7345 56.3881C80.2739 56.7917 79.9285 56.9647 79.9285 56.7917C79.9285 56.1286 79.2664 56.4457 76.8771 58.1754C73.9696 60.3087 72.9909 60.6547 74.7757 58.9826C76.4165 57.4259 79.9285 54.9755 82.5193 53.5918C83.5844 53.0152 85.8585 51.6026 87.5857 50.4495C90.0902 48.7486 90.8386 48.0856 91.5007 46.9325C91.9613 46.1253 92.2492 45.4911 92.1916 45.4911C92.1052 45.4911 90.781 46.4712 89.2553 47.682C87.4706 49.0657 86.3191 49.7864 86.0312 49.6711C85.7434 49.5558 85.0813 49.9883 84.1889 50.8819C83.4404 51.6314 82.8071 52.1215 82.8071 52.0062C82.8071 51.5738 85.4555 47.9991 86.9524 46.4136C87.7297 45.6064 88.219 44.9145 88.0463 44.9145C87.8736 44.9145 86.5206 45.7217 85.0525 46.7018C83.1238 47.9703 80.6769 50.1612 76.3301 54.4278C73.0197 57.6854 69.8243 60.6835 69.2774 61.0871C68.7304 61.4619 66.5139 63.5086 64.3837 65.6131C60.3823 69.5914 57.2733 72.2724 54.6825 73.9156C52.9266 75.0687 49.904 76.4525 50.0479 76.0489C50.1055 75.9047 50.9691 74.6075 51.9766 73.1661C53.5599 70.9175 53.9341 70.5427 54.481 70.6868C55.1719 70.8598 56.9279 68.986 62.7716 61.779C66.629 57.0223 69.7668 53.5918 73.0772 50.536C76.3301 47.509 77.3952 46.9325 74.8908 49.527C73.9408 50.5071 73.4227 51.199 73.7393 51.0261C74.459 50.6513 75.668 49.354 77.7407 46.7307C78.6331 45.5775 79.986 44.2226 80.7345 43.7325C81.5405 43.156 81.886 43.0118 81.5981 43.3866C81.3102 43.7037 81.0799 44.0208 81.0799 44.0785C81.0799 44.4244 84.851 42.3488 86.2615 41.1957C90.5507 37.7651 96.5672 34.3058 105.405 30.2122C108.571 28.7419 111.335 27.3005 111.565 26.9834C112.141 26.205 115.192 24.1582 115.797 24.1582C116.2 24.1582 116.228 24.2159 115.883 24.6195C115.538 25.0519 115.566 25.0807 116.2 24.8501C117.294 24.4754 119.712 24.533 119.856 24.9654C119.942 25.1961 118.762 25.9168 116.603 26.8969C114.76 27.7906 113.292 28.5689 113.379 28.6554C113.666 28.9149 118.042 27.56 120.172 26.551C121.554 25.9168 122.36 25.3402 122.533 24.9078C122.878 24.0141 130.795 18.9692 133.328 18.0467C135.947 17.0954 140.064 15.9711 140.265 16.1729C140.352 16.2593 141.474 15.8846 142.741 15.3369C144.382 14.645 145.159 14.4432 145.418 14.645C146.167 15.2792 149.103 15.2792 151.751 14.6738C153.191 14.3567 156.357 13.636 158.804 13.0594C161.74 12.3964 164.302 11.9928 166.26 11.9063C167.901 11.8198 169.34 11.7045 169.397 11.618C169.484 11.5315 173.255 11.4739 177.774 11.5027C186.007 11.5315 186.007 11.5315 184.424 12.0216ZM204.863 14.9333C208.893 15.1062 215.111 15.4521 218.68 15.6828C224.754 16.1152 225.531 16.2305 231.519 17.7007C238.082 19.2863 239.723 19.7764 238.716 19.8052C237.651 19.8629 238.802 20.6124 240.932 21.2466C242.055 21.5926 244.185 22.2844 245.596 22.7457C247.035 23.2069 248.762 23.6682 249.424 23.7258C250.921 23.87 252.533 24.36 253.455 24.9366C253.973 25.2537 254.059 25.4267 253.8 25.7438C253.57 26.0321 253.714 26.2339 254.433 26.6951C255.47 27.3293 261.285 30.3563 261.918 30.5869C262.119 30.6446 262.234 30.7887 262.148 30.8752C262.062 30.9617 261.198 30.8752 260.277 30.6446C257.916 30.0968 257.657 30.0968 258.435 30.7887L259.126 31.3653L258.406 31.2211C258.003 31.1346 256.218 30.7599 254.404 30.3563C250.605 29.5203 250.518 29.5203 251.583 30.0968C252.015 30.3275 253.57 30.7887 255.038 31.077C258.118 31.7401 260.709 32.7202 260.709 33.2391C260.709 33.4121 260.392 33.7292 259.989 33.9022C258.435 34.6229 251.382 32.4319 252.677 31.6247C253.224 31.3076 252.792 30.9617 251.209 30.5293C250.49 30.3275 249.194 29.7221 248.331 29.1743C247.294 28.5401 245.999 28.0789 244.531 27.7906C243.293 27.56 241.997 27.214 241.652 27.0122C240.817 26.5798 239.695 25.5708 239.695 25.2537C239.695 25.1096 239.982 25.0231 240.357 25.0807C240.846 25.1384 240.961 25.0519 240.904 24.6195C240.817 24.1294 240.932 24.1006 241.911 24.2447L243.005 24.4177L242.17 23.9565C241.71 23.7258 240.184 23.4087 238.802 23.2934C236.125 23.0916 235.549 22.8322 235.261 21.7367C235.117 21.1601 234.484 20.843 230.713 19.6034C228.295 18.7962 225.215 17.8737 223.891 17.5278C221.07 16.8071 217.817 16.3747 217.817 16.7206C217.817 16.8359 217.989 16.9512 218.191 16.9512C218.392 16.98 218.335 17.1242 218.018 17.3548C217.558 17.7007 217.615 17.7584 218.594 17.9602C219.889 18.1908 221.703 18.9115 221.501 19.1133C221.444 19.1998 219.054 18.9404 216.233 18.5368C210.332 17.7007 209.584 17.6719 211.771 18.3638L213.355 18.8539L210.044 19.0557C205.438 19.344 203.193 19.3151 200.142 18.9404C197.004 18.5656 195.046 18.1043 195.219 17.8161C195.305 17.6719 196.313 17.499 197.493 17.3836C199.105 17.2395 199.796 17.2683 200.429 17.6143C201.12 17.989 201.523 17.989 202.502 17.7296C203.164 17.5566 203.711 17.326 203.711 17.2107C203.711 17.0954 202.185 16.7206 200.343 16.3747C193.521 15.1062 191.189 14.2702 195.248 14.5008C196.486 14.5873 200.832 14.7891 204.863 14.9333ZM42.3906 96.3727C41.4982 98.3618 40.5195 100.956 40.2028 102.081C39.512 104.589 38.5044 106.664 36.8636 109.115C36.1727 110.095 35.6546 110.931 35.7409 110.931C35.9712 110.931 34.9637 113.958 33.5531 117.417C32.8047 119.32 31.9699 121.77 31.7108 122.837C31.1063 125.403 29.8972 127.968 28.2564 130.073C27.3928 131.197 26.7595 132.437 26.3565 133.763C25.6944 135.925 25.7807 136.559 26.5292 135.233L26.9898 134.426L26.817 135.867C26.558 137.914 23.2763 150.771 22.9308 151.117C22.4703 151.579 22.5854 150.714 23.2187 148.811C23.9672 146.649 23.8232 145.842 22.9884 147.456C22.643 148.148 22.2687 148.696 22.1824 148.696C21.9233 148.696 22.3551 145.553 22.7293 144.746C23.1036 143.881 22.7293 143.478 22.1824 144.199C21.8082 144.746 21.7794 144.717 21.7218 143.766C21.6067 141.431 22.3839 138.721 24.0823 135.464C24.658 134.368 24.7444 134.426 24.658 136.011C24.6293 136.559 24.6868 136.934 24.7732 136.847C24.9747 136.646 26.6731 130.995 26.558 130.909C26.5004 130.851 26.2413 131.284 25.9247 131.831C25.3777 132.869 25.0898 133.013 24.4565 132.61C24.1687 132.437 24.5141 131.139 25.7807 127.334C27.5079 122.116 28.1988 120.559 29.6093 118.484C30.4154 117.331 31.279 116.87 31.279 117.619C31.3078 117.994 33.3516 113.324 33.7546 112.026C33.9273 111.392 33.9273 111.392 33.3804 111.853C33.0638 112.142 32.632 112.372 32.3729 112.372C31.7108 112.372 31.1063 113.237 30.5593 114.88C30.0987 116.322 29.5518 116.898 29.5518 116.005C29.5518 115.255 30.1275 114.016 31.9123 110.873C33.4955 108.077 33.7546 107.789 34.3304 107.933C35.05 108.135 35.4818 107.472 35.6546 105.857C35.7985 104.646 35.1652 104.733 34.2728 106.001C33.8122 106.636 33.3516 107.183 33.2653 107.183C32.8622 107.183 35.3667 100.668 36.5469 98.5636C37.8423 96.2862 38.3893 95.8826 39.1665 96.661C39.5983 97.1222 39.6847 97.0934 40.2028 96.4592C41.0377 95.479 40.8937 96.1133 39.8862 97.9006C39.3968 98.7654 39.0802 99.515 39.1377 99.5726C39.3968 99.8321 40.6922 97.9871 41.93 95.6232C43.2542 93.0286 43.6572 92.3944 43.8588 92.5962C43.9451 92.6539 43.2542 94.3547 42.3906 96.3727ZM20.484 151.29C20.7143 151.636 20.3976 153.914 20.0522 154.49C19.5916 155.182 19.4764 154.606 19.6492 152.789C19.8507 151.088 20.081 150.656 20.484 151.29ZM16.3099 162.245C16.7993 166.137 17.3174 169.827 17.4614 170.461C17.778 171.787 17.778 178.302 17.4614 180.839C17.3174 182.05 17.2311 180.81 17.2023 176.659C17.1447 169.048 16.7705 168.241 15.3599 172.767C14.9569 174.036 14.2948 176.63 13.8918 178.533C13.46 180.436 13.057 182.108 12.9994 182.281C12.4813 183.405 13.6903 167.232 14.4388 162.822C14.6691 161.495 14.7554 160.342 14.6115 160.227C14.4963 160.141 14.4963 159.074 14.6115 157.863C14.813 155.845 15.0721 154.836 15.3024 155.096C15.3599 155.153 15.8205 158.382 16.3099 162.245ZM18.5841 193.005C18.7568 193.466 19.1022 194.705 19.3325 195.83C19.5916 196.925 20.1673 198.972 20.6279 200.327C21.5203 202.921 22.1824 208.082 21.5779 207.707C21.4051 207.592 21.2036 206.929 21.1461 206.237C21.0597 205.487 20.5991 204.305 20.0234 203.412C19.1886 202.057 19.0734 201.653 19.1022 200.067C19.131 198.77 19.0446 198.28 18.8143 198.367C18.6128 198.424 18.4401 198.886 18.3825 199.376C18.2674 200.558 17.8644 200.558 17.6341 199.404C17.4038 198.194 17.4038 192.659 17.6629 192.428C18.0083 192.053 18.2674 192.226 18.5841 193.005ZM7.06938 211.397V211.973L6.8103 211.397C6.66637 211.08 6.55122 210.619 6.55122 210.388C6.52244 210.013 6.55122 210.013 6.8103 210.388C6.95424 210.619 7.06938 211.08 7.06938 211.397ZM23.046 229.876C23.3051 229.991 23.5066 230.395 23.5066 230.856C23.5066 232.124 23.0172 232.124 22.7005 230.856C22.5566 230.222 22.4703 229.703 22.499 229.703C22.5566 229.703 22.7869 229.789 23.046 229.876ZM27.4791 241.292C28.4579 243.396 29.9548 246.798 30.8472 248.873C31.7396 250.92 33.294 254.236 34.3304 256.196C35.3379 258.156 36.1727 259.915 36.1727 260.145C36.1727 261.097 35.597 260.347 33.8698 257.205C32.8335 255.36 31.9699 253.976 31.9411 254.12C31.5956 255.158 37.8711 265.969 38.8499 266.055C39.0514 266.084 39.368 266.113 39.5695 266.142C39.771 266.142 40.318 266.833 40.7786 267.669C41.4982 268.909 41.5558 269.168 41.1816 269.313C40.9225 269.399 40.5195 269.37 40.2604 269.226C39.512 268.823 36.6621 265.738 35.9136 264.498C34.8773 262.826 34.8773 263.432 35.8848 265.45C36.3742 266.43 36.6333 267.151 36.4606 267.035C36.0288 266.776 35.05 264.729 32.5168 258.992C30.0124 253.255 29.2063 251.324 29.4078 251.324C29.4942 251.324 29.8109 251.843 30.1275 252.506C30.4729 253.169 30.8184 253.63 30.876 253.544C30.9623 253.457 29.9836 250.891 28.717 247.807C26.7883 243.137 25.2338 238.611 25.2338 237.717C25.2338 236.852 25.9534 238.005 27.4791 241.292ZM65.9381 285.889C66.3987 286.35 66.6002 286.782 66.4563 286.898C66.1396 287.1 64.3837 285.745 64.3837 285.312C64.3837 284.793 65.1609 285.082 65.9381 285.889Z" fill="black"/>
<path d="M134.479 21.7081C133.299 22.227 134.393 22.2558 135.775 21.7081C136.667 21.3622 136.696 21.3045 136.063 21.3045C135.66 21.3045 134.969 21.4775 134.479 21.7081Z" fill="black"/>
<path d="M115.854 28.9149C114.271 29.7509 113.897 30.2122 114.818 30.2122C115.192 30.2122 115.998 29.7509 116.632 29.2032C117.985 28.0501 117.725 27.9347 115.854 28.9149Z" fill="black"/>
<path d="M106.412 33.1236C104.915 33.729 103.418 34.2479 103.102 34.2479C102.584 34.2479 95.1855 37.8803 95.1855 38.1397C95.1855 38.1974 95.4446 38.1686 95.7612 38.0821C96.8263 37.7938 96.337 38.4569 94.3795 39.9559C92.3932 41.455 91.7887 41.6856 91.2705 41.1667C91.069 40.9649 90.3781 41.3108 89.1979 42.2045C88.2191 42.9252 87.4131 43.5883 87.4131 43.6459C87.4131 43.8477 88.507 43.2135 88.7085 42.8964C89.0251 42.3775 89.4569 42.6081 89.2842 43.1847C89.0251 43.963 89.1979 43.9342 90.7811 42.7811C92.7674 41.3685 93.8037 40.9072 94.6098 41.0514C95.0991 41.1667 95.9339 40.8208 97.2581 40.0424C98.3232 39.3794 99.2444 38.8604 99.3308 38.8604C99.4171 38.8604 100.108 38.428 100.856 37.9091C101.634 37.3614 103.678 36.0641 105.434 35.0263C110.874 31.7687 111.162 31.1633 106.412 33.1236Z" fill="black"/>
<path d="M66.2547 60.9721C65.1032 61.5775 64.0957 62.5 64.0957 62.99C64.0957 63.6531 64.4987 63.4225 65.9668 61.9234C67.5213 60.3378 67.5213 60.2802 66.2547 60.9721Z" fill="black"/>
<path d="M57.6475 70.0527C57.2445 70.5716 56.9854 71.0329 57.0718 71.1194C57.1869 71.2635 57.849 70.514 58.3672 69.6203C58.8278 68.8131 58.4247 69.0437 57.6475 70.0527Z" fill="black"/>
<path d="M205.15 18.1045C205.15 18.2487 205.697 18.3928 206.388 18.364C207.425 18.3351 207.482 18.3063 206.878 18.1045C205.841 17.7586 205.15 17.7586 205.15 18.1045Z" fill="black"/>
<path d="M251.065 27.5024C251.67 28.1366 254.289 29.2321 254.577 28.9438C254.692 28.8573 250.835 26.7529 250.547 26.7529C250.432 26.7529 250.691 27.0988 251.065 27.5024Z" fill="black"/>
<path d="M37.0941 104.358C36.288 105.655 35.482 107.76 35.7123 107.962C35.7987 108.048 36.3456 107.126 36.9213 105.915C37.9864 103.551 38.1016 102.744 37.0941 104.358Z" fill="black"/>
<path d="M205.438 1.84529C205.035 2.04709 203.855 2.30654 202.819 2.42185C201.754 2.50834 200.717 2.71013 200.516 2.85427C199.681 3.37318 200.66 3.45966 203.279 3.11373C204.776 2.91193 206.475 2.82545 207.022 2.91193C208.144 3.0849 208.116 2.85427 206.935 2.01826C206.273 1.55701 206.072 1.52818 205.438 1.84529Z" fill="black"/>
<path d="M148.441 3.40211C136.379 5.4489 127.714 7.35156 127.714 7.98578C127.714 8.10109 128.002 8.36055 128.377 8.50469C128.981 8.79297 128.923 8.85062 127.427 9.57133C125.469 10.4938 124.98 10.5227 125.411 9.77312C126.16 8.36055 123.569 8.90828 121.439 10.6091C120.662 11.2434 119.913 11.7623 119.798 11.7623C119.51 11.7623 115.624 14.328 115.624 14.5298C115.624 14.7027 116.516 14.2415 117.812 13.3478C118.848 12.6559 121.842 11.8487 122.187 12.1947C122.303 12.31 121.928 12.7712 121.381 13.2325C120.834 13.6649 120.489 14.0685 120.604 14.0685C121.036 14.0685 122.504 13.2037 122.734 12.8001C122.849 12.5983 124.145 12.0505 125.555 11.6181C126.995 11.2145 129.586 10.0902 131.313 9.16773C135.89 6.775 140.726 5.33359 143.259 5.62187C144.267 5.73719 145.361 5.50656 148.153 4.58406C151.953 3.34445 154.86 2.82554 155.177 3.34445C155.263 3.51742 154.803 3.71922 153.997 3.83453C151.435 4.2093 145.562 6.31375 145.562 6.83265C145.562 6.94797 146.742 6.74617 148.211 6.3714C149.679 5.99664 152.615 5.47773 154.774 5.21828C156.904 4.95883 158.718 4.69937 158.775 4.64172C158.862 4.58406 158.631 4.35344 158.286 4.09398C157.48 3.51742 157.48 3.22914 158.401 2.39312C158.862 1.9607 159.006 1.67242 158.775 1.70125C158.545 1.70125 153.91 2.47961 148.441 3.40211Z" fill="black"/>
<path d="M164.561 2.24907C164.245 2.45087 164.417 2.53735 165.223 2.53735C165.799 2.53735 166.288 2.39321 166.288 2.24907C166.288 1.87431 165.137 1.87431 164.561 2.24907Z" fill="black"/>
<path d="M136.638 8.0147C136.408 8.15884 136.351 8.30298 136.494 8.30298C136.667 8.30298 136.984 8.15884 137.214 8.0147C137.444 7.87056 137.531 7.72642 137.358 7.72642C137.214 7.72642 136.869 7.87056 136.638 8.0147Z" fill="black"/>
<path d="M179.962 21.3043C179.646 21.4196 178.868 21.5349 178.264 21.5349C177.4 21.5637 177.199 21.6502 177.429 21.8808C177.803 22.2556 180.97 21.9673 180.97 21.5637C180.97 21.1601 180.567 21.0448 179.962 21.3043Z" fill="black"/>
<path d="M237.046 30.1258C237.248 30.2122 237.507 30.1834 237.593 30.0969C237.708 30.0104 237.536 29.924 237.219 29.9528C236.902 29.9528 236.816 30.0393 237.046 30.1258Z" fill="black"/>
<path d="M136.465 31.1348L135.918 31.7979L136.581 31.2501C137.185 30.7312 137.358 30.5006 137.128 30.5006C137.07 30.5006 136.782 30.7889 136.465 31.1348Z" fill="black"/>
<path d="M236.499 32.5186C237.219 32.8357 237.996 33.0664 238.226 33.0087C238.773 32.8646 237.392 32.2592 236.096 32.0574C235.377 31.9421 235.434 32.0286 236.499 32.5186Z" fill="black"/>
<path d="M69.3637 40.0424C67.8092 41.3973 67.3198 42.1469 68.5864 41.2532C69.5364 40.5613 71.206 38.8604 70.9181 38.8604C70.8318 38.8604 70.1409 39.4082 69.3637 40.0424Z" fill="black"/>
<path d="M298.419 40.7346C298.419 40.8787 300.895 42.6084 301.125 42.6084C301.615 42.6084 301.154 42.0895 300.032 41.3688C298.822 40.6193 298.419 40.4463 298.419 40.7346Z" fill="black"/>
<path d="M65.391 43.2137C63.779 44.8569 64.4123 44.684 66.3986 42.9254C67.1758 42.2336 67.5213 41.7435 67.2622 41.7435C67.0031 41.7435 66.1683 42.4065 65.391 43.2137Z" fill="black"/>
<path d="M49.8177 57.3969C47.7451 59.6455 45.6725 61.9518 45.2119 62.4995C44.4922 63.422 44.4634 63.4508 45.0967 62.9319C45.4997 62.6148 46.4785 61.75 47.3133 61.0004C48.1193 60.2221 49.0693 59.6167 49.3572 59.6167C50.0768 59.6167 51.6889 57.6564 52.8403 55.3213C53.3585 54.3412 53.7327 53.4763 53.6752 53.4187C53.6176 53.361 51.8904 55.1483 49.8177 57.3969Z" fill="black"/>
<path d="M70.7742 67.862C69.5075 68.9574 69.2773 69.4187 70.0257 69.4187C70.3424 69.4187 70.4287 69.5917 70.256 70.0529C70.0545 70.6871 70.0833 70.6871 70.7454 70.1971C71.7241 69.4764 73.1922 68.8421 73.8543 68.8421C74.4301 68.8421 74.8907 68.0926 74.4876 67.8332C74.3437 67.7755 73.6528 67.9196 72.9044 68.1791C71.3787 68.7557 71.0332 68.5827 71.6953 67.5449C72.3286 66.5935 72.1847 66.6224 70.7742 67.862Z" fill="black"/>
<path d="M38.7346 69.7934C37.1514 71.7825 37.2953 72.0996 38.8786 70.1393C39.4831 69.4186 39.8573 68.842 39.7134 68.842C39.5982 68.842 39.1377 69.2745 38.7346 69.7934Z" fill="black"/>
<path d="M30.8759 86.7156C30.4729 87.3498 30.1274 87.8975 30.1274 87.984C30.1274 88.0417 30.588 87.8687 31.135 87.6092C31.9122 87.2633 32.1137 86.975 32.1425 86.3408C32.1425 85.2453 31.7683 85.3606 30.8759 86.7156Z" fill="black"/>
<path d="M54.2223 89.944C51.7466 94.0664 51.1421 95.3061 51.1421 96.1421C51.1421 96.9493 51.9193 95.9979 54.0495 92.5962C55.2874 90.5782 56.0358 89.1368 55.9207 88.8485C55.8343 88.6179 56.007 87.8972 56.3525 87.2342C56.6691 86.6 56.8706 86.0234 56.8131 85.9657C56.7555 85.8792 55.5752 87.6954 54.2223 89.944Z" fill="black"/>
<path d="M340.62 109.605C340.908 110.326 340.966 110.787 340.764 110.902C340.592 111.018 340.88 111.565 341.455 112.228C341.973 112.863 342.492 113.295 342.607 113.18C342.837 112.949 341.513 110.239 340.649 109.144C340.189 108.509 340.16 108.509 340.62 109.605Z" fill="black"/>
<path d="M348.537 110.787C348.594 110.931 349.055 111.854 349.544 112.805C351.214 116.034 354.496 125.057 354.006 125.057C353.69 125.057 352.538 123.76 352.538 123.414C352.538 122.289 349.516 113.583 349.199 113.871C349.17 113.929 349.688 115.861 350.379 118.138C351.761 122.693 352.193 124.769 351.732 124.769C351.588 124.769 351.156 124.019 350.782 123.096C350.408 122.203 350.063 121.655 350.005 121.886C349.919 122.433 353.171 128.459 353.344 127.997C353.402 127.795 353.258 127.046 352.999 126.296C352.452 124.711 352.423 124.365 352.855 124.653C353.315 124.941 354.668 127.997 355.388 130.39C355.849 131.947 356.137 132.494 356.712 132.754C357.115 132.927 357.432 132.985 357.432 132.84C357.432 132.725 357.058 131.687 356.568 130.534C356.108 129.381 355.705 128.314 355.705 128.141C355.705 127.478 356.597 128.689 357.115 130.131C357.432 130.967 357.95 131.918 358.267 132.235C358.555 132.523 358.871 132.956 358.929 133.158C359.015 133.388 359.188 133.475 359.303 133.359C360.109 132.61 354.208 118.859 350.869 113.612C349.573 111.594 348.163 109.893 348.537 110.787Z" fill="black"/>
<path d="M344.19 114.218C344.19 114.535 346.58 118.744 346.695 118.628C346.868 118.426 344.68 114.102 344.421 114.102C344.306 114.102 344.19 114.16 344.19 114.218Z" fill="black"/>
<path d="M344.939 118.138C345.112 119.147 345.486 119.81 345.745 119.551C345.831 119.493 345.63 118.917 345.313 118.282L344.766 117.129L344.939 118.138Z" fill="black"/>
<path d="M338.605 126.008C338.692 126.296 338.865 126.44 338.951 126.354C339.037 126.267 338.951 126.037 338.749 125.835C338.461 125.576 338.433 125.604 338.605 126.008Z" fill="black"/>
<path d="M342.377 127.911C342.952 128.891 343.471 129.612 343.557 129.554C343.758 129.352 342.06 126.412 341.686 126.267C341.484 126.21 341.801 126.959 342.377 127.911Z" fill="black"/>
<path d="M339.872 126.959C339.872 127.507 340.563 128.948 343.931 135.435C344.651 136.79 345.37 138.26 345.572 138.75C345.888 139.557 345.888 139.5 345.802 138.029C345.716 137.165 345.514 135.752 345.342 134.916C345.082 133.734 344.881 133.417 344.449 133.417C344.046 133.417 343.528 132.667 342.434 130.448C341.657 128.833 340.736 127.248 340.419 126.931C339.872 126.383 339.872 126.383 339.872 126.959Z" fill="black"/>
<path d="M351.387 129.295C351.387 129.842 353.718 136.357 354.352 137.655C355.1 139.154 356.482 145.294 356.77 148.552C356.971 150.743 357.864 152.703 358.382 152.184C358.555 152.011 358.958 151.867 359.245 151.867C359.821 151.867 359.821 152.04 359.245 148.84C358.958 147.399 359.533 148.292 360.742 151.262C361.376 152.818 362.038 154.087 362.182 154.116C362.757 154.202 362.47 149.186 361.635 145.035C360.886 141.229 360.771 140.97 360.282 141.287C359.908 141.518 359.735 142.037 359.677 143.19L359.591 144.775L358.497 143.103C357.605 141.777 357.288 140.855 356.712 138.058C356.079 134.974 355.014 132.293 354.237 131.831C353.834 131.572 353.92 132.639 354.409 133.792C354.927 135.031 354.985 135.694 354.553 135.262C354.381 135.089 353.747 133.676 353.171 132.12C352.567 130.563 351.934 129.237 351.732 129.15C351.559 129.093 351.387 129.15 351.387 129.295Z" fill="black"/>
<path d="M2.98194 150.916C2.92437 151.06 2.78044 151.636 2.66529 152.213C2.49257 153.107 2.55014 153.308 2.92437 153.308C3.24102 153.308 3.35617 152.991 3.35617 152.011C3.35617 150.771 3.24102 150.454 2.98194 150.916Z" fill="black"/>
<path d="M358.756 158.267C358.785 161.611 359.332 164.378 360.167 165.387C361.203 166.627 361.433 170.029 360.483 170.029C360.224 170.029 360.224 170.75 360.541 173.056C360.8 174.814 361.088 175.996 361.261 175.881C361.404 175.794 361.462 175.16 361.347 174.468C361.261 173.719 361.289 173.2 361.462 173.2C361.807 173.2 361.75 172.623 362.009 177.755C362.182 180.666 362.383 182.281 362.614 182.511C362.901 182.8 362.93 182.367 362.757 180.407C362.642 179.052 362.527 174.468 362.47 170.231C362.354 161.64 362.124 160.256 360.627 159.132C360.109 158.757 359.62 157.979 359.303 157.056C359.044 156.278 358.814 155.615 358.785 155.615C358.756 155.615 358.727 156.826 358.756 158.267Z" fill="black"/>
<path d="M26.5865 165.041C26.5001 165.157 26.3562 166.483 26.2411 167.953C26.0683 169.856 26.1259 170.605 26.3562 170.605C26.5577 170.605 26.6729 169.942 26.7016 168.789L26.7304 167.002L27.1334 168.155L27.5365 169.308L27.3925 167.319C27.2774 165.445 26.9319 164.494 26.5865 165.041Z" fill="black"/>
<path d="M350.408 199.808C350.264 201.682 350.235 203.267 350.293 203.354C350.581 203.642 351.041 198.684 350.84 197.559C350.667 196.637 350.581 197.069 350.408 199.808Z" fill="black"/>
<path d="M0.880123 201.307C1.1392 202.835 1.65736 204.42 1.83008 204.219C2.03159 204.017 1.31192 200.788 0.966483 200.442C0.793763 200.269 0.764976 200.557 0.880123 201.307Z" fill="black"/>
<path d="M19.1885 263.893C19.1885 264.066 19.6491 265.767 20.196 267.641C21.2323 271.129 23.9959 277.183 24.8595 277.904C25.1473 278.105 25.0034 277.702 24.5428 276.895C23.6216 275.338 23.6792 274.79 24.6292 276.001C25.5791 277.212 25.32 276.462 23.9095 273.81C23.161 272.455 21.8081 269.601 20.8869 267.468C19.9657 265.335 19.1885 263.72 19.1885 263.893Z" fill="black"/>
<path d="M42.7939 264.815C42.7939 265.017 42.9955 265.651 43.2257 266.228C43.7151 267.41 43.7727 267.871 43.3697 267.612C42.7652 267.237 43.1106 268.044 44.3196 269.774C44.9817 270.754 45.6726 271.763 45.8165 272.022C45.9893 272.282 46.5362 273.147 47.0256 273.925C48.7816 276.606 48.6089 278.105 46.7665 276.635C45.212 275.424 45.615 276.087 48.2346 279.114C50.48 281.68 51.4875 282.372 49.5012 279.95C47.1983 277.154 47.2271 277.154 53.1571 281.709C56.554 284.303 57.6767 284.937 56.4388 283.583C56.151 283.237 55.1434 282.372 54.2223 281.68C53.3011 280.959 52.6102 280.238 52.6678 280.066C52.7253 279.893 52.0345 278.739 51.1421 277.529C50.2209 276.289 48.0907 272.974 46.3923 270.149C43.053 264.671 42.7939 264.268 42.7939 264.815Z" fill="black"/>
<path d="M28.4003 278.567C28.4003 278.653 28.6018 279.201 28.8321 279.777C29.4654 281.305 29.3503 281.593 28.573 280.354C27.6519 278.855 27.5655 278.826 27.6807 279.979C27.8534 281.939 30.329 287.647 31.8259 289.637L32.5744 290.646L32.7183 289.55L32.8623 288.455L35.8849 292.116C37.9575 294.595 39.1953 296.411 39.8286 297.824C40.9225 300.245 41.0377 300.908 40.2892 300.303C39.2529 299.438 40.4619 301.081 42.3619 303.157C43.5709 304.454 45.5284 306.04 47.7738 307.568C49.7025 308.865 52.0054 310.537 52.869 311.258C54.1644 312.382 54.3371 312.44 53.819 311.719C53.4735 311.229 52.8114 310.45 52.2933 309.989C51.1706 308.923 50.6524 308.058 51.257 308.288C51.5736 308.404 51.6312 308.288 51.5448 307.769C51.4009 307.193 51.516 307.251 52.2069 308.115C52.6387 308.663 53.819 310.047 54.8265 311.171C56.5249 313.16 57.1294 314.083 56.1795 313.304C55.9492 313.103 55.7477 313.016 55.7477 313.103C55.7477 313.362 60.1808 317.571 62.8004 319.762C65.2761 321.866 66.3412 322.529 65.5064 321.463C65.0458 320.886 64.9018 320.771 68.4426 323.337C70.6304 324.922 75.2075 327.344 75.4665 327.084C75.6681 326.911 73.8545 325.758 70.141 323.683C66.1397 321.463 63.1746 319.099 60.7566 316.274C59.3172 314.602 59.2596 314.227 60.4687 314.775C61.3899 315.207 61.6489 315.005 61.2459 314.227C60.9293 313.65 55.3447 308.98 54.9704 308.98C54.8553 308.98 55.1432 309.355 55.6037 309.845C56.0643 310.306 56.3234 310.796 56.2083 310.912C56.1219 311.027 54.5098 309.528 52.6387 307.596C50.7964 305.665 49.0692 304.079 48.8101 304.079C48.2919 304.079 42.7649 296.238 40.1453 291.741C39.1953 290.127 38.3029 288.801 38.159 288.801C37.7848 288.801 37.8424 289.002 38.4181 289.896L38.9075 290.674L38.0151 290.04C36.5757 289.031 35.1076 287.215 34.1577 285.341C33.0926 283.208 32.229 282.891 33.0062 284.909C33.5531 286.35 32.7759 285.312 30.7033 281.882C28.7746 278.682 28.4003 278.163 28.4003 278.567Z" fill="black"/>
<path d="M57.7055 285.946C57.8495 286.898 57.9358 286.955 58.4828 286.379C58.7994 286.062 58.8282 285.918 58.5403 285.716C57.7055 285.053 57.5904 285.082 57.7055 285.946Z" fill="black"/>
<path d="M64.4127 290.011C65.2187 290.703 65.996 292.606 65.6793 293.096C65.593 293.269 65.996 293.644 66.6005 293.961C67.205 294.249 68.155 294.999 68.7019 295.546C69.6519 296.555 69.6807 296.584 68.9898 296.527C66.8884 296.296 69.0186 299.525 72.876 302.408C79.2379 307.164 86.1754 310.768 98.6401 315.813C102.469 317.369 104.253 318.234 104.973 318.926C106.24 320.137 109.838 322.385 114.329 324.749C118.273 326.825 117.985 327.113 113.465 325.585C111.882 325.038 110.529 324.663 110.471 324.72C110.414 324.778 111.968 325.585 113.926 326.537L117.495 328.238L118.388 327.69C118.877 327.373 119.51 327.142 119.769 327.142C120.46 327.142 124.26 329.102 124.26 329.477C124.26 329.65 124.087 329.737 123.886 329.65C123.656 329.564 122.735 329.419 121.785 329.304L120.086 329.131L120.806 329.708C121.727 330.457 123.944 331.149 125.959 331.322L127.571 331.466L126.39 330.919C124.922 330.255 124.721 329.938 125.181 329.189C125.642 328.439 125.21 327.949 123.138 326.969C122.245 326.537 121.669 326.133 121.842 326.075C122.763 325.758 130.68 328.382 132.522 329.621C132.925 329.852 133.155 330.255 133.069 330.457C132.867 331.005 135.314 331.899 139.373 332.792C141.129 333.167 143.72 333.744 145.131 334.061C146.57 334.378 148.643 335.099 149.765 335.646C151.32 336.425 152.183 336.655 153.507 336.684C155.666 336.742 158.574 336.136 158.43 335.704C158.372 335.502 157.422 335.07 156.329 334.724C154.976 334.32 154.601 334.09 155.148 334.09C155.58 334.061 155.926 333.917 155.926 333.773C155.926 333.427 153.997 333.398 153.853 333.744C153.824 333.888 152.414 333.542 150.744 333.023C147.232 331.899 147.549 331.956 147.635 332.389C147.779 333.109 142.166 332.504 139.805 331.553C139.488 331.437 139.575 331.322 140.093 331.178C140.697 331.005 140.525 330.919 139.085 330.63C136.178 330.054 132.58 328.872 132.436 328.439C132.349 328.209 131.543 327.892 130.651 327.719C129.73 327.546 127.657 326.998 125.987 326.508C124.318 326.018 122.735 325.556 122.475 325.499C121.756 325.297 121.842 324.836 122.619 324.807C122.965 324.807 122.13 324.432 120.777 323.971C119.395 323.51 117.006 322.501 115.451 321.722C112.602 320.281 107.506 317.081 107.161 316.504C107.046 316.36 106.787 316.274 106.556 316.36C105.722 316.677 102.094 313.939 102.094 313.016C102.094 312.728 101.835 312.411 101.519 312.296C100.741 312.036 98.0068 309.989 93.6024 306.386C90.3207 303.676 86.8951 301.197 86.4057 301.197C86.3194 301.197 84.2755 300.274 81.8574 299.15C77.0501 296.901 72.2715 294.336 67.4065 291.424C63.8658 289.291 63.3188 289.031 64.4127 290.011Z" fill="black"/>
<path d="M312.41 313.766C310.884 315.438 309.876 316.187 310.395 315.236C310.884 314.4 309.617 315.928 308.322 317.773C306.652 320.165 306.998 319.935 311.46 315.755C313.158 314.169 314.54 312.728 314.54 312.526C314.54 311.748 314.022 312.036 312.41 313.766Z" fill="black"/>
<path d="M89.284 313.852L88.4204 314.025L89.5719 314.89C90.2052 315.38 91.3279 316.36 92.0763 317.11C92.8248 317.83 94.2641 318.839 95.2428 319.301C96.2504 319.791 98.0927 320.656 99.3593 321.261C100.626 321.837 101.49 322.385 101.288 322.472C101.087 322.529 100.54 322.414 100.05 322.241C97.9776 321.376 99.2442 322.356 103.159 324.605C110.327 328.785 113.551 330.198 114.242 329.506C114.616 329.131 116.833 330.169 118.502 331.466C119.049 331.898 120.374 332.446 121.41 332.706C122.475 332.965 125.066 333.859 127.167 334.666C138.509 338.99 140.409 339.567 141.532 338.961C141.877 338.788 142.108 338.587 142.05 338.529C142.021 338.471 140.208 338.01 138.077 337.52C132.752 336.223 132.838 336.251 133.241 335.358C133.759 334.234 133.27 334.003 129.988 333.916C126.102 333.83 123.627 332.994 115.71 329.16C110.845 326.796 109.607 326.075 108.744 325.066C108.168 324.403 107.621 323.654 107.506 323.365C107.304 322.818 101.49 319.877 99.5033 319.329C98.2942 318.983 92.9687 315.87 91.0112 314.371C90.3779 313.852 89.9173 313.737 89.284 313.852Z" fill="black"/>
<path d="M59.202 318.984C61.6776 321.203 64.729 324.288 65.938 325.816C66.6289 326.709 68.5864 327.92 68.8743 327.632C68.9031 327.603 68.1258 326.882 67.0895 326.046C66.082 325.21 65.2472 324.403 65.2472 324.259C65.2472 324.115 65.535 323.971 65.8805 323.913C66.4274 323.855 66.0244 323.394 63.52 321.146C61.8791 319.675 60.3822 318.522 60.2095 318.58C60.0656 318.638 59.3747 318.32 58.7126 317.888C56.7263 316.504 56.9278 316.937 59.202 318.984Z" fill="black"/>
<path d="M304.868 319.416C303.371 320.512 300.435 323.51 300.435 323.913C300.435 324.115 300.636 324.692 300.895 325.153C301.413 326.162 301.701 326.046 303.083 324.144C304.119 322.731 304.148 322.126 303.169 322.299C302.766 322.385 302.45 322.357 302.45 322.212C302.45 321.924 303.86 320.915 304.609 320.684C305.213 320.512 306.422 318.782 305.962 318.782C305.818 318.782 305.328 319.07 304.868 319.416Z" fill="black"/>
<path d="M96.6824 323.164C97.1141 323.539 98.2656 324.259 99.2731 324.778C100.885 325.643 101 325.672 100.223 325.009C99.7625 324.605 98.5823 323.856 97.6323 323.366C96.1642 322.616 96.0203 322.587 96.6824 323.164Z" fill="black"/>
<path d="M69.911 328.641C69.9974 328.843 70.7746 329.592 71.6958 330.284C72.5882 330.947 74.5744 332.677 76.1001 334.09C77.8273 335.704 78.95 336.569 79.0652 336.367C79.353 335.906 80.9075 336.742 85.8012 339.97C88.0466 341.441 91.5298 343.516 93.6024 344.612C96.366 346.053 97.172 346.601 96.7978 346.745C96.3947 346.889 96.9993 347.264 99.0431 348.129C100.598 348.792 102.095 349.34 102.382 349.34C102.67 349.34 104.973 350.349 107.506 351.588C110.04 352.857 113.206 354.298 114.53 354.817C115.826 355.336 117.438 355.999 118.071 356.258C120.316 357.239 131.687 360.9 136.84 362.312C149.046 365.627 163.756 367.991 175.357 368.51C177.429 368.597 180.538 368.741 182.265 368.827C185.72 368.972 186.036 368.568 182.697 368.222C181.632 368.107 180.596 367.905 180.365 367.761C180.135 367.617 180.106 367.501 180.25 367.501C181.056 367.472 179.531 366.925 178.638 366.925C176.882 366.925 174.925 366.579 174.925 366.262C174.925 366.089 176.335 366.031 178.955 366.146C181.287 366.233 182.985 366.175 182.985 366.031C182.985 365.887 182.87 365.772 182.726 365.772C182.582 365.772 182.064 365.426 181.575 365.022C180.25 363.898 177.257 363.782 172.305 364.619C169.427 365.109 167.728 365.224 165.627 365.137C164.101 365.051 162.748 364.907 162.633 364.791C162.518 364.705 162.69 364.446 162.978 364.215C163.496 363.84 163.468 363.782 162.403 363.494C161.769 363.321 160.244 363.033 159.006 362.86C157.768 362.716 155.695 362.255 154.4 361.822C152.615 361.274 151.694 361.13 150.571 361.246C149.276 361.39 149.046 361.332 148.93 360.842C148.815 360.438 148.527 360.294 147.808 360.294C146.656 360.294 137.934 358.536 134.911 357.7C133.731 357.383 131.054 356.662 129.01 356.114C126.937 355.566 123.195 354.327 120.662 353.347C116.229 351.646 114.473 350.867 115.768 351.185C116.085 351.242 116.92 351.415 117.639 351.502C119.942 351.848 118.56 351.156 115.077 350.204C111.191 349.167 110.558 348.878 110.99 348.359C111.249 348.071 110.5 347.725 107.622 346.745C105.606 346.053 102.152 344.814 99.9643 343.949C97.7765 343.113 95.8766 342.478 95.7902 342.594C95.7039 342.68 96.1357 343.199 96.769 343.747C97.4023 344.266 97.8053 344.727 97.6614 344.727C96.8265 344.727 90.0329 340.288 90.3783 339.942C90.4359 339.855 91.0404 340.028 91.7025 340.288C92.3646 340.547 92.9979 340.691 93.0843 340.576C93.4009 340.259 93.0267 340.115 89.8602 339.25C87.6436 338.673 86.5497 338.212 86.0027 337.693C84.3619 336.05 86.2043 336.482 92.1343 339.134C98.381 341.96 96.6826 340.576 89.745 337.203C87.4709 336.107 84.7073 334.608 83.6422 333.917C82.5483 333.196 81.656 332.706 81.656 332.792C81.656 332.879 82.2605 333.571 82.9801 334.349C84.0453 335.473 84.218 335.79 83.7862 335.79C83.0377 335.79 81.7711 334.983 77.7698 331.927C73.826 328.9 73.2502 328.497 73.8548 329.246C74.5744 330.169 73.8836 330.14 71.9836 329.218C69.911 328.18 69.7671 328.151 69.911 328.641Z" fill="black"/>
<path d="M127.427 329.967C127.427 330.313 130.075 330.89 131.543 330.89C133.184 330.89 132.551 330.457 130.277 330.082C128.002 329.679 127.427 329.65 127.427 329.967Z" fill="black"/>
<path d="M294.735 330.63C293.526 331.524 293.238 332.071 294.303 331.524C294.821 331.235 296.318 329.736 296.088 329.736C296.001 329.736 295.397 330.14 294.735 330.63Z" fill="black"/>
<path d="M127.656 332.533C127.858 332.619 128.117 332.59 128.203 332.504C128.319 332.417 128.146 332.331 127.829 332.36C127.513 332.36 127.426 332.446 127.656 332.533Z" fill="black"/>
<path d="M129.096 332.821C129.297 332.907 129.557 332.878 129.643 332.792C129.758 332.706 129.585 332.619 129.269 332.648C128.952 332.648 128.866 332.734 129.096 332.821Z" fill="black"/>
<path d="M164.273 336.684C163.957 336.914 163.928 337.03 164.216 337.145C164.82 337.376 164.273 337.808 163.323 337.808C162.172 337.837 162.777 338.212 164.36 338.5C165.482 338.702 165.742 339.077 164.964 339.365C164.389 339.595 160.848 339.595 159.696 339.365C158.602 339.134 158.804 338.673 159.984 338.673C160.531 338.673 160.79 338.558 160.675 338.356C160.387 337.923 157.365 338.154 157.077 338.644C156.933 338.932 155.868 339.134 153.507 339.336C151.665 339.509 150.168 339.711 150.168 339.826C150.168 339.913 151.377 340.23 152.845 340.518C160.301 341.959 163.583 342.449 167.584 342.594C171.816 342.767 171.931 342.767 172.909 342.075C173.888 341.383 173.917 341.325 173.859 339.538C173.831 338.558 173.715 337.635 173.572 337.491C173.312 337.232 167.123 336.367 165.626 336.367C165.108 336.367 164.504 336.511 164.273 336.684Z" fill="black"/>
<path d="M276.11 342.104C275.937 342.248 274.872 342.882 273.721 343.516C271.59 344.641 271.389 345.015 272.857 345.015C273.836 345.015 275.131 344.496 276.801 343.459C277.952 342.709 278.01 342.651 277.492 342.277C276.887 341.787 276.484 341.758 276.11 342.104Z" fill="black"/>
<path d="M269.201 345.015C268.222 346.053 268.308 346.053 270.093 345.275C271.158 344.842 271.389 344.641 271.072 344.439C270.381 344.006 270.093 344.093 269.201 345.015Z" fill="black"/>
<path d="M266.495 346.774C265.804 347.091 265.286 347.408 265.372 347.495C265.66 347.754 266.984 347.293 267.502 346.716C268.078 346.053 268.107 346.053 266.495 346.774Z" fill="black"/>
<path d="M204.488 349.484C202.502 349.916 202.272 350.06 203.308 350.32C204.085 350.522 206.734 349.801 207.021 349.311C207.252 348.965 206.59 349.023 204.488 349.484Z" fill="black"/>
<path d="M247.812 353.952C243.811 355.365 239.81 356.835 238.917 357.239C238.054 357.642 236.989 357.988 236.614 357.988C235.924 357.988 232.066 359.948 232.296 360.179C232.354 360.266 232.987 360.179 233.678 360.035C237.507 359.141 234.858 360.525 230.137 361.909C225.647 363.177 220.235 364.301 217.356 364.503L215.082 364.647L218.392 363.465C223.401 361.678 223.919 361.534 226.654 360.986C228.986 360.554 230.396 360.006 229.274 360.006C229.015 360.006 228.756 359.862 228.698 359.689C228.612 359.458 227.46 359.631 225.013 360.237C218.421 361.88 211.541 362.975 199.307 364.33C195.046 364.82 191.391 365.195 191.16 365.195C190.901 365.195 190.815 365.31 190.901 365.483C190.988 365.628 191.563 365.772 192.139 365.772C194.01 365.772 192.715 366.262 189.462 366.781C187.735 367.04 186.065 367.415 185.748 367.559C184.683 368.136 185.777 368.309 188.31 367.934C189.75 367.761 191.621 367.646 192.484 367.703C193.348 367.761 195.104 367.703 196.371 367.559L198.674 367.328L197.522 366.752L196.371 366.204L199.221 366.118C201.293 366.06 202.387 366.175 203.193 366.492C204.719 367.098 207.454 367.04 211.599 366.319C213.528 366.002 215.917 365.628 216.953 365.483C224.236 364.561 241.451 359.574 252.447 355.221C258.06 352.972 259.097 352.222 256.506 352.222C255.441 352.222 255.211 352.136 255.354 351.79C255.441 351.559 255.412 351.358 255.297 351.358C255.182 351.386 251.814 352.54 247.812 353.952Z" fill="black"/>
<path d="M179.243 362.024C179.243 362.37 179.473 362.37 180.25 362.024C180.768 361.793 180.74 361.765 180.049 361.765C179.588 361.736 179.243 361.851 179.243 362.024Z" fill="black"/>
</svg>
