<svg width="90" height="90" viewBox="0 0 90 90" fill="none" xmlns="http://www.w3.org/2000/svg">
<path d="M45.1752 0.0986481C44.3042 0.225266 44.2551 0.253395 44.8872 0.267464C45.1752 0.274498 45.5545 0.302635 45.7301 0.323738C46.5168 0.450348 45.2103 0.583992 43.5176 0.555862C42.9767 0.541794 42.5202 0.520691 42.4991 0.506622C42.4851 0.485519 42.5132 0.436279 42.5693 0.401115C42.752 0.274498 42.2111 0.415176 41.9232 0.562897C41.7757 0.640266 41.6562 0.710609 41.6562 0.717644C41.6562 0.724678 42.0847 0.717644 42.6045 0.703575C43.5176 0.675438 43.5527 0.675438 43.5527 0.816116C43.5527 1.00603 43.3841 1.04121 42.4359 1.04121C41.6773 1.04121 41.6422 1.04823 41.6773 1.18188C41.7124 1.31553 41.6773 1.32256 40.9609 1.32256C40.5465 1.32256 40.1812 1.3507 40.1391 1.38586C40.0548 1.47028 38.9802 1.67426 38.643 1.67426C38.5025 1.66723 38.3129 1.62502 38.2146 1.56875C37.9266 1.40697 37.6105 1.44917 36.88 1.7446C36.5007 1.89231 35.9248 2.08926 35.6017 2.16664C35.2856 2.25105 34.9555 2.33545 34.8782 2.35655C34.7518 2.39172 34.7448 2.38469 34.8431 2.27215C34.9414 2.15961 34.9344 2.15257 34.808 2.18774C34.7307 2.20884 34.4638 2.27918 34.211 2.34248C33.9581 2.40579 33.0801 2.71529 32.2583 3.01775C30.7833 3.57343 30.1301 3.73521 30.0388 3.5875C29.9896 3.50309 29.7227 3.57343 28.915 3.88293C28.6481 3.98843 28.3952 4.05878 28.3531 4.04471C28.3109 4.02361 27.9387 4.2487 27.5172 4.53005C27.1028 4.81844 26.7446 5.05057 26.7165 5.05057C26.6884 5.05057 26.7446 4.97319 26.8359 4.87472C26.9272 4.77624 26.9834 4.69887 26.9623 4.69887C26.9413 4.69887 26.6673 4.83955 26.3513 5.0154C26.0352 5.19125 25.7472 5.33192 25.7121 5.33192C25.5154 5.33192 22.6497 7.34364 22.3125 7.71644L22.1791 7.86415L22.5092 7.71644C22.6918 7.63906 22.8604 7.58983 22.8815 7.6039C22.8955 7.62499 22.6286 7.87119 22.2774 8.14551C21.9262 8.41984 21.6383 8.68009 21.6383 8.71526C21.6383 8.82077 21.2168 8.99662 21.0764 8.95441C20.676 8.8278 21.2309 7.92746 21.9192 7.58983C22.2845 7.40694 23.6752 6.42219 23.6752 6.34481C23.6752 6.28151 23.2678 6.52769 22.6427 6.97787C22.2845 7.23109 21.9333 7.44212 21.849 7.44212C21.7717 7.44212 21.5189 7.53355 21.2871 7.65313C21.0553 7.76568 20.8165 7.86415 20.7603 7.86415C20.5847 7.86415 20.8375 7.46321 21.1747 7.22406C21.4556 7.01304 22.5724 6.38702 22.6567 6.38702C22.6778 6.38702 22.6848 6.45033 22.6567 6.52066C22.6216 6.64728 22.6356 6.65431 22.8183 6.60507C23.1343 6.51363 23.4434 6.33075 24.2652 5.77506C25.1572 5.17014 25.5014 4.98022 25.7261 4.98022C25.8175 4.98022 26.3021 4.7481 26.8078 4.46674C27.7701 3.93919 28.0791 3.74225 28.0229 3.68597C28.0089 3.66487 27.5523 3.90403 27.0185 4.21352C26.0914 4.7481 25.8596 4.83955 26.0633 4.59335C26.267 4.34717 26.0211 4.4175 25.2134 4.83251C24.7498 5.0787 24.3495 5.25455 24.3284 5.23344C24.2722 5.17718 22.7761 5.96498 21.9192 6.49253C21.554 6.71761 20.9569 7.13262 20.5847 7.41398C19.9385 7.89932 19.9034 7.94152 19.8261 8.29322C19.7769 8.49017 19.6084 9.01772 19.4468 9.4679L19.1518 10.2768L18.337 10.945C16.9042 12.1338 15.9349 12.9989 14.8743 14.047C14.3054 14.6097 13.8418 15.0388 13.8418 14.9966C13.8418 14.8278 14.4739 13.9767 15.071 13.3506C15.7031 12.6824 16.0332 12.387 15.977 12.5417C15.9068 12.7387 16.9604 11.6977 17.2343 11.2967C17.3607 11.1138 17.5293 10.9521 17.6136 10.931C17.7962 10.8817 18.5829 10.108 18.7234 9.83366C18.899 9.49603 18.6461 9.43976 18.3511 9.74925C18.2457 9.8618 17.9859 10.0236 17.7751 10.108C17.452 10.2346 17.3678 10.312 17.2554 10.5441C17.1781 10.7199 16.6724 11.2756 15.9279 12.0142C15.2606 12.6684 14.7127 13.1889 14.6987 13.1748C14.6846 13.1607 14.8181 12.9216 15.0007 12.6402C15.3449 12.1127 16.0051 11.4163 16.2369 11.346C16.3985 11.2897 16.4125 11.1982 16.258 11.142C16.1877 11.1138 16.0122 11.2334 15.7523 11.4937C15.5345 11.7117 15.2746 11.9298 15.1763 11.9931C15.078 12.0494 14.783 12.4292 14.509 12.8301C14.2421 13.2381 13.7856 13.829 13.5117 14.1455C13.2307 14.462 12.8233 14.9614 12.5986 15.2498C12.3808 15.5382 11.7487 16.2346 11.2008 16.7973C10.1964 17.8383 9.77497 18.3799 9.88735 18.4925C9.99973 18.605 10.2456 18.3588 10.969 17.4233C11.3624 16.9169 11.6925 16.523 11.7135 16.5441C11.7346 16.5652 11.6644 16.7129 11.552 16.8676C11.1587 17.4233 11.1376 17.4585 11.2289 17.4022C11.271 17.3741 11.3132 17.3811 11.3132 17.4163C11.3132 17.5499 10.8988 18.0423 10.4774 18.4081C10.2385 18.6191 9.97866 18.9145 9.89437 19.0763L9.75389 19.3647L10.0068 19.1255C10.1472 18.9919 10.2596 18.9075 10.2596 18.9497C10.2596 18.9849 10.0981 19.2662 9.90139 19.5687C9.52913 20.1595 9.13579 20.8981 9.13579 21.0177C9.13579 21.2006 9.30437 21.0528 9.54318 20.6589C10.0138 19.8782 10.4774 19.1888 10.5335 19.1888C10.5687 19.1888 10.5757 19.2732 10.5616 19.3788C10.5265 19.5687 10.5335 19.5687 10.6249 19.435C10.681 19.3577 10.9901 18.8512 11.3202 18.3096C11.8611 17.4022 11.9102 17.2897 11.9172 16.9169C11.9313 16.5792 11.9805 16.4245 12.2193 16.0306C12.4721 15.6015 12.5424 15.5312 12.9146 15.3694C13.4765 15.1162 13.8418 15.1232 13.8418 15.3905C13.8418 15.5312 12.5564 16.7973 12.4159 16.7973C12.2895 16.7973 11.2921 18.9497 11.2991 19.1959C11.2991 19.3577 11.2219 19.4561 10.8566 19.7516C10.2807 20.2017 9.51508 21.1232 8.70734 22.326C8.36317 22.8465 8.06114 23.3178 8.04007 23.374C8.019 23.4233 8.06114 23.5288 8.13841 23.6062C8.27186 23.7398 8.27186 23.7468 7.96983 24.183C7.80126 24.4221 7.65376 24.6542 7.63971 24.7035C7.56948 24.9004 7.53436 24.6753 7.59757 24.401C7.63269 24.2322 7.65376 24.0845 7.63971 24.0704C7.62567 24.0563 7.30959 24.6542 6.9303 25.3998C6.55102 26.1384 6.1928 26.7855 6.14363 26.8277C6.0453 26.9051 5.83458 27.4326 5.83458 27.5874C5.83458 27.6296 5.94696 27.4608 6.08042 27.2076C6.34732 26.7152 6.56506 26.4549 6.62828 26.5534C6.64935 26.5815 6.5159 26.9754 6.33328 27.4186C5.87673 28.5299 5.55363 29.4725 5.45529 30.0071L5.37101 30.4643L5.02684 30.4713L4.67565 30.4784L4.6616 30.1267C4.64053 29.7046 4.75993 28.4877 4.86529 28.0657C4.90743 27.9039 4.92148 27.7492 4.90743 27.7281C4.85124 27.6788 3.93814 30.0282 3.54481 31.231C3.08825 32.6237 2.9548 32.6307 3.23576 31.2451C3.32004 30.8582 3.39028 30.4361 3.40433 30.3025C3.43242 30.0352 4.11374 28.3611 4.25422 28.2134C4.30338 28.1642 4.41576 27.911 4.50005 27.6577C4.59136 27.3975 4.82315 26.8207 5.03386 26.3635C5.23756 25.9133 5.44125 25.3858 5.49041 25.1958C5.53256 25.0059 5.6028 24.816 5.64494 24.7808C5.71518 24.7035 5.71518 24.7175 5.51851 25.5546C5.37101 26.2017 5.25863 26.9684 5.28672 27.1583C5.30779 27.2779 5.36398 27.2076 5.5466 26.8559C5.7222 26.5182 5.79946 26.2509 5.84863 25.8359C5.93994 24.9637 6.07339 24.605 6.52994 23.986C7.1059 23.2052 7.2815 22.8606 6.92328 23.1982C6.82495 23.2896 6.74768 23.3389 6.74768 23.3107C6.74768 23.2474 7.11995 22.6988 7.41495 22.319C7.724 21.9321 7.78721 21.7914 7.5765 21.9813C7.27447 22.2627 7.29554 22.1572 7.64674 21.7C7.83638 21.4608 8.15245 21.0247 8.35615 20.7222C8.55984 20.4268 8.88294 20.0188 9.0796 19.8149C9.33949 19.5476 9.43782 19.3788 9.45187 19.217C9.45889 19.0974 9.56425 18.7879 9.68366 18.5276L9.90842 18.0493L9.30437 18.598C8.50365 19.3295 8.27888 19.6109 7.5765 20.8066C6.08744 23.3459 5.46934 24.5276 4.81612 26.0892C4.62648 26.5464 4.43684 26.8981 4.40172 26.884C4.30338 26.8488 3.71338 28.1642 3.36921 29.1771C3.07421 30.0634 2.99694 30.5909 2.89159 32.4479C2.81432 33.7491 2.58956 35.0364 2.39289 35.3107C2.24539 35.5076 2.15408 35.8664 2.08384 36.4924C2.03468 36.8652 1.94337 37.1255 1.88015 37.0551C1.85908 37.034 1.87313 36.83 1.90825 36.6049C1.98551 36.1548 1.91527 35.986 1.75372 36.1829C1.67646 36.2743 1.66241 36.4924 1.67646 37.1325C1.70456 38.068 1.57813 39.0528 1.44467 38.9965C1.39551 38.9824 1.32527 38.9965 1.28312 39.0387C1.20586 39.1161 1.19181 39.102 1.10753 38.8136C1.09348 38.7573 1.03729 38.9895 0.981098 39.3412C0.854669 40.1641 0.854669 41.5358 0.988122 42.1547C1.03729 42.422 1.08646 43.0129 1.08646 43.456C1.08646 44.1313 1.06538 44.3353 0.924907 44.694C0.78443 45.0668 0.770382 45.2286 0.791454 45.8405C0.798478 46.2344 0.78443 46.551 0.756335 46.551C0.686096 46.551 0.777406 48.0281 0.854669 48.1688C0.903836 48.2532 0.910859 48.2391 0.917883 48.1125C0.917883 47.796 1.04431 47.9718 1.09348 48.3587C1.17074 49.034 1.40955 50.1453 1.52896 50.4126L1.64836 50.6658L1.69051 50.1383C1.72563 49.674 1.71158 49.5896 1.57813 49.3997C1.4236 49.1817 1.41658 49.1184 1.3042 47.3599L1.26908 46.7972L1.36741 47.2966C1.4517 47.7397 1.66241 48.2884 1.72563 48.2251C1.73967 48.218 1.71158 47.9296 1.66944 47.585C1.61325 47.1278 1.61325 46.9167 1.67646 46.7409C1.76777 46.4806 1.7186 43.6389 1.61325 43.2802C1.5711 43.1395 1.56408 43.2872 1.58515 43.7163C1.63432 44.4689 1.52896 44.5955 1.41658 43.9273C1.29717 43.1887 1.23396 40.2696 1.33931 40.0164C1.4517 39.7351 1.53598 39.7351 1.49384 40.0094C1.46574 40.2204 1.58515 40.4596 1.69051 40.3962C1.72563 40.3751 1.76777 40.2274 1.79587 40.0586C1.82396 39.8968 1.8661 39.7351 1.88718 39.6999C1.90122 39.6647 2.03468 40.0023 2.17515 40.4384L2.42801 41.2403L2.42099 42.7175C2.41396 43.7444 2.38587 44.2438 2.32968 44.3564C2.25944 44.483 2.25944 44.687 2.32265 45.306C2.37182 45.7421 2.41396 46.5228 2.42801 47.0504C2.43504 47.592 2.47718 48.0633 2.51932 48.1406C2.56147 48.211 2.60361 48.2321 2.60361 48.1828C2.60361 47.9859 2.74409 48.1195 2.74409 48.3235C2.74409 48.4501 2.79325 48.8511 2.84944 49.2028C2.9548 49.8358 2.94778 49.864 2.81432 49.9976C2.73706 50.075 2.67385 50.1946 2.67385 50.2649C2.67385 50.3352 2.6317 50.4548 2.57551 50.5322C2.47718 50.6588 2.46313 50.6447 2.31563 50.293C2.23134 50.0891 2.15408 49.9343 2.14003 49.9484C2.12599 49.9554 2.16111 50.1594 2.2173 50.3845C2.34373 50.9191 2.34373 50.9894 2.22432 50.9402C2.05575 50.8769 2.02765 51.1512 2.11194 52.0234C2.1892 52.7268 2.22432 52.8745 2.3648 53.0293C2.49825 53.1629 2.53337 53.2825 2.53337 53.5568C2.53337 54.0703 2.67385 55.0972 2.81432 55.66C2.88456 55.9272 2.93373 56.1594 2.91968 56.1734C2.91266 56.1875 2.70897 55.8499 2.47718 55.4278C2.11194 54.7807 1.83098 54.3798 1.83098 54.5205C1.83098 54.5416 1.99253 54.9777 2.1892 55.4911C2.44908 56.1945 2.54039 56.5111 2.52635 56.7502C2.50527 57.0949 2.6598 57.6576 2.73706 57.538C2.80028 57.4325 3.56588 58.3258 3.84683 58.8323C3.97326 59.0644 4.07862 59.191 4.07862 59.1207C4.07862 58.8885 3.72743 57.9319 3.47457 57.4888C3.06016 56.7432 3.21468 56.8346 3.68528 57.6154C3.93112 58.0234 4.33148 58.6353 4.57731 58.98C4.81612 59.3176 5.1041 59.817 5.20946 60.0914C5.44827 60.7033 5.79946 61.9413 5.74327 61.9976C5.6028 62.1453 5.1322 61.3786 5.1322 60.9917C5.1322 60.7948 4.88636 60.9284 4.85124 61.1464C4.81612 61.3434 4.80208 61.3364 4.68267 60.9706C4.61243 60.7596 4.50005 60.5204 4.42279 60.4431C4.34553 60.3657 4.07862 59.9366 3.82576 59.4935C3.57992 59.0503 3.29195 58.5861 3.19361 58.4735L3.01802 58.2625L3.1304 58.4876C3.24278 58.7268 3.46754 59.7045 3.41838 59.7537C3.40433 59.7678 3.30599 59.6271 3.19361 59.4302C3.03206 59.1207 2.88456 58.973 2.88456 59.1136C2.88456 59.2121 3.76255 60.7596 3.81874 60.7596C3.85386 60.7596 3.85386 60.6963 3.83278 60.6189C3.81171 60.5415 3.81171 60.4782 3.83278 60.4782C3.87493 60.4782 4.486 61.7373 4.59136 62.0398C4.61946 62.1101 4.60541 62.1664 4.57029 62.1664C4.52815 62.1664 4.50005 62.1312 4.50005 62.096C4.50005 62.0046 4.24017 62.0046 4.17695 62.1031C4.12076 62.2015 4.54219 62.6376 4.74588 62.6869C4.85124 62.715 4.93553 62.8135 4.99172 62.9753C5.03386 63.1089 5.11815 63.2637 5.16732 63.3199C5.22351 63.3762 5.5747 63.953 5.94696 64.6001C7.11995 66.64 7.8996 67.8146 8.42638 68.3141C8.7846 68.6587 8.74246 68.4758 8.3421 67.9624C7.92067 67.4278 7.66079 66.9776 7.66079 66.8018C7.66079 66.7385 7.52031 66.5696 7.34471 66.429C7.16912 66.2812 6.90221 65.9436 6.73364 65.6623C6.37542 65.0433 6.0172 64.2133 6.08744 64.15C6.11554 64.1218 6.14363 64.1359 6.15768 64.1711C6.27006 64.4805 7.16912 65.6763 7.80126 66.3657C8.32103 66.9213 8.75651 67.4841 9.13579 68.089C9.44484 68.5743 9.6977 69.0104 9.6977 69.0526C9.6977 69.0948 9.64151 69.1019 9.5783 69.0808C9.47996 69.0456 9.48699 69.0808 9.62746 69.3129C10.0278 69.9881 10.5827 70.6564 11.6644 71.7677C12.9076 73.055 13.4906 73.7091 13.4906 73.8217C13.4906 73.8639 13.6451 74.1382 13.8418 74.4336C14.0314 74.729 14.193 75.0104 14.193 75.0596C14.193 75.2566 15.092 76.0163 15.9279 76.5227C16.265 76.7337 16.6373 77.0573 17.0728 77.5356C17.5714 78.0772 17.8173 78.2882 18.1544 78.45C18.3932 78.5696 18.8076 78.8439 19.0746 79.0549C19.3485 79.2659 19.8472 79.6599 20.1843 79.9201C20.5285 80.1874 20.8235 80.4477 20.8446 80.5039C20.8937 80.6235 21.3714 80.8767 21.554 80.8767C21.7155 80.8767 22.3406 81.2706 22.3406 81.3691C22.3406 81.5098 24.1598 82.6 24.3143 82.5508C24.3565 82.5367 24.1949 82.382 23.9491 82.2132C23.7103 82.0444 23.5487 81.8896 23.5909 81.8756C23.6822 81.8474 25.0799 82.5578 25.3609 82.7759L25.5365 82.9166H25.3469C25.2345 82.9166 25.1502 82.9377 25.1502 82.9728C25.1502 83.001 25.3539 83.1628 25.6067 83.3316C25.8596 83.5004 26.0633 83.6692 26.0633 83.7044C26.0633 83.7888 27.2152 84.3234 27.9878 84.5977C28.7885 84.8791 29.6665 85.1041 31.1907 85.4066C31.865 85.5402 32.7851 85.7653 33.2276 85.906C35.2013 86.532 37.6035 87.0596 39.0574 87.1932C39.4227 87.2284 40.0899 87.2425 40.5324 87.2284C41.3331 87.1932 41.3402 87.1932 41.5087 87.3761C41.6211 87.4957 41.7546 87.559 41.8951 87.559C42.0847 87.566 42.0917 87.5731 41.9864 87.6364C41.8951 87.6926 41.5579 87.6715 40.7572 87.566C40.1531 87.4816 39.5631 87.4183 39.4437 87.4254L39.233 87.4324L39.4297 87.5098C39.7739 87.6434 39.6334 87.6997 38.938 87.6997C38.341 87.7067 38.2637 87.7137 38.3761 87.7982C38.4744 87.8755 38.5658 87.8826 38.7624 87.8263C39.0574 87.7419 40.0197 87.7911 41.1505 87.9459C42.0917 88.0725 43.6861 88.2061 43.7634 88.1569C43.7985 88.1358 44.0514 88.1147 44.3394 88.1147C44.831 88.1076 45.5896 88.2554 45.9197 88.4171C46.0251 88.4734 46.5027 88.4804 47.4299 88.4523C48.6239 88.4101 49.0734 88.3679 50.3448 88.1569C50.5133 88.1287 50.6257 88.0725 50.6046 88.0373C50.5836 88.0021 50.5976 87.9318 50.6468 87.8755C50.71 87.8052 50.6959 87.763 50.6046 87.7137C50.4712 87.6434 50.5063 87.6293 51.7917 87.3761C52.3185 87.2776 52.4519 87.2706 52.6837 87.348C52.8382 87.3972 52.9436 87.4605 52.9295 87.4957C52.9085 87.5238 52.7048 87.566 52.466 87.5942C52.185 87.6293 52.0656 87.6715 52.1077 87.7137C52.185 87.7911 52.4449 87.7419 53.3791 87.4887C53.667 87.4113 53.9129 87.362 53.9269 87.3761C53.948 87.3902 53.7443 87.4746 53.4914 87.559C53.2386 87.6434 53.0349 87.7278 53.0489 87.7419C53.063 87.7559 53.2807 87.7137 53.5266 87.6575C53.7794 87.6012 54.7557 87.4113 55.704 87.2354C58.3449 86.7571 57.9586 86.9119 61.1474 85.1323C61.9201 84.7032 62.8542 84.246 63.2195 84.1124C63.5847 83.9787 64.5329 83.5426 65.3337 83.1487C66.1555 82.7478 66.8017 82.4664 66.8157 82.5086C66.8298 82.5508 67.2371 82.3398 67.7218 82.0373C69.6042 80.8416 69.9202 80.6657 70.138 80.6657C70.2995 80.6657 70.4751 80.5672 70.8123 80.2929C71.0581 80.0889 71.7675 79.5262 72.3856 79.0549C73.5305 78.1686 73.8185 77.9014 73.2425 78.239C73.0599 78.3375 72.8843 78.4078 72.8492 78.3797C72.807 78.3586 72.5612 78.5555 72.3013 78.8158C71.9501 79.1675 71.7324 79.3222 71.4725 79.4066C71.1705 79.5051 70.9879 79.5262 71.0932 79.4488C71.1424 79.4066 72.8703 77.9787 73.0037 77.8592C73.1091 77.7747 73.1442 77.7677 73.1863 77.8451C73.2285 77.9084 73.2636 77.9154 73.2917 77.8592C73.3198 77.817 73.3057 77.7818 73.2566 77.7818C73.1934 77.7818 73.1934 77.7607 73.2566 77.6833C73.2987 77.627 73.3338 77.5567 73.3268 77.5286C73.2987 77.3668 73.3549 77.2824 73.5797 77.1136C73.7061 77.008 73.8747 76.9166 73.9449 76.9096C74.0152 76.8955 74.3172 76.593 74.6262 76.2273C75.7009 74.933 76.2979 74.2578 76.333 74.2859C76.3822 74.3351 76.1785 74.6939 75.8975 75.0737C75.6447 75.4043 75.6728 75.4254 76.0029 75.1511L76.1785 75.0034L76.038 75.1792C75.9678 75.2777 75.6306 75.6364 75.3005 75.9881C74.5209 76.797 74.0362 77.3597 74.0362 77.4371C74.0362 77.9154 76.7053 74.919 78.0539 72.9283C78.2997 72.5626 78.679 72.0843 78.8897 71.8732C79.1074 71.6622 79.564 71.0573 79.9152 70.5368C80.6246 69.4747 81.1373 68.8697 81.3691 68.8064C81.6992 68.7291 83.3358 65.7537 83.8696 64.2766C84.0452 63.7842 84.1857 63.5239 84.4034 63.2848C84.6984 62.9612 85.2744 61.9202 85.2744 61.7092C85.2744 61.6248 85.2322 61.6037 85.1339 61.6388C85.0426 61.667 84.9794 61.6459 84.9583 61.5826C84.8951 61.4348 85.2533 60.3938 85.5062 59.9647C85.7801 59.5146 86.9882 56.5181 87.1006 56.0187C87.1708 55.6951 87.1427 55.5193 87.0374 55.5896C87.0023 55.6037 86.939 55.8147 86.8899 56.0468C86.8407 56.2789 86.7564 56.5251 86.7002 56.5884C86.6089 56.701 86.6089 56.6799 86.644 56.3774C86.6721 56.1945 86.7986 55.6881 86.932 55.252C87.2762 54.1547 87.2411 54.2391 87.3043 54.3516C87.3464 54.4149 87.3886 54.3305 87.4448 54.0843C87.5642 53.5287 87.8592 51.3833 87.9435 50.49C88.0277 49.5263 88.0277 47.4161 87.9435 46.973C87.8873 46.6987 87.8873 46.7198 87.9083 47.1489C87.9294 47.4161 87.9154 47.7538 87.8802 47.8874L87.8241 48.1336L87.7679 47.7608C87.6836 47.1629 87.6274 47.4161 87.6485 48.3095C87.6695 48.8511 87.6485 49.1535 87.5993 49.1817C87.5501 49.2168 87.522 49.1395 87.522 48.9566C87.522 48.4923 87.4377 47.8171 87.3816 47.8523C87.3535 47.8734 87.2902 48.0351 87.2411 48.218L87.1498 48.5556L87.0936 48.3095C87.0655 48.1758 86.9742 47.4161 86.8899 46.6213C86.8056 45.8265 86.7073 45.116 86.6721 45.0387C86.63 44.9472 86.623 45.5732 86.6581 46.762C86.7354 49.667 86.7213 50.6588 86.5879 51.2919C86.4755 51.8194 86.3139 52.0797 86.1664 51.9882C86.1313 51.9671 86.1243 52.0445 86.1453 52.157C86.1734 52.2766 86.1594 52.6353 86.1173 52.9589C86.0751 53.2825 86.0119 53.7889 85.9838 54.0773C85.9065 54.7666 85.6256 55.7936 85.5413 55.7092C85.5062 55.674 85.4711 55.463 85.464 55.245C85.457 55.0269 85.4359 54.8933 85.4078 54.9355C85.3798 54.9847 85.2112 55.6248 85.0356 56.3634C84.2981 59.3669 83.6378 61.2942 82.6404 63.327C81.9591 64.7197 81.2006 66.014 81.0741 65.9858C81.039 65.9788 80.9196 66.1687 80.8142 66.4079C80.5965 66.9073 79.9573 67.878 79.3814 68.6025C78.686 69.4817 77.8712 70.3961 77.787 70.3961C77.6676 70.3961 77.0354 71.1417 76.319 72.1194C75.2022 73.6458 74.9634 73.9412 74.4506 74.4617C74.1135 74.8134 73.9309 74.9541 73.8957 74.8908C73.8115 74.7642 72.786 75.5168 71.9642 76.3046C70.6226 77.5989 68.2064 79.3926 65.9026 80.7994C65.3407 81.1511 65.1651 81.2284 65.0878 81.1651C64.9684 81.0666 64.7226 81.1581 63.2406 81.8615C62.4398 82.2413 62.0606 82.382 61.7234 82.4242C61.2528 82.4805 60.3608 82.8533 60.0588 83.1206C59.9604 83.205 59.9323 83.2612 59.9885 83.2401C61.1685 82.8462 61.2739 82.9447 60.1641 83.3949C59.6584 83.5989 59.0895 83.8732 58.8998 83.9998C58.6048 84.1968 58.4503 84.246 57.9937 84.2882C57.495 84.3304 57.4178 84.3585 57.2141 84.5696C56.9402 84.8369 56.4415 85.0268 56.006 85.0268C55.7602 85.0268 55.6618 85.0619 55.5424 85.2097C55.4371 85.3292 55.2474 85.4207 54.9665 85.484C54.7417 85.5402 54.538 85.5754 54.531 85.5613C54.5169 85.5473 54.6925 85.3996 54.9313 85.2308C55.4651 84.8369 55.3317 84.8017 54.4467 85.0971C53.6881 85.3433 53.6811 85.3503 53.8356 85.1745C53.8988 85.1041 54.1938 84.9424 54.4818 84.8157C54.7698 84.6891 54.9945 84.5696 54.9735 84.5555C54.8751 84.457 53.6179 84.7454 52.4449 85.1323C51.7074 85.3785 50.8505 85.6247 50.5414 85.688C50.0217 85.7935 48.8768 85.9412 48.5958 85.9412C48.3921 85.9412 48.4553 85.8146 48.6801 85.7653C48.94 85.7091 49.0032 85.6176 48.8417 85.5332C48.7574 85.491 48.35 85.5402 47.6616 85.6739C46.6783 85.8568 46.5308 85.8638 45.4491 85.8286C44.7889 85.8005 43.9741 85.7231 43.5527 85.6458C43.0961 85.5613 42.2603 85.491 41.3402 85.4488C40.5324 85.4207 39.6896 85.3574 39.4789 85.3081C39.0293 85.2097 37.5403 84.5203 37.3576 84.3234C37.2101 84.1616 36.4165 83.9013 35.3207 83.6551C34.5973 83.4863 33.7333 83.2542 33.4454 83.1417C33.3821 83.1206 33.4735 83.2683 33.642 83.4652L33.9441 83.838L34.6254 83.8169C35.0468 83.8029 35.4261 83.831 35.6298 83.8943C36.1636 84.049 36.0442 84.1405 35.391 84.0842C35.0679 84.0631 34.4989 84.0209 34.1196 83.9928C33.5156 83.9576 33.3821 83.9224 33.0661 83.7325C32.8694 83.6129 32.5955 83.3668 32.462 83.1839C32.2443 82.8884 32.153 82.8322 31.5138 82.6C31.1205 82.4523 29.9545 81.9248 28.922 81.4254C27.2644 80.6305 26.9413 80.4969 26.2529 80.3421C25.2134 80.1171 24.5532 79.7794 23.4996 78.9354C22.5162 78.1475 22.4109 78.0842 22.4109 78.239C22.4109 78.3515 22.3406 78.3445 22.0105 78.2249C21.9614 78.2038 21.9192 78.2249 21.9192 78.2671C21.9192 78.4148 21.575 78.1264 21.3573 77.7958C21.2309 77.6059 21.1466 77.3879 21.1466 77.2472C21.1466 77.0432 21.1185 77.008 20.8867 76.9307C20.69 76.8674 20.2897 76.5086 19.3906 75.6083C18.1825 74.3984 18.1685 74.3844 18.7023 74.7572C19.0043 74.9612 19.2712 75.1089 19.2993 75.0878C19.3766 75.0104 19.2361 74.9049 18.2457 74.2929C17.3678 73.7443 17.0657 73.6036 17.431 73.9061C17.5223 73.9834 17.5574 74.0467 17.5082 74.0538C17.3256 74.0538 16.5249 73.1464 16.1175 72.4641C15.8927 72.0843 15.7101 71.7255 15.7101 71.6833C15.7171 71.6341 15.4854 71.3668 15.1904 71.0854C12.8514 68.8416 12.3808 68.3774 12.3316 68.2508C12.3036 68.1734 12.2263 68.0468 12.1561 67.9694C11.9805 67.7724 11.1025 66.0702 11.1025 65.9295C11.1025 65.7537 10.7021 65.0011 10.5054 64.8252C10.2947 64.6283 9.45889 62.8346 8.67924 60.9003C8.08222 59.4231 7.14102 56.7573 7.19721 56.6939C7.21828 56.6799 7.41495 56.7784 7.63971 56.912C7.86448 57.0527 8.48258 57.3973 9.01639 57.6857C9.97163 58.2063 9.99271 58.2203 10.1683 58.5931C10.2807 58.8182 10.3509 59.1066 10.3579 59.3176C10.372 59.7608 10.7864 60.6259 11.3764 61.4559C11.6152 61.7865 11.847 62.1945 11.9032 62.4055C12.0366 62.8487 12.4581 63.5802 12.9287 64.1711C13.1183 64.4172 13.2799 64.6353 13.2799 64.6564C13.2799 64.8111 13.0972 64.6212 12.725 64.0726C12.4932 63.7279 12.2544 63.4325 12.1982 63.4114C12.142 63.3903 12.0437 63.2637 11.9734 63.1371C11.7557 62.708 10.8075 61.1042 10.7794 61.1253C10.7653 61.1394 10.8215 61.3504 10.8918 61.5896C11.1025 62.2578 11.1797 62.8487 11.0884 63.0456C11.0252 63.1863 11.0533 63.2637 11.3413 63.6365C11.6714 64.0655 11.9524 64.2273 12.1069 64.0726C12.3597 63.8194 12.7952 64.2836 13.4344 65.4864C13.8558 66.2742 13.8909 66.3234 14.193 66.436C14.6495 66.6048 14.9305 66.8791 14.6495 66.8791C14.5933 66.8791 14.5442 66.9073 14.5442 66.9354C14.5442 67.0268 14.9164 67.5192 15.1412 67.7232C15.4081 67.9694 16.0192 68.8135 16.0192 68.9331C16.0192 68.9893 16.0683 69.0948 16.1245 69.1722C16.258 69.3481 16.258 69.4184 16.1245 69.3692C16.0613 69.341 16.0192 69.3692 16.0192 69.4395C16.0192 69.5731 16.7426 70.2976 16.9323 70.3609C17.0938 70.4102 17.3748 70.2765 17.3186 70.1781C17.2343 70.0515 17.3888 70.1218 17.5785 70.3047C17.6838 70.4102 17.7751 70.4594 17.7751 70.4243C17.7751 70.382 17.6628 70.2484 17.5293 70.1148C17.3958 69.9811 17.2835 69.8404 17.2835 69.7982C17.2835 69.6716 16.4968 68.5954 15.8366 67.8287C14.8883 66.7244 13.4203 64.5861 13.3852 64.2555C13.3712 64.1711 13.2167 63.8475 13.027 63.538C12.6267 62.8627 11.9524 61.4559 11.2078 59.7608C10.7513 58.7057 10.6389 58.5087 10.4703 58.4384C10.3299 58.3821 10.2245 58.2414 10.084 57.8968C9.97163 57.6506 9.78199 57.334 9.65556 57.1934C9.43782 56.9683 9.40973 56.9542 9.1077 56.9964L8.7846 57.0456L8.58091 56.5814C8.28591 55.9343 8.20865 55.6248 8.32805 55.6248C8.44746 55.6248 8.27186 55.1746 7.99091 54.7596C7.89257 54.6189 7.79424 54.3798 7.76614 54.2321C7.71698 53.9507 7.52733 53.5498 7.52031 53.7256C7.52031 53.7819 7.5484 53.9366 7.58352 54.0632C7.61864 54.1828 7.62567 54.2883 7.59055 54.2883C7.56245 54.2883 7.49924 54.1406 7.45709 53.9507C7.40793 53.7678 7.24638 53.4232 7.09185 53.191C6.93733 52.9519 6.7828 52.6494 6.74768 52.5228C6.62125 52.1008 6.52994 51.1723 6.60721 51.0949C6.71256 50.9894 6.88114 51.1864 6.96542 51.5169C7.07781 51.9671 7.19721 51.9109 7.134 51.4396C7.07781 50.9472 7.19019 50.9331 7.29554 51.4185C7.33769 51.6225 7.429 52.0586 7.49221 52.3821C7.62567 53.0082 7.70293 53.1348 8.37019 53.6553C8.63008 53.8593 8.65817 53.8733 8.55984 53.7256C8.23674 53.2684 8.08222 52.9589 8.04007 52.6846C8.019 52.5228 8.019 52.3892 8.05412 52.3892C8.14543 52.3892 8.05412 50.5674 7.94876 50.3001C7.86448 50.082 7.85745 50.075 7.68888 50.1875C7.5765 50.2579 7.50626 50.3915 7.47817 50.5744C7.39388 51.0597 7.28852 50.7502 7.2815 50.0187C7.2815 49.5685 7.30959 49.2731 7.37281 49.1606C7.45007 49.0129 7.45007 48.9847 7.35174 48.9285C7.22531 48.8581 7.19721 48.3657 7.30257 48.0844C7.34471 47.9718 7.33769 47.8593 7.27447 47.7538C7.16209 47.5428 7.12697 47.6061 7.02864 48.1969C6.9584 48.5627 6.9584 48.7948 7.02864 49.2309C7.11292 49.7585 7.1059 49.8007 6.9865 49.8921C6.79685 50.0328 6.67042 49.8851 6.57209 49.3857C6.47375 48.9285 6.49482 48.8229 6.6634 48.9566C6.75471 49.034 6.76173 49.0199 6.72661 48.837C6.62125 48.3376 6.59316 46.4806 6.67042 45.6717C6.71959 45.2075 6.7828 44.7995 6.8109 44.7714C6.83899 44.7432 6.88816 45.0527 6.90923 45.4677C6.9303 45.8827 6.9865 46.2555 7.02864 46.2977C7.11995 46.3892 7.11995 45.6717 7.02161 45.109C6.9865 44.8769 6.93733 44.5744 6.91626 44.4408L6.88114 44.1946L7.00054 44.3986C7.09888 44.5815 7.12697 44.5885 7.18316 44.483C7.21828 44.4197 7.24638 44.2649 7.23935 44.1383C7.23233 44.0117 7.22531 43.5686 7.21828 43.1465C7.21828 42.5768 7.19721 42.422 7.14804 42.5486C7.07781 42.7104 7.07781 42.7034 7.02161 42.4361C6.94435 42.0352 6.94435 40.9168 7.02864 40.0727C7.09888 39.3693 7.33769 37.8711 7.429 37.5827L7.47114 37.442L7.52733 37.5827C7.56245 37.66 7.56948 38.0891 7.54138 38.5322C7.51328 39.2145 7.52031 39.3271 7.59757 39.2497C7.67483 39.1794 7.6959 38.8839 7.70293 38.0188C7.70995 36.7949 7.85745 35.9719 8.0471 36.0493C8.11031 36.0704 8.22269 35.9297 8.35615 35.6483C8.55984 35.2474 8.57389 35.1489 8.58091 34.4596C8.58793 33.4608 8.64412 33.1442 8.99532 32.2439C9.19901 31.7093 9.29032 31.3506 9.30437 31.0481C9.31841 30.7949 9.39568 30.4502 9.50103 30.197C9.76794 29.5499 10.7302 27.8195 10.7653 27.925C10.7864 27.9743 10.8707 27.8828 10.9479 27.721C11.0674 27.496 11.7487 25.8992 12.0647 25.1114C12.0858 25.0622 12.142 25.0341 12.1912 25.0552C12.2544 25.0763 12.3106 24.9778 12.3668 24.7597C12.4089 24.5839 12.5564 24.197 12.6899 23.9086C12.9708 23.3037 12.9568 23.1771 12.6758 23.6624C12.5634 23.8524 12.2263 24.3377 11.9172 24.7457C11.559 25.224 11.2008 25.8078 10.9199 26.3987C10.674 26.8981 10.4703 27.2779 10.4703 27.2427C10.4703 27.0739 10.7091 26.1806 11.0112 25.2169C11.2921 24.3307 11.3834 24.1267 11.6433 23.8242C11.8821 23.5429 11.9453 23.4163 11.9453 23.2052C11.9453 22.7902 12.142 22.2275 12.3176 22.1361C12.4019 22.0868 12.5143 22.0024 12.5634 21.9391C12.9497 21.4538 13.2728 20.877 13.5538 20.1806C13.8769 19.3647 14.4739 18.4151 14.6636 18.4151C14.8181 18.4151 14.5863 18.9075 13.7434 20.3494C13.3642 21.0106 13.2377 21.2709 13.315 21.285C13.3923 21.3061 13.3361 21.4538 13.0902 21.9039C12.9076 22.2486 12.7952 22.53 12.8303 22.5651C12.9357 22.6636 13.1113 22.4807 13.2096 22.1783C13.3361 21.7914 13.5538 21.4889 13.6802 21.5382C13.7505 21.5663 13.8348 21.4608 13.9612 21.1724C14.1368 20.7996 14.79 19.8922 14.9726 19.7797C15.0218 19.7516 15.085 19.7867 15.1201 19.85C15.2185 20.0188 15.2887 19.9907 15.661 19.646C15.8436 19.4702 16.0192 19.3295 16.0402 19.3295C16.0683 19.3295 16.0051 19.4421 15.9138 19.5827C15.8155 19.7234 15.7382 19.8922 15.7382 19.9555C15.7312 20.0188 15.5135 20.3354 15.2466 20.666C14.7479 21.2639 14.6495 21.4678 14.8743 21.4256C15.1342 21.3764 16.855 18.6261 17.143 17.8172C17.2062 17.6273 17.1851 17.6414 16.9253 17.9368C16.6302 18.2815 16.5108 18.3518 16.5108 18.1759C16.5108 18.1197 16.4266 18.0634 16.3282 18.0493L16.1456 18.0282L16.4125 17.7609C16.553 17.6203 16.7145 17.5007 16.7707 17.5007C16.8199 17.5007 16.862 17.4514 16.862 17.3881C16.862 17.3319 16.9604 17.142 17.0728 16.9731C17.1922 16.8043 17.2835 16.6425 17.2835 16.6074C17.2835 16.5792 17.4661 16.4737 17.6838 16.3823C17.9016 16.2838 18.5407 15.911 19.1026 15.5452C19.6646 15.1795 20.2967 14.7996 20.5004 14.6941C20.8656 14.5183 20.8797 14.5183 20.971 14.6449C21.0904 14.8067 21.0202 14.8559 22.9377 13.3436C24.4899 12.1267 25.6489 11.2686 26.3864 10.8044C27.0677 10.3682 27.1028 10.3542 26.9272 10.5511C26.8359 10.6426 26.7657 10.741 26.7657 10.7621C26.7657 10.8536 28.0089 10.319 28.3601 10.0728C28.5638 9.93214 28.8447 9.67188 28.9852 9.49603C29.3785 8.99662 29.7297 8.63789 29.793 8.67306C29.8211 8.69416 30.2495 8.58161 30.7412 8.42686C31.2399 8.27212 31.7245 8.14551 31.8158 8.14551C31.9142 8.14551 32.4409 7.87822 32.9958 7.54762C34.0354 6.91457 34.4638 6.71761 35.3137 6.45736L35.8194 6.30261L36.1495 6.49956C36.4235 6.66134 36.5569 6.69651 36.9432 6.68948C37.3296 6.68948 37.4841 6.64728 37.8985 6.43626C38.2988 6.23227 38.6219 6.14083 39.6193 5.95795C40.2936 5.83134 41.1224 5.72582 41.4596 5.71175C42.183 5.69769 42.5132 5.62735 42.478 5.52184C42.464 5.4726 42.3657 5.4304 42.2673 5.41633C42.162 5.40226 42.0777 5.3671 42.0777 5.33192C42.0777 5.27565 42.8503 5.15607 43.0961 5.18421C43.1734 5.19125 43.7072 5.0998 44.2902 4.98022C44.8661 4.86065 45.702 4.71997 46.1375 4.6637C47.0857 4.53709 48.7222 4.52302 48.7925 4.63556C48.8136 4.67776 48.9751 4.77624 49.1507 4.85361C49.3193 4.92395 49.4387 5.0154 49.4176 5.05759C49.3544 5.15607 48.7644 5.13497 48.7012 5.02946C48.5326 4.74107 47.458 4.62149 46.5097 4.77624C46.0883 4.84658 46.0321 4.87472 46.0672 4.99429C46.0883 5.0787 46.0251 5.20531 45.8987 5.34599L45.695 5.55701L46.011 5.50074C46.1866 5.46557 47.0716 5.4515 47.9777 5.4726C49.4527 5.50074 51.5458 5.50074 52.6135 5.4726C53.4704 5.4515 57.2422 6.33075 58.6048 6.87236C58.8928 6.99194 59.1878 7.07635 59.258 7.07635C59.4336 7.06228 60.7752 7.78677 60.726 7.86415C60.7049 7.89932 60.7892 7.98373 60.9157 8.04704C61.2528 8.21585 61.7585 8.57458 61.7234 8.60975C61.6672 8.67306 60.7682 8.4339 60.4732 8.27915C60.3116 8.20178 60.1641 8.15254 60.143 8.17365C60.0939 8.22992 60.1079 8.23695 60.5153 8.44797C60.9016 8.65195 60.8033 8.69416 60.3397 8.53238C60.1711 8.4761 60.0236 8.4339 60.0096 8.455C59.9955 8.46907 60.4029 8.63085 60.9157 8.81374C61.9973 9.20061 62.1519 9.27094 62.4609 9.54527C62.6154 9.67188 62.8683 9.78442 63.2195 9.8618C64.3293 10.1291 65.4952 10.7059 66.1344 11.3038C66.2889 11.4515 66.5347 11.6414 66.6822 11.7258C66.8227 11.8172 66.9421 11.9228 66.9492 11.965C66.9492 12.0142 67.2582 12.2463 67.6305 12.4925C68.1502 12.8301 68.2486 12.8794 68.0308 12.6824C67.792 12.4644 67.7709 12.4362 67.9255 12.4784C68.2205 12.5558 68.6349 12.795 68.8245 12.9849C68.979 13.1326 69.0984 13.1678 69.548 13.21C69.9483 13.2451 70.1731 13.3084 70.4119 13.4491C70.8193 13.6883 72.1117 14.7856 72.217 14.9825C72.2873 15.1091 72.2732 15.1162 72.1257 15.074C72.0415 15.0458 71.627 14.8629 71.2056 14.666C70.7912 14.4761 70.433 14.3284 70.4119 14.3565C70.3908 14.3776 70.4962 14.462 70.6507 14.5394C71.1424 14.7926 72.6315 16.0869 72.6315 16.2697C72.6315 16.3049 72.7719 16.4315 72.9475 16.537C73.1231 16.6496 73.383 16.8817 73.5375 17.0505C73.685 17.2193 73.8606 17.36 73.9168 17.36C73.98 17.36 74.2469 17.4444 74.5209 17.5429C74.9704 17.7117 75.0687 17.7891 75.6236 18.387C75.9537 18.7527 76.2066 19.0482 76.1785 19.0482C76.1504 19.0482 76.2909 19.224 76.4875 19.4421C76.9652 19.9626 76.9441 20.0892 76.4595 19.6109C76.2487 19.3999 76.0731 19.2592 76.0731 19.3014C76.0731 19.4491 76.3962 19.8571 76.628 19.9977C76.7545 20.0751 77.0635 20.3213 77.3234 20.5394C77.8291 20.9825 77.9345 21.0317 77.8642 20.7855C77.8221 20.6378 77.8221 20.6378 77.9626 20.8066C78.0398 20.9051 78.2365 21.2217 78.391 21.5171C78.5455 21.8125 78.7141 22.0939 78.7773 22.1431C78.9459 22.2838 78.9038 22.3612 78.7071 22.2697C78.6088 22.2275 78.5174 22.2064 78.4964 22.2275C78.4753 22.2486 78.6158 22.53 78.8195 22.8535C79.4235 23.8383 79.3814 23.7891 79.4516 23.6835C79.4797 23.6273 79.4938 23.5077 79.4657 23.4092C79.4235 23.2193 79.4586 23.2404 79.7255 23.5851C79.873 23.782 79.8801 23.7891 79.8309 23.6202C79.7607 23.367 80.5333 24.5417 80.8564 25.1818C81.0039 25.4842 81.1303 25.7797 81.1303 25.8359C81.1303 25.8992 81.2216 26.0821 81.334 26.2439C81.4394 26.4057 81.8116 27.0106 82.1488 27.5944C82.4859 28.1712 82.8793 28.8254 83.0197 29.0364C83.2375 29.374 83.2726 29.4022 83.2937 29.2615C83.3077 29.17 83.2726 29.0434 83.2164 28.9801C83.1602 28.9168 83.0268 28.6917 82.9214 28.4807C82.7809 28.1923 82.7598 28.1149 82.8441 28.1431C82.9354 28.1782 82.9565 28.1431 82.9565 27.9672C82.9565 27.7562 82.9635 27.7492 83.09 27.8688C83.3007 28.0657 83.701 28.9309 84.0031 29.8523C84.27 30.6894 84.6212 31.4772 84.6844 31.4068C84.7055 31.3857 84.572 30.8863 84.3894 30.2955C83.9539 28.8535 83.4974 27.6999 83.406 27.7914C83.385 27.8125 83.4201 27.9321 83.4833 28.0516C83.5465 28.1782 83.5676 28.2627 83.5325 28.2345C83.4201 28.1642 82.3946 26.7996 82.3946 26.7222C82.3946 26.68 82.2401 26.3283 82.0434 25.9414C81.8538 25.5546 81.6922 25.224 81.6922 25.2029C81.6922 25.0552 81.8819 25.3436 82.1839 25.9414C82.3735 26.3213 82.5632 26.6519 82.6053 26.68C82.7107 26.7433 82.5913 26.4549 82.1418 25.5546C81.7835 24.8441 81.5307 24.4291 81.6641 24.7738C81.7906 25.0974 81.5096 24.7316 80.6105 23.374C80.0838 22.5792 79.4586 21.6929 79.2339 21.4045C79.0021 21.1161 78.8124 20.8418 78.8124 20.7996C78.8124 20.7574 78.7001 20.5394 78.5666 20.3143C78.4332 20.0892 78.3208 19.8711 78.3208 19.8149C78.3208 19.6882 78.7001 20.0681 78.8546 20.3565C78.9248 20.4901 79.0161 20.5956 79.0442 20.5956C79.1426 20.5956 79.0513 20.4268 78.6368 19.8219C78.2295 19.2521 77.5833 18.6261 77.3866 18.6261C77.2812 18.6261 75.9327 17.2545 75.9327 17.142C75.9327 17.1068 75.8273 17.0364 75.7079 16.9802C75.448 16.8606 73.98 15.496 74.0433 15.4327C74.1135 15.3553 75.3146 16.3049 75.8765 16.8817C76.1715 17.1842 76.4665 17.4303 76.5227 17.4303C76.7053 17.4303 77.8151 18.4151 78.9178 19.5546C80.1189 20.7855 80.3998 21.1372 80.9547 22.0728C81.1795 22.4385 81.4956 22.9379 81.6641 23.1841C81.8327 23.4303 81.9732 23.6484 81.9732 23.6765C81.9732 23.7609 83.4341 25.9414 83.4903 25.9414C83.5114 25.9414 83.4903 25.8781 83.4482 25.7937C83.399 25.7164 83.378 25.632 83.399 25.6179C83.4341 25.5757 84.0944 26.5886 84.263 26.9543C84.3613 27.1583 84.4175 27.1935 84.5439 27.1654C84.6774 27.1302 84.7336 27.1794 84.9162 27.503C85.0356 27.707 85.2182 28.129 85.3165 28.4385C85.5132 29.0153 85.752 29.5639 85.8012 29.5147C85.8503 29.4655 85.6467 28.4385 85.5624 28.2697C85.5132 28.1782 85.3517 27.918 85.2042 27.6929C84.8389 27.1302 84.5158 26.1947 84.4386 25.4983C84.4034 25.1818 84.3824 24.9075 84.3964 24.8934C84.4105 24.8793 84.5228 24.9426 84.6422 25.027C84.7617 25.1114 84.874 25.1677 84.8951 25.1466C84.9653 25.0763 84.7055 24.6613 84.3402 24.2674C83.7502 23.6202 83.4482 23.2263 83.4482 23.1068C83.4482 23.0434 83.3569 22.8887 83.2445 22.7621C83.0197 22.5018 82.4368 21.299 82.5351 21.299C82.5702 21.299 82.6826 21.4186 82.7879 21.5593C82.9003 21.707 83.0127 21.8547 83.0408 21.8969C83.1743 22.0517 82.7598 21.2006 82.219 20.2088C81.4253 18.7527 81.1303 18.1619 81.1303 18.0001C81.1303 17.8031 79.7747 16.122 79.571 16.0658C79.4797 16.0447 79.3392 16.0236 79.255 16.0236C79.1707 16.0236 78.9599 15.911 78.7843 15.7774C78.6017 15.6437 78.4402 15.5312 78.4191 15.5312C78.3699 15.5312 79.0232 16.3823 79.1636 16.5019C79.4376 16.734 79.5289 16.7199 79.3041 16.4808C79.1285 16.2908 79.1004 16.2275 79.1988 16.2697C79.276 16.2979 79.4305 16.3401 79.5429 16.3612C79.8801 16.4175 80.5754 17.4092 81.1725 18.6824C81.341 19.0482 81.4745 19.3647 81.4604 19.3717C81.4464 19.3858 81.2638 19.224 81.0601 19.013C80.8494 18.802 80.6386 18.6261 80.5965 18.6261C80.5473 18.6261 80.435 18.5206 80.3507 18.394C80.2594 18.2744 79.9573 17.9227 79.6764 17.6273C79.3954 17.3248 79.1636 17.0505 79.1636 17.0083C79.1636 16.9661 78.9038 16.6636 78.5877 16.333C78.2646 16.0024 77.9907 15.7 77.9766 15.6507C77.9415 15.5312 77.4639 15.0388 77.3866 15.0388C77.3515 15.0388 77.3374 15.088 77.3655 15.1443C77.4147 15.285 77.3655 15.278 77.0776 15.1021C76.8106 14.9333 76.3541 14.3706 76.3541 14.2018C76.3541 14.1385 76.4173 14.047 76.5016 13.9978C76.628 13.9134 76.6702 13.9204 76.8036 14.04C77.0986 14.3143 77.5481 14.5605 77.6535 14.5183C77.808 14.462 77.9626 14.5535 78.5034 15.0107C78.8405 15.2991 78.967 15.3694 78.9951 15.292C79.0513 15.1513 78.8757 14.8418 78.398 14.251C77.8432 13.5687 77.4849 13.224 77.499 13.3928C77.506 13.4702 77.4498 13.5335 77.3374 13.5617C77.197 13.5968 77.1618 13.6461 77.1689 13.8219L77.1829 14.04L76.7474 13.7375C76.5156 13.5757 75.9889 13.2733 75.5815 13.0623C74.9634 12.7457 74.7386 12.5769 74.1767 12.0212C73.6991 11.5499 73.39 11.3108 73.088 11.1701C72.6947 10.9872 71.7394 10.2135 71.8167 10.1361C71.8729 10.0798 72.5542 10.4456 73.2495 10.9028C73.6078 11.142 73.9168 11.3178 73.9379 11.2967C73.9519 11.2756 73.7904 11.0927 73.5656 10.8888C73.2776 10.6285 72.8843 10.3823 72.1749 10.0376C71.0932 9.5101 70.4751 9.12323 70.2433 8.8278C70.0045 8.52534 70.2082 8.58865 70.9668 9.05993C71.6622 9.489 72.1679 9.76332 72.2522 9.76332C72.2803 9.76332 72.0906 9.56637 71.8307 9.33425C71.2899 8.83484 71.2618 8.70823 71.7816 9.12323C71.9782 9.27798 72.3856 9.5523 72.6876 9.72815C73.2566 10.0728 73.8396 10.5371 73.6921 10.5371C73.6007 10.5371 73.7974 10.8888 73.9449 10.9802C74.1697 11.1209 74.9844 11.8102 75.75 12.4925C76.2066 12.9075 76.607 13.2522 76.6421 13.2662C76.9792 13.3928 75.6025 11.9087 74.7246 11.1982C74.4296 10.9591 73.9238 10.53 73.6007 10.2557C72.793 9.5523 72.3294 9.20061 71.7535 8.86298C71.1775 8.52534 70.7631 8.18771 70.9808 8.23695C71.0581 8.25806 71.1775 8.29322 71.2477 8.32136C71.4866 8.41984 71.3601 8.24399 71.023 8.0189C70.735 7.82195 70.6577 7.79381 70.5454 7.86415C70.433 7.93449 70.3557 7.92043 70.0958 7.79381C69.5339 7.50542 68.67 6.91457 68.0659 6.38702C67.2793 5.70472 66.8508 5.44447 66.1414 5.19125C65.8183 5.07166 64.7788 4.6637 63.8376 4.26979C61.892 3.46088 60.1149 2.76453 59.827 2.69418C59.7146 2.66605 59.6373 2.59571 59.6373 2.52537C59.6373 2.29325 59.4828 2.23698 58.8787 2.23698C58.5556 2.23698 58.0008 2.20181 57.6355 2.15961C56.7575 2.05409 56.61 2.10333 57.2 2.30029C57.4669 2.39172 57.6636 2.47614 57.6496 2.49723C57.5864 2.5535 55.8936 2.29325 55.4651 2.15961C55.128 2.06113 55.0367 2.05409 54.9594 2.12444C54.8611 2.22994 54.6082 2.21587 53.3158 2.05409C52.8733 1.99783 52.4098 1.95562 52.2833 1.95562C52.1569 1.95562 52.0516 1.92045 52.0516 1.88528C52.0516 1.84308 51.9462 1.7657 51.8268 1.70943C51.6091 1.61799 51.6442 1.61095 52.4027 1.61095C52.8452 1.61095 53.5968 1.65316 54.0674 1.69536C54.545 1.7446 54.9032 1.75867 54.8751 1.73756C54.7276 1.58985 53.4844 1.44917 51.8408 1.38586C50.8575 1.3507 49.9023 1.29443 49.7196 1.25925C49.53 1.23112 49.3825 1.21705 49.3825 1.23112C49.3825 1.24519 49.523 1.32256 49.6986 1.39993C49.9093 1.49138 50.2464 1.55468 50.6679 1.58282C51.1104 1.61095 51.3913 1.66723 51.5599 1.75867L51.8057 1.89231L51.5599 1.85011C50.998 1.7446 50.2956 1.6813 49.7196 1.67426C49.3825 1.67426 48.9681 1.63206 48.8065 1.57578C48.638 1.51952 48.1674 1.45621 47.753 1.42807C46.9944 1.37883 46.875 1.3296 47.0787 1.12561C47.2683 0.935692 47.0225 0.886459 46.1023 0.914589C45.3438 0.935692 45.1541 0.963829 44.8732 1.10451C44.6133 1.23112 44.4728 1.25222 44.2551 1.21705C43.9671 1.16782 43.939 1.13968 44.0303 0.999001C44.0935 0.893486 45.2665 0.640266 45.9338 0.576958C46.3131 0.541794 46.4606 0.555862 46.587 0.633232C46.7837 0.759842 47.8372 0.851288 48.1884 0.773911C48.357 0.738739 48.4624 0.661369 48.5256 0.527725C48.5888 0.401115 48.6941 0.316704 48.8276 0.288567C48.94 0.267464 49.0243 0.2323 49.0032 0.218231C48.9892 0.204163 48.6801 0.140854 48.3219 0.0916138C47.5071 -0.034996 46.0532 -0.0279617 45.1752 0.0986481ZM45.7301 2.93334C45.4562 3.02478 45.3438 3.08809 45.3508 3.17249C45.3578 3.2358 45.3578 3.29207 45.3508 3.29207C45.3508 3.29207 45.0769 3.34131 44.7467 3.39758C44.1076 3.51012 42.1479 3.53826 42.3938 3.43275C42.471 3.39758 42.6396 3.36945 42.766 3.36945C43.068 3.36241 42.9908 3.22173 42.6817 3.22173C42.4078 3.22173 40.7993 3.52419 40.2585 3.67894C40.0408 3.74225 39.8019 3.85479 39.7247 3.92513C39.6474 3.98843 39.4437 4.06581 39.2681 4.08691C38.9029 4.13615 38.0741 4.06581 38.0741 3.99547C38.0741 3.96733 38.1724 3.90403 38.2988 3.84776C38.9942 3.55936 37.4068 3.90403 36.0372 4.3331C35.6719 4.45267 35.1381 4.61446 34.8642 4.69887C34.5832 4.77624 34.3514 4.88175 34.3514 4.91692C34.3514 4.95912 34.3936 4.98022 34.4427 4.95912C34.4989 4.93802 34.8993 4.90285 35.3418 4.88175C36.1214 4.83251 36.1355 4.83955 35.9739 4.95912C35.8826 5.02946 35.693 5.19125 35.5525 5.32489C35.412 5.4515 35.1873 5.61328 35.0538 5.68362C34.808 5.81023 34.3023 5.93684 34.1899 5.90871C34.1618 5.90167 33.8879 5.95795 33.5788 6.03532C33.2768 6.11269 32.9748 6.176 32.9045 6.176C32.7921 6.176 32.7921 6.16897 32.9045 6.04235C33.0239 5.90871 33.0169 5.90871 32.7851 5.92981C32.5463 5.95091 31.3523 6.41515 31.2258 6.53473C31.1134 6.64024 31.2961 6.60507 31.8228 6.41515C32.1038 6.31668 32.3426 6.24634 32.3567 6.26744C32.4199 6.32372 31.7948 6.64728 30.7342 7.11152C30.1582 7.36474 29.3224 7.73051 28.8869 7.92746C28.1494 8.25806 27.4119 8.51831 26.7235 8.70119C26.267 8.82077 25.965 9.05993 25.9369 9.32018C25.9088 9.62264 25.6278 9.85477 24.7358 10.319C24.1949 10.6074 23.9702 10.7692 23.8508 10.9521C23.7665 11.0927 23.626 11.2686 23.5417 11.3389C23.4645 11.4163 23.3942 11.5288 23.3942 11.5922C23.3942 11.6625 23.2186 11.8243 22.9939 11.979C22.5373 12.2744 22.2704 12.4995 22.2704 12.591C22.2704 12.7176 22.432 12.6261 23.1484 12.0845C23.8086 11.5851 24.1668 11.4093 24.1668 11.5711C24.1668 11.6062 24.0474 11.7258 23.907 11.8524C23.7595 11.979 23.6822 12.0775 23.7314 12.0845C23.7805 12.0845 24.0755 11.8383 24.3986 11.5288C24.9957 10.9591 25.3539 10.7199 25.5576 10.7621C25.6419 10.7832 25.5786 10.8465 25.3679 10.9521C25.1923 11.0435 24.8763 11.2967 24.6515 11.5148C24.1809 11.979 23.6822 12.4081 23.0079 12.9286C22.741 13.1396 22.4039 13.4069 22.2634 13.5335C21.9965 13.7656 21.7296 13.8852 21.6523 13.8149C21.6312 13.7868 21.8279 13.5406 22.1018 13.2662C22.6356 12.7176 22.5865 12.6965 21.9824 13.224C21.7647 13.4069 21.568 13.5617 21.5399 13.5617C21.4697 13.5617 21.4908 13.21 21.568 13.0623C21.6593 12.9075 20.7533 13.4562 20.4302 13.7586C20.3178 13.8571 20.2335 13.8993 20.2335 13.8571C20.2335 13.6953 20.0719 13.7727 19.489 14.1947C18.7796 14.7152 18.5407 14.7996 18.9762 14.3917C19.3766 14.0118 20.2335 13.4139 20.8656 13.0763C21.1255 12.9356 21.6804 12.591 22.1018 12.3096C22.7129 11.8946 22.8955 11.7328 23.0571 11.4515C23.1695 11.2545 23.2397 11.0998 23.2257 11.0998C23.2046 11.0998 22.8815 11.3389 22.5092 11.6344C22.0737 11.972 21.7928 12.1478 21.7225 12.1197C21.6523 12.0916 21.4908 12.1971 21.273 12.4151C21.0904 12.598 20.9359 12.7176 20.9359 12.6895C20.9359 12.5839 21.5821 11.7117 21.9473 11.3249C22.137 11.1279 22.2564 10.9591 22.2142 10.9591C22.1721 10.9591 21.842 11.156 21.4837 11.3952C21.0131 11.7047 20.4161 12.2393 19.3555 13.2803C18.5478 14.0751 17.7681 14.8067 17.6347 14.9052C17.5012 14.9966 16.9604 15.496 16.4406 16.0095C15.4643 16.9802 14.7057 17.6343 14.0736 18.0353C13.6451 18.3166 12.9076 18.6543 12.9427 18.5558C12.9568 18.5206 13.1675 18.2041 13.4133 17.8524C13.7996 17.3037 13.8909 17.2123 14.0244 17.2475C14.193 17.2897 14.6214 16.8325 16.0473 15.074C16.9885 13.9134 17.7541 13.0763 18.5618 12.3307C19.3555 11.5922 19.6154 11.4515 19.0043 12.0845C18.7725 12.3237 18.6461 12.4925 18.7234 12.4503C18.899 12.3589 19.194 12.0423 19.6997 11.4022C19.9174 11.1209 20.2475 10.7903 20.4302 10.6707C20.6268 10.53 20.7111 10.4949 20.6409 10.5863C20.5706 10.6637 20.5144 10.741 20.5144 10.7551C20.5144 10.8395 21.4346 10.3331 21.7787 10.0517C22.8253 9.21468 24.2933 8.3706 26.4496 7.37177C27.2222 7.01304 27.8965 6.66134 27.9527 6.58397C28.0932 6.39405 28.8377 5.89464 28.9852 5.89464C29.0835 5.89464 29.0906 5.90871 29.0063 6.00719C28.922 6.11269 28.929 6.11973 29.0835 6.06345C29.3505 5.97202 29.9405 5.98608 29.9756 6.09159C29.9966 6.14787 29.7087 6.32372 29.1819 6.56287C28.7324 6.78092 28.3741 6.97084 28.3952 6.99194C28.4654 7.05524 29.5331 6.72465 30.0528 6.47846C30.39 6.32372 30.5867 6.18303 30.6288 6.07752C30.7131 5.85947 32.6446 4.62852 33.2627 4.40344C33.9019 4.17132 34.9063 3.897 34.9555 3.94623C34.9766 3.96733 35.2505 3.87589 35.5595 3.74225C35.9599 3.57343 36.1495 3.52419 36.2128 3.57343C36.3954 3.72818 37.1118 3.72818 37.758 3.58047C38.1092 3.50309 38.8818 3.32724 39.4789 3.18656C40.1953 3.02478 40.8204 2.92631 41.298 2.9052C41.6984 2.8841 42.0496 2.85596 42.0636 2.83486C42.0847 2.81376 43.0048 2.7997 44.1076 2.80673C46.1164 2.81376 46.1164 2.81376 45.7301 2.93334ZM50.717 3.64377C51.7004 3.68597 53.2175 3.77039 54.0885 3.82665C55.5705 3.93216 55.7602 3.9603 57.2211 4.31903C58.8226 4.7059 59.2229 4.82548 58.9771 4.83251C58.7172 4.84658 58.9981 5.02946 59.5179 5.18421C59.7918 5.26862 60.3116 5.43743 60.6558 5.54997C61.007 5.66252 61.4284 5.77506 61.59 5.78913C61.9552 5.8243 62.3485 5.94388 62.5733 6.08456C62.6997 6.16193 62.7208 6.20413 62.6576 6.28151C62.6014 6.35184 62.6365 6.40108 62.8121 6.51363C63.065 6.66837 64.4838 7.40694 64.6383 7.46321C64.6875 7.47728 64.7156 7.51245 64.6945 7.53355C64.6734 7.55466 64.4627 7.53355 64.2379 7.47728C63.662 7.34364 63.5988 7.34364 63.7884 7.51245L63.957 7.65313L63.7814 7.61797C63.6831 7.59686 63.2476 7.50542 62.8051 7.40694C61.8779 7.20296 61.8569 7.20296 62.1167 7.34364C62.2221 7.39991 62.6014 7.51245 62.9596 7.58279C63.7112 7.74458 64.3433 7.98373 64.3433 8.11034C64.3433 8.15254 64.266 8.22992 64.1677 8.27212C63.7884 8.44797 62.0676 7.91339 62.3836 7.71644C62.5171 7.63906 62.4117 7.55466 62.0254 7.44915C61.8498 7.39991 61.5338 7.2522 61.323 7.11855C61.0702 6.96381 60.7541 6.85126 60.3959 6.78092C60.0939 6.72465 59.7778 6.64024 59.6935 6.591C59.4898 6.4855 59.2159 6.2393 59.2159 6.16193C59.2159 6.12676 59.2861 6.10566 59.3774 6.11973C59.4968 6.1338 59.5249 6.11269 59.5109 6.00719C59.4898 5.8876 59.5179 5.88057 59.7567 5.91574L60.0236 5.95795L59.8199 5.84541C59.7076 5.78913 59.3353 5.71175 58.9981 5.68362C58.3449 5.63438 58.2045 5.57108 58.1342 5.30379C58.0991 5.16311 57.9446 5.08573 57.0244 4.78327C56.4344 4.58632 55.6829 4.36124 55.3598 4.27682C54.6715 4.10098 53.8778 3.99547 53.8778 4.07988C53.8778 4.10801 53.9199 4.13615 53.9691 4.13615C54.0182 4.14318 54.0042 4.17835 53.9269 4.23463C53.8145 4.31903 53.8286 4.3331 54.0674 4.38234C54.3835 4.43861 54.826 4.61446 54.7768 4.6637C54.7628 4.6848 54.1798 4.62149 53.4914 4.52302C52.0516 4.31903 51.8689 4.312 52.4027 4.48081L52.7891 4.60039L51.9813 4.64963C50.8575 4.71997 50.3096 4.71294 49.5651 4.62149C48.7995 4.53005 48.3219 4.4175 48.364 4.34717C48.3851 4.312 48.6309 4.26979 48.9189 4.24166C49.3123 4.20649 49.4808 4.21352 49.6353 4.29793C49.8039 4.38937 49.9023 4.38937 50.1411 4.32607C50.3026 4.28386 50.4361 4.22759 50.4361 4.19946C50.4361 4.17132 50.0638 4.07988 49.6143 3.99547C47.9496 3.68597 47.3807 3.48199 48.3711 3.53826C48.6731 3.55936 49.7337 3.6086 50.717 3.64377ZM11.0744 23.5147C10.8566 24.0001 10.6178 24.6331 10.5406 24.9075C10.372 25.5194 10.1262 26.0259 9.7258 26.6237C9.55723 26.8629 9.4308 27.0669 9.45187 27.0669C9.50806 27.0669 9.26222 27.8054 8.91805 28.6495C8.73543 29.1138 8.53174 29.7117 8.46853 29.9719C8.32103 30.5979 8.02603 31.224 7.62567 31.7374C7.41495 32.0118 7.26043 32.3142 7.16209 32.6378C7.00054 33.1653 7.02161 33.3201 7.20423 32.9965L7.31662 32.7996L7.27447 33.1513C7.21126 33.6507 6.41054 36.7878 6.32625 36.8722C6.21387 36.9848 6.24197 36.7738 6.39649 36.3095C6.57911 35.782 6.54399 35.585 6.3403 35.9789C6.25601 36.1477 6.1647 36.2814 6.14363 36.2814C6.08042 36.2814 6.18578 35.5147 6.27709 35.3177C6.3684 35.1067 6.27709 35.0082 6.14363 35.1841C6.05232 35.3177 6.0453 35.3107 6.03125 35.0786C6.00316 34.5088 6.1928 33.8476 6.60721 33.0528C6.74768 32.7855 6.76876 32.7996 6.74768 33.1864C6.74066 33.3201 6.75471 33.4115 6.77578 33.3904C6.82495 33.3412 7.23935 31.9625 7.21126 31.9414C7.19721 31.9274 7.134 32.0329 7.05673 32.1665C6.92328 32.4197 6.85304 32.4549 6.69852 32.3564C6.62828 32.3142 6.71256 31.9977 7.02161 31.0692C7.44305 29.7961 7.61162 29.4162 7.95579 28.9098C8.15245 28.6284 8.36317 28.5159 8.36317 28.6988C8.37019 28.7902 8.86889 27.6507 8.96722 27.3342C9.00937 27.1794 9.00937 27.1794 8.87591 27.292C8.79865 27.3623 8.69329 27.4186 8.63008 27.4186C8.46853 27.4186 8.32103 27.6296 8.18757 28.0305C8.07519 28.3822 7.94174 28.5229 7.94174 28.3049C7.94174 28.122 8.08222 27.8195 8.5177 27.0528C8.90401 26.3705 8.96722 26.3002 9.1077 26.3353C9.2833 26.3846 9.38865 26.2228 9.4308 25.8289C9.46592 25.5335 9.31139 25.5546 9.09365 25.8641C8.98127 26.0188 8.86889 26.1525 8.84782 26.1525C8.74948 26.1525 9.36056 24.5628 9.64854 24.0493C9.96461 23.4936 10.0981 23.3951 10.2877 23.5851C10.3931 23.6976 10.4141 23.6906 10.5406 23.5358C10.7443 23.2967 10.7091 23.4514 10.4633 23.8875C10.3439 24.0985 10.2666 24.2814 10.2807 24.2955C10.3439 24.3588 10.66 23.9086 10.962 23.3318C11.2851 22.6988 11.3834 22.544 11.4326 22.5933C11.4537 22.6073 11.2851 23.0223 11.0744 23.5147ZM5.72922 36.9144C5.78542 36.9988 5.70815 37.5545 5.62387 37.6952C5.51149 37.864 5.48339 37.7233 5.52553 37.2802C5.5747 36.8652 5.63089 36.7597 5.72922 36.9144ZM4.71077 39.5873C4.83017 40.5369 4.9566 41.4373 4.99172 41.592C5.06898 41.9156 5.06898 43.5053 4.99172 44.1242C4.9566 44.4197 4.93553 44.1172 4.92851 43.1043C4.91446 41.2474 4.82315 41.0504 4.47898 42.1547C4.38064 42.4642 4.2191 43.0973 4.12076 43.5615C4.0154 44.0258 3.91707 44.4337 3.90302 44.4759C3.77659 44.7503 4.07159 40.8042 4.25422 39.728C4.31041 39.4045 4.33148 39.1231 4.29636 39.095C4.26826 39.0739 4.26826 38.8136 4.29636 38.5182C4.34553 38.0258 4.40874 37.7796 4.46493 37.8429C4.47898 37.857 4.59136 38.6448 4.71077 39.5873ZM5.26565 47.0926C5.30779 47.2051 5.39208 47.5076 5.44827 47.7819C5.51149 48.0492 5.65196 48.5486 5.76434 48.8792C5.98208 49.5123 6.14363 50.7714 5.99613 50.6799C5.95399 50.6518 5.90482 50.49 5.89077 50.3212C5.8697 50.1383 5.75732 49.8499 5.61684 49.6318C5.41315 49.3013 5.38506 49.2028 5.39208 48.8159C5.3991 48.4994 5.37803 48.3798 5.32184 48.4009C5.27267 48.415 5.23053 48.5275 5.21648 48.6471C5.18839 48.9355 5.09005 48.9355 5.03386 48.6541C4.97767 48.3587 4.97767 47.0082 5.04089 46.9519C5.12517 46.8605 5.18839 46.9027 5.26565 47.0926ZM2.45611 51.5803V51.7209L2.39289 51.5803C2.35777 51.5029 2.32968 51.3903 2.32968 51.3341C2.32265 51.2426 2.32968 51.2426 2.39289 51.3341C2.42801 51.3903 2.45611 51.5029 2.45611 51.5803ZM6.35435 56.089C6.41756 56.1172 6.46673 56.2156 6.46673 56.3282C6.46673 56.6377 6.34732 56.6377 6.27006 56.3282C6.23494 56.1734 6.21387 56.0468 6.22089 56.0468C6.23494 56.0468 6.29113 56.0679 6.35435 56.089ZM7.43602 58.8745C7.67483 59.388 8.04007 60.218 8.25781 60.7244C8.47555 61.2238 8.85484 62.0327 9.1077 62.511C9.35353 62.9893 9.55723 63.4184 9.55723 63.4747C9.55723 63.7068 9.41675 63.5239 8.99532 62.7572C8.74246 62.3071 8.53174 61.9694 8.52472 62.0046C8.44043 62.2578 9.97163 64.8956 10.2104 64.9167C10.2596 64.9237 10.3369 64.9307 10.386 64.9378C10.4352 64.9378 10.5687 65.1066 10.681 65.3106C10.8566 65.613 10.8707 65.6763 10.7794 65.7115C10.7162 65.7326 10.6178 65.7256 10.5546 65.6904C10.372 65.5919 9.67663 64.8393 9.49401 64.5368C9.24115 64.1289 9.24115 64.2766 9.48699 64.7689C9.60639 65.0081 9.66961 65.1839 9.62746 65.1558C9.52211 65.0925 9.2833 64.5931 8.6652 63.1933C8.05412 61.7936 7.85745 61.3223 7.90662 61.3223C7.92769 61.3223 8.00495 61.4489 8.08222 61.6107C8.1665 61.7725 8.25079 61.885 8.26484 61.8639C8.28591 61.8428 8.0471 61.2168 7.73805 60.4642C7.26745 59.3247 6.88816 58.2203 6.88816 58.0023C6.88816 57.7912 7.06376 58.0726 7.43602 58.8745ZM16.8199 69.756C16.9323 69.8686 16.9814 69.9741 16.9463 70.0022C16.8691 70.0515 16.4406 69.7209 16.4406 69.6153C16.4406 69.4887 16.6302 69.5591 16.8199 69.756Z" fill="#0B3B8D"/>
<path d="M33.5438 5.29673C33.2559 5.42335 33.5228 5.43038 33.8599 5.29673C34.0776 5.21233 34.0847 5.19826 33.9301 5.19826C33.8318 5.19826 33.6632 5.24046 33.5438 5.29673Z" fill="#0B3B8D"/>
<path d="M28.9993 7.05505C28.613 7.25904 28.5217 7.37158 28.7464 7.37158C28.8378 7.37158 29.0344 7.25904 29.189 7.12539C29.5191 6.84403 29.4559 6.8159 28.9993 7.05505Z" fill="#0B3B8D"/>
<path d="M26.6954 8.08193C26.3302 8.22964 25.965 8.35625 25.8877 8.35625C25.7613 8.35625 23.9561 9.24253 23.9561 9.30584C23.9561 9.31991 24.0193 9.31287 24.0966 9.29177C24.3565 9.22143 24.2371 9.38321 23.7595 9.74898C23.2748 10.1147 23.1273 10.171 23.0009 10.0444C22.9517 9.99517 22.7831 10.0796 22.4952 10.2976C22.2564 10.4735 22.0597 10.6353 22.0597 10.6493C22.0597 10.6986 22.3266 10.5438 22.3758 10.4664C22.453 10.3398 22.5584 10.3961 22.5162 10.5368C22.453 10.7267 22.4952 10.7197 22.8815 10.4383C23.3661 10.0936 23.619 9.9811 23.8157 10.0163C23.9351 10.0444 24.1388 9.96 24.4619 9.77008C24.7217 9.6083 24.9465 9.48169 24.9676 9.48169C24.9886 9.48169 25.1572 9.37618 25.3398 9.24957C25.5295 9.11592 26.0282 8.79939 26.4566 8.54617C27.7841 7.75133 27.8544 7.60362 26.6954 8.08193Z" fill="#0B3B8D"/>
<path d="M16.8973 14.877C16.6163 15.0247 16.3705 15.2498 16.3705 15.3694C16.3705 15.5312 16.4688 15.4749 16.827 15.1091C17.2063 14.7222 17.2063 14.7082 16.8973 14.877Z" fill="#0B3B8D"/>
<path d="M14.797 17.0925C14.6987 17.2191 14.6354 17.3317 14.6565 17.3528C14.6846 17.3879 14.8462 17.205 14.9726 16.987C15.085 16.79 14.9866 16.8463 14.797 17.0925Z" fill="#0B3B8D"/>
<path d="M50.7874 4.4173C50.7874 4.45247 50.9208 4.48764 51.0894 4.4806C51.3422 4.47357 51.3563 4.46653 51.2088 4.4173C50.9559 4.33289 50.7874 4.33289 50.7874 4.4173Z" fill="#0B3B8D"/>
<path d="M61.9902 6.71029C62.1377 6.86504 62.7769 7.13233 62.8471 7.06199C62.8752 7.04088 61.934 6.52741 61.8638 6.52741C61.8357 6.52741 61.8989 6.61181 61.9902 6.71029Z" fill="#0B3B8D"/>
<path d="M9.78207 25.4629C9.5854 25.7795 9.38873 26.293 9.44493 26.3422C9.466 26.3633 9.59945 26.1382 9.73993 25.8428C9.99981 25.266 10.0279 25.069 9.78207 25.4629Z" fill="#0B3B8D"/>
<path d="M50.8574 0.450164C50.759 0.499401 50.4711 0.562707 50.2182 0.590843C49.9583 0.611945 49.7055 0.661183 49.6563 0.696352C49.4526 0.822964 49.6914 0.844066 50.3306 0.759658C50.6958 0.71042 51.1102 0.689318 51.2437 0.71042C51.5176 0.752624 51.5106 0.696352 51.2226 0.492367C51.0611 0.379824 51.0119 0.37279 50.8574 0.450164Z" fill="#0B3B8D"/>
<path d="M36.9503 0.830021C34.0073 1.32943 31.8931 1.79367 31.8931 1.94842C31.8931 1.97656 31.9634 2.03986 32.0547 2.07503C32.2022 2.14537 32.1881 2.15944 31.8229 2.33529C31.3453 2.56038 31.2259 2.56741 31.3312 2.38453C31.5138 2.03986 30.8817 2.17351 30.3619 2.58851C30.1723 2.74326 29.9897 2.86987 29.9616 2.86987C29.8913 2.86987 28.9431 3.49589 28.9431 3.54513C28.9431 3.58734 29.1609 3.47479 29.4769 3.25674C29.7298 3.08792 30.4603 2.89097 30.5446 2.97538C30.5726 3.00352 30.4813 3.11606 30.3479 3.2286C30.2144 3.33411 30.1301 3.43259 30.1582 3.43259C30.2636 3.43259 30.6218 3.22157 30.678 3.12309C30.7061 3.07386 31.0222 2.94021 31.3663 2.8347C31.7175 2.73623 32.3497 2.4619 32.7711 2.23681C33.8879 1.653 35.0679 1.3013 35.686 1.37164C35.9319 1.39977 36.1988 1.3435 36.8801 1.11841C37.8072 0.815953 38.5166 0.689342 38.5939 0.815953C38.615 0.858157 38.5026 0.907395 38.3059 0.935531C37.6808 1.02697 36.2479 1.54045 36.2479 1.66706C36.2479 1.6952 36.5359 1.64596 36.8941 1.55452C37.2523 1.46308 37.9688 1.33647 38.4956 1.27316C39.0153 1.20986 39.4578 1.14655 39.4719 1.13248C39.4929 1.11841 39.4368 1.06214 39.3525 0.998837C39.1558 0.858157 39.1558 0.787818 39.3806 0.583833C39.4929 0.478323 39.5281 0.407984 39.4719 0.415017C39.4157 0.415017 38.2848 0.604934 36.9503 0.830021Z" fill="#0B3B8D"/>
<path d="M40.8834 0.548679C40.8062 0.597917 40.8483 0.619019 41.045 0.619019C41.1855 0.619019 41.3049 0.583849 41.3049 0.548679C41.3049 0.457237 41.0239 0.457237 40.8834 0.548679Z" fill="#0B3B8D"/>
<path d="M34.0708 1.95523C34.0144 1.99052 34.0003 2.02582 34.0356 2.02582C34.0779 2.02582 34.1554 1.99052 34.2118 1.95523C34.2682 1.91993 34.2893 1.88463 34.247 1.88463C34.2118 1.88463 34.1272 1.91993 34.0708 1.95523Z" fill="#0B3B8D"/>
<path d="M44.6413 5.19819C44.5641 5.22632 44.3744 5.25446 44.2269 5.25446C44.0162 5.26149 43.967 5.2826 44.0232 5.33887C44.1145 5.43031 44.8872 5.35997 44.8872 5.26149C44.8872 5.16302 44.7888 5.13488 44.6413 5.19819Z" fill="#0B3B8D"/>
<path d="M58.5697 7.35063C58.6189 7.37178 58.6823 7.36473 58.7034 7.34359C58.7316 7.32244 58.6893 7.30129 58.6119 7.30834C58.5345 7.30834 58.5133 7.32949 58.5697 7.35063Z" fill="#0B3B8D"/>
<path d="M34.0285 7.59659L33.8949 7.75861L34.0567 7.62477C34.2044 7.49797 34.2466 7.44162 34.1903 7.44162C34.1763 7.44162 34.1059 7.51206 34.0285 7.59659Z" fill="#0B3B8D"/>
<path d="M58.4363 7.93441C58.6119 8.01179 58.8015 8.06806 58.8577 8.05399C58.9912 8.01882 58.654 7.87111 58.3379 7.82187C58.1623 7.79373 58.1764 7.81484 58.4363 7.93441Z" fill="#0B3B8D"/>
<path d="M17.6558 9.7702C17.2765 10.1008 17.1571 10.2837 17.4661 10.0656C17.6979 9.89681 18.1053 9.48181 18.0351 9.48181C18.014 9.48181 17.8454 9.61545 17.6558 9.7702Z" fill="#0B3B8D"/>
<path d="M73.5447 9.93903C73.5447 9.9742 74.1487 10.3962 74.2049 10.3962C74.3243 10.3962 74.212 10.2696 73.938 10.0938C73.643 9.9109 73.5447 9.86869 73.5447 9.93903Z" fill="#0B3B8D"/>
<path d="M16.6863 10.544C16.2929 10.9449 16.4475 10.9027 16.9321 10.4736C17.1217 10.3048 17.206 10.1852 17.1428 10.1852C17.0796 10.1852 16.8759 10.347 16.6863 10.544Z" fill="#0B3B8D"/>
<path d="M12.8868 14.0047C12.381 14.5534 11.8753 15.1161 11.7629 15.2497C11.5874 15.4748 11.5803 15.4819 11.7349 15.3553C11.8332 15.2779 12.072 15.0669 12.2757 14.884C12.4724 14.6941 12.7041 14.5463 12.7744 14.5463C12.95 14.5463 13.3433 14.068 13.6243 13.4983C13.7507 13.2591 13.842 13.0481 13.828 13.034C13.8139 13.02 13.3925 13.4561 12.8868 14.0047Z" fill="#0B3B8D"/>
<path d="M17.9998 16.5581C17.6908 16.8254 17.6346 16.9379 17.8172 16.9379C17.8945 16.9379 17.9156 16.9801 17.8734 17.0927C17.8242 17.2474 17.8313 17.2474 17.9928 17.1279C18.2316 16.952 18.5898 16.7973 18.7514 16.7973C18.8919 16.7973 19.0043 16.6144 18.9059 16.5511C18.8708 16.537 18.7022 16.5722 18.5196 16.6355C18.1473 16.7762 18.0631 16.7339 18.2246 16.4807C18.3791 16.2486 18.344 16.2556 17.9998 16.5581Z" fill="#0B3B8D"/>
<path d="M10.1823 17.0296C9.79601 17.5149 9.83112 17.5923 10.2174 17.114C10.3649 16.9381 10.4563 16.7974 10.4211 16.7974C10.393 16.7974 10.2807 16.9029 10.1823 17.0296Z" fill="#0B3B8D"/>
<path d="M8.26502 21.1583C8.16668 21.313 8.0824 21.4466 8.0824 21.4677C8.0824 21.4818 8.19478 21.4396 8.32823 21.3763C8.51788 21.2919 8.56704 21.2216 8.57407 21.0668C8.57407 20.7995 8.48276 20.8277 8.26502 21.1583Z" fill="#0B3B8D"/>
<path d="M13.9611 21.9461C13.3571 22.952 13.2096 23.2544 13.2096 23.4584C13.2096 23.6554 13.3992 23.4232 13.919 22.5932C14.221 22.1008 14.4037 21.7491 14.3756 21.6788C14.3545 21.6225 14.3966 21.4467 14.4809 21.2849C14.5582 21.1302 14.6073 20.9895 14.5933 20.9754C14.5792 20.9543 14.2913 21.3974 13.9611 21.9461Z" fill="#0B3B8D"/>
<path d="M83.8416 26.7435C83.9118 26.9194 83.9259 27.0319 83.8767 27.0601C83.8346 27.0882 83.9048 27.2219 84.0453 27.3836C84.1717 27.5384 84.2981 27.6439 84.3262 27.6158C84.3824 27.5595 84.0593 26.8983 83.8486 26.631C83.7362 26.4763 83.7292 26.4763 83.8416 26.7435Z" fill="#0B3B8D"/>
<path d="M85.7731 27.0316C85.7872 27.0667 85.8996 27.2918 86.019 27.5239C86.4263 28.3117 87.2271 30.5134 87.1077 30.5134C87.0304 30.5134 86.7494 30.1969 86.7494 30.1124C86.7494 29.8381 86.0119 27.7139 85.9347 27.7842C85.9276 27.7983 86.0541 28.2695 86.2227 28.8252C86.5598 29.9366 86.6652 30.443 86.5528 30.443C86.5177 30.443 86.4123 30.2602 86.321 30.0351C86.2297 29.817 86.1454 29.6834 86.1313 29.7396C86.1103 29.8733 86.904 31.3434 86.9461 31.2308C86.9602 31.1816 86.925 30.9987 86.8618 30.8158C86.7284 30.429 86.7213 30.3446 86.8267 30.4149C86.9391 30.4852 87.2692 31.2308 87.4448 31.8147C87.5572 32.1945 87.6274 32.3281 87.7679 32.3915C87.8662 32.4337 87.9435 32.4477 87.9435 32.4126C87.9435 32.3844 87.8522 32.1312 87.7328 31.8498C87.6204 31.5685 87.5221 31.3082 87.5221 31.266C87.5221 31.1042 87.7398 31.3997 87.8662 31.7514C87.9435 31.9553 88.0699 32.1875 88.1472 32.2648C88.2174 32.3352 88.2947 32.4407 88.3087 32.4899C88.3298 32.5462 88.372 32.5673 88.4 32.5392C88.5967 32.3563 87.1568 29.0011 86.3421 27.7209C86.026 27.2285 85.6818 26.8135 85.7731 27.0316Z" fill="#0B3B8D"/>
<path d="M84.7125 27.8687C84.7125 27.946 85.2955 28.973 85.3236 28.9449C85.3658 28.8956 84.8319 27.8405 84.7687 27.8405C84.7406 27.8405 84.7125 27.8546 84.7125 27.8687Z" fill="#0B3B8D"/>
<path d="M84.8949 28.8252C84.9371 29.0714 85.0284 29.2332 85.0916 29.1699C85.1127 29.1558 85.0635 29.0151 84.9862 28.8604L84.8528 28.579L84.8949 28.8252Z" fill="#0B3B8D"/>
<path d="M83.3499 30.7453C83.371 30.8157 83.4132 30.851 83.4344 30.8298C83.4555 30.8087 83.4344 30.7523 83.3851 30.703C83.3147 30.6395 83.3076 30.6466 83.3499 30.7453Z" fill="#0B3B8D"/>
<path d="M84.27 31.2097C84.4104 31.4489 84.5369 31.6247 84.5579 31.6107C84.6071 31.5614 84.1927 30.844 84.1014 30.8088C84.0522 30.7947 84.1295 30.9776 84.27 31.2097Z" fill="#0B3B8D"/>
<path d="M83.6591 30.9779C83.6591 31.1116 83.8276 31.4633 84.6494 33.0459C84.825 33.3765 85.0006 33.7352 85.0498 33.8548C85.127 34.0518 85.127 34.0377 85.106 33.679C85.0849 33.4679 85.0357 33.1233 84.9936 32.9193C84.9304 32.6309 84.8812 32.5535 84.7759 32.5535C84.6775 32.5535 84.5511 32.3706 84.2842 31.829C84.0945 31.4351 83.8698 31.0483 83.7925 30.9709C83.6591 30.8372 83.6591 30.8372 83.6591 30.9779Z" fill="#0B3B8D"/>
<path d="M86.4684 31.5474C86.4684 31.6811 87.0373 33.2708 87.1918 33.5873C87.3745 33.953 87.7116 35.4513 87.7818 36.2461C87.831 36.7807 88.0487 37.259 88.1752 37.1324C88.2173 37.0902 88.3157 37.055 88.3859 37.055C88.5264 37.055 88.5264 37.0972 88.3859 36.3165C88.3157 35.9648 88.4561 36.1828 88.7511 36.9073C88.9057 37.2871 89.0672 37.5966 89.1023 37.6037C89.2428 37.6248 89.1726 36.4009 88.9689 35.388C88.7862 34.4595 88.7582 34.3962 88.6387 34.4736C88.5474 34.5298 88.5053 34.6564 88.4912 34.9378L88.4702 35.3247L88.2033 34.9167C87.9855 34.5931 87.9083 34.3681 87.7678 33.6858C87.6133 32.9331 87.3534 32.279 87.1637 32.1664C87.0654 32.1031 87.0865 32.3634 87.2059 32.6447C87.3323 32.9472 87.3464 33.109 87.241 33.0035C87.1989 32.9613 87.0443 32.6166 86.9039 32.2368C86.7564 31.8569 86.6018 31.5334 86.5527 31.5123C86.5105 31.4982 86.4684 31.5123 86.4684 31.5474Z" fill="#0B3B8D"/>
<path d="M1.45885 36.8229C1.4448 36.8581 1.40968 36.9988 1.38158 37.1394C1.33944 37.3575 1.35349 37.4067 1.4448 37.4067C1.52206 37.4067 1.55016 37.3294 1.55016 37.0902C1.55016 36.7877 1.52206 36.7104 1.45885 36.8229Z" fill="#0B3B8D"/>
<path d="M88.2665 38.6166C88.2735 39.4326 88.4069 40.1078 88.6106 40.354C88.8635 40.6565 88.9197 41.4865 88.6879 41.4865C88.6247 41.4865 88.6247 41.6623 88.7019 42.2251C88.7652 42.6541 88.8354 42.9425 88.8775 42.9144C88.9127 42.8933 88.9267 42.7385 88.8986 42.5697C88.8775 42.3868 88.8846 42.2602 88.9267 42.2602C89.011 42.2602 88.997 42.1195 89.0602 43.3716C89.1023 44.082 89.1515 44.4759 89.2077 44.5322C89.2779 44.6025 89.2849 44.497 89.2428 44.0187C89.2147 43.6881 89.1866 42.5697 89.1726 41.5357C89.1445 39.4396 89.0883 39.102 88.723 38.8277C88.5966 38.7362 88.4772 38.5463 88.3999 38.3212C88.3367 38.1313 88.2805 37.9695 88.2735 37.9695C88.2665 37.9695 88.2594 38.2649 88.2665 38.6166Z" fill="#0B3B8D"/>
<path d="M7.21829 40.2695C7.19722 40.2977 7.1621 40.6212 7.134 40.98C7.09186 41.4442 7.10591 41.6271 7.1621 41.6271C7.21126 41.6271 7.23936 41.4653 7.24638 41.1839L7.25341 40.7478L7.35174 41.0292L7.45008 41.3105L7.41496 40.8252C7.38686 40.368 7.30257 40.1359 7.21829 40.2695Z" fill="#0B3B8D"/>
<path d="M86.2297 48.7525C86.1946 49.2097 86.1876 49.5966 86.2016 49.6177C86.2718 49.6881 86.3842 48.4782 86.3351 48.2039C86.2929 47.9788 86.2718 48.0843 86.2297 48.7525Z" fill="#0B3B8D"/>
<path d="M0.946056 49.1182C1.00927 49.491 1.1357 49.8779 1.17784 49.8286C1.22701 49.7794 1.05141 48.9916 0.967128 48.9072C0.924985 48.865 0.917961 48.9353 0.946056 49.1182Z" fill="#0B3B8D"/>
<path d="M5.41321 64.3891C5.41321 64.4313 5.52559 64.8463 5.65904 65.3035C5.9119 66.1546 6.58619 67.6317 6.79691 67.8076C6.86715 67.8568 6.83203 67.7583 6.71965 67.5614C6.49488 67.1816 6.50893 67.0479 6.74072 67.3433C6.9725 67.6388 6.90929 67.4559 6.56512 66.8088C6.3825 66.4782 6.05238 65.7818 5.82762 65.2613C5.60285 64.7408 5.41321 64.3469 5.41321 64.3891Z" fill="#0B3B8D"/>
<path d="M11.1727 64.6143C11.1727 64.6635 11.2219 64.8183 11.2781 64.9589C11.3975 65.2473 11.4115 65.3599 11.3132 65.2966C11.1657 65.2051 11.25 65.4021 11.545 65.8241C11.7065 66.0633 11.8751 66.3095 11.9102 66.3728C11.9524 66.4361 12.0858 66.6471 12.2052 66.837C12.6337 67.4912 12.5915 67.8569 12.142 67.4982C11.7627 67.2028 11.8611 67.3645 12.5002 68.1031C13.0481 68.7291 13.2939 68.898 12.8093 68.3071C12.2474 67.6248 12.2544 67.6248 13.7013 68.7362C14.5301 69.3692 14.8041 69.524 14.502 69.1934C14.4318 69.109 14.186 68.898 13.9612 68.7291C13.7364 68.5533 13.5679 68.3774 13.5819 68.3352C13.596 68.293 13.4274 68.0117 13.2096 67.7162C12.9849 67.4138 12.4651 66.6049 12.0507 65.9156C11.2359 64.5791 11.1727 64.4806 11.1727 64.6143Z" fill="#0B3B8D"/>
<path d="M7.66071 67.9695C7.66071 67.9906 7.70987 68.1242 7.76606 68.2649C7.92059 68.6377 7.89249 68.708 7.70285 68.4056C7.47809 68.0398 7.45701 68.0328 7.48511 68.3141C7.52725 68.7924 8.1313 70.1852 8.49654 70.6705L8.67917 70.9167L8.71428 70.6494L8.7494 70.3821L9.48691 71.2754C9.99263 71.8803 10.2947 72.3235 10.4492 72.6681C10.7161 73.259 10.7442 73.4208 10.5616 73.2731C10.3087 73.062 10.6037 73.463 11.0673 73.9694C11.3623 74.286 11.8399 74.6728 12.3878 75.0456C12.8584 75.3622 13.4203 75.7701 13.631 75.946C13.9471 76.2203 13.9892 76.2344 13.8628 76.0585C13.7785 75.9389 13.6169 75.749 13.4905 75.6365C13.2166 75.3762 13.0901 75.1652 13.2376 75.2215C13.3149 75.2496 13.329 75.2215 13.3079 75.0949C13.2728 74.9542 13.3009 74.9683 13.4694 75.1793C13.5748 75.3129 13.8628 75.6505 14.1086 75.9249C14.523 76.4102 14.6705 76.6353 14.4387 76.4454C14.3825 76.3961 14.3334 76.375 14.3334 76.3961C14.3334 76.4595 15.415 77.4864 16.0542 78.021C16.6583 78.5345 16.9181 78.6963 16.7145 78.436C16.6021 78.2953 16.567 78.2672 17.4309 78.8932C17.9647 79.2801 19.0815 79.8709 19.1447 79.8076C19.1939 79.7654 18.7514 79.4841 17.8453 78.9776C16.869 78.436 16.1455 77.8592 15.5555 77.1699C15.2043 76.7619 15.1903 76.6705 15.4853 76.8041C15.71 76.9096 15.7733 76.8604 15.6749 76.6705C15.5977 76.5298 14.235 75.3903 14.1437 75.3903C14.1156 75.3903 14.1859 75.4817 14.2983 75.6013C14.4106 75.7139 14.4738 75.8334 14.4458 75.8616C14.4247 75.8897 14.0313 75.5239 13.5748 75.0527C13.1253 74.5814 12.7038 74.1945 12.6406 74.1945C12.5142 74.1945 11.1656 72.2813 10.5264 71.184C10.2947 70.7901 10.0769 70.4665 10.0418 70.4665C9.95048 70.4665 9.96453 70.5157 10.105 70.7338L10.2244 70.9237L10.0067 70.769C9.65548 70.5228 9.29726 70.0796 9.06548 69.6224C8.80559 69.1019 8.59488 69.0245 8.78452 69.5169C8.91798 69.8686 8.72833 69.6154 8.22261 68.7784C7.75202 67.9976 7.66071 67.871 7.66071 67.9695Z" fill="#0B3B8D"/>
<path d="M14.8111 69.7695C14.8462 70.002 14.8673 70.0161 15.001 69.8752C15.0784 69.7977 15.0854 69.7625 15.015 69.7132C14.8111 69.5512 14.7829 69.5582 14.8111 69.7695Z" fill="#0B3B8D"/>
<path d="M16.4476 70.7621C16.6442 70.9309 16.8339 71.3951 16.7566 71.5147C16.7355 71.5569 16.8339 71.6484 16.9814 71.7257C17.1289 71.7961 17.3607 71.979 17.4941 72.1126C17.7259 72.3588 17.7329 72.3658 17.5644 72.3518C17.0516 72.2955 17.5714 73.0833 18.5126 73.7867C20.0648 74.9473 21.7576 75.8265 24.7989 77.0575C25.7331 77.4373 26.1686 77.6483 26.3442 77.8171C26.6532 78.1126 27.5312 78.6612 28.6269 79.238C29.5892 79.7444 29.5189 79.8148 28.4162 79.442C28.0299 79.3083 27.6998 79.2169 27.6857 79.231C27.6717 79.245 28.051 79.442 28.5286 79.6741L29.3995 80.0891L29.6173 79.9555C29.7367 79.8781 29.8912 79.8218 29.9544 79.8218C30.123 79.8218 31.0501 80.3001 31.0501 80.3916C31.0501 80.4338 31.008 80.4549 30.9588 80.4338C30.9026 80.4127 30.6779 80.3775 30.4461 80.3494L30.0317 80.3072L30.2073 80.4478C30.432 80.6307 30.9729 80.7995 31.4646 80.8417L31.8579 80.8769L31.5699 80.7433C31.2117 80.5815 31.1625 80.5041 31.2749 80.3212C31.3873 80.1384 31.2819 80.0188 30.7762 79.7796C30.5585 79.6741 30.418 79.5756 30.4601 79.5616C30.6849 79.4842 32.6165 80.1243 33.066 80.4267C33.1643 80.483 33.2205 80.5815 33.1994 80.6307C33.1503 80.7644 33.7473 80.9824 34.7377 81.2005C35.1661 81.2919 35.7983 81.4326 36.1424 81.51C36.4936 81.5873 36.9993 81.7632 37.2733 81.8968C37.6526 82.0868 37.8633 82.143 38.1864 82.1501C38.7132 82.1641 39.4226 82.0164 39.3875 81.9109C39.3734 81.8617 39.1416 81.7562 38.8747 81.6718C38.5446 81.5733 38.4533 81.517 38.5867 81.517C38.6921 81.51 38.7764 81.4748 38.7764 81.4396C38.7764 81.3552 38.3058 81.3482 38.2707 81.4326C38.2636 81.4678 37.9195 81.3834 37.5121 81.2568C36.6552 80.9824 36.7324 80.9965 36.7535 81.102C36.7886 81.2779 35.419 81.1301 34.843 80.898C34.7658 80.8699 34.7868 80.8417 34.9133 80.8066C35.0608 80.7644 35.0186 80.7433 34.6674 80.6729C33.958 80.5323 33.08 80.2439 33.0449 80.1384C33.0238 80.0821 32.8272 80.0047 32.6094 79.9625C32.3847 79.9203 31.879 79.7867 31.4716 79.6671C31.0642 79.5475 30.6779 79.435 30.6147 79.4209C30.4391 79.3716 30.4601 79.2591 30.6498 79.2521C30.7341 79.2521 30.5304 79.1606 30.2003 79.0481C29.8631 78.9355 29.2801 78.6894 28.9008 78.4994C28.2055 78.1477 26.9623 77.367 26.878 77.2263C26.8499 77.1911 26.7867 77.17 26.7305 77.1911C26.5268 77.2685 25.6418 76.6003 25.6418 76.3752C25.6418 76.3048 25.5786 76.2275 25.5013 76.1993C25.3117 76.136 24.6444 75.6366 23.5697 74.7574C22.769 74.0962 21.9332 73.4913 21.8138 73.4913C21.7927 73.4913 21.294 73.2662 20.704 72.9918C19.531 72.4432 18.3651 71.8172 17.178 71.1067C16.3141 70.5862 16.1807 70.5229 16.4476 70.7621Z" fill="#0B3B8D"/>
<path d="M76.9582 76.5577C76.5859 76.9657 76.3401 77.1486 76.4665 76.9164C76.5859 76.7125 76.2769 77.0853 75.9608 77.5354C75.5534 78.1192 75.6377 78.063 76.7264 77.0431C77.1408 76.6562 77.4779 76.3045 77.4779 76.2553C77.4779 76.0653 77.3515 76.1357 76.9582 76.5577Z" fill="#0B3B8D"/>
<path d="M22.5163 76.579L22.3055 76.6212L22.5865 76.8322C22.741 76.9518 23.015 77.1909 23.1976 77.3738C23.3802 77.5496 23.7314 77.7958 23.9702 77.9084C24.216 78.0279 24.6656 78.239 24.9746 78.3867C25.2837 78.5274 25.4944 78.661 25.4452 78.6821C25.396 78.6962 25.2626 78.668 25.1432 78.6258C24.6375 78.4148 24.9465 78.654 25.9018 79.2026C27.6507 80.2225 28.4374 80.5672 28.6059 80.3984C28.6972 80.307 29.2381 80.5602 29.6455 80.8767C29.7789 80.9822 30.102 81.1159 30.3549 81.1792C30.6148 81.2425 31.2469 81.4605 31.7596 81.6575C34.527 82.7126 34.9906 82.8532 35.2645 82.7055C35.3488 82.6633 35.405 82.6141 35.391 82.6C35.384 82.586 34.9415 82.4734 34.4217 82.3538C33.1223 82.0373 33.1433 82.0443 33.2417 81.8263C33.3681 81.552 33.2487 81.4957 32.448 81.4746C31.4998 81.4535 30.8957 81.2495 28.9642 80.314C27.7771 79.7372 27.4751 79.5614 27.2644 79.3152C27.1239 79.1534 26.9905 78.9705 26.9624 78.9002C26.9132 78.7665 25.4944 78.0491 25.0097 77.9154C24.7147 77.831 23.4153 77.0713 22.9377 76.7056C22.7832 76.579 22.6708 76.5508 22.5163 76.579Z" fill="#0B3B8D"/>
<path d="M15.1765 77.8308C15.7805 78.3724 16.525 79.125 16.82 79.4978C16.9886 79.7159 17.4662 80.0113 17.5365 79.941C17.5435 79.9339 17.3538 79.7581 17.101 79.5541C16.8552 79.3501 16.6515 79.1532 16.6515 79.118C16.6515 79.0828 16.7217 79.0476 16.806 79.0336C16.9394 79.0195 16.8411 78.907 16.23 78.3583C15.8297 77.9996 15.4644 77.7182 15.4223 77.7323C15.3872 77.7464 15.2186 77.669 15.057 77.5635C14.5724 77.2259 14.6216 77.3314 15.1765 77.8308Z" fill="#0B3B8D"/>
<path d="M75.1179 77.9363C74.7527 78.2036 74.0363 78.9351 74.0363 79.0336C74.0363 79.0828 74.0854 79.2235 74.1486 79.336C74.2751 79.5822 74.3453 79.5541 74.6824 79.0899C74.9353 78.7452 74.9423 78.5975 74.7035 78.6397C74.6052 78.6608 74.5279 78.6538 74.5279 78.6186C74.5279 78.5482 74.8721 78.3021 75.0547 78.2458C75.2022 78.2036 75.4972 77.7816 75.3848 77.7816C75.3497 77.7816 75.2303 77.8519 75.1179 77.9363Z" fill="#0B3B8D"/>
<path d="M24.3214 78.8508C24.4268 78.9423 24.7077 79.1181 24.9535 79.2447C25.3469 79.4558 25.375 79.4628 25.1853 79.301C25.0729 79.2025 24.785 79.0197 24.5532 78.9001C24.195 78.7172 24.1598 78.7102 24.3214 78.8508Z" fill="#0B3B8D"/>
<path d="M17.789 80.1873C17.8101 80.2366 17.9997 80.4194 18.2245 80.5883C18.4422 80.75 18.9269 81.1721 19.2992 81.5167C19.7206 81.9106 19.9945 82.1217 20.0226 82.0724C20.0929 81.9599 20.4721 82.1639 21.6662 82.9517C22.2141 83.3104 23.0639 83.8169 23.5697 84.0841C24.244 84.4358 24.4406 84.5695 24.3493 84.6047C24.251 84.6398 24.3985 84.7313 24.8972 84.9423C25.2765 85.1041 25.6417 85.2377 25.7119 85.2377C25.7822 85.2377 26.3441 85.4839 26.9622 85.7864C27.5803 86.0959 28.3529 86.4476 28.676 86.5742C28.9921 86.7008 29.3854 86.8626 29.5399 86.9259C30.0878 87.165 32.8622 88.0583 34.1195 88.403C37.0976 89.2119 40.6868 89.7887 43.5174 89.9153C44.0231 89.9364 44.7817 89.9716 45.2031 89.9927C46.046 90.0278 46.1233 89.9294 45.3085 89.845C45.0486 89.8168 44.7958 89.7676 44.7396 89.7324C44.6834 89.6973 44.6764 89.6691 44.7115 89.6691C44.9081 89.6621 44.5359 89.5284 44.3181 89.5284C43.8897 89.5284 43.4121 89.444 43.4121 89.3667C43.4121 89.3245 43.7562 89.3104 44.3954 89.3385C44.9643 89.3596 45.3787 89.3456 45.3787 89.3104C45.3787 89.2752 45.3506 89.2471 45.3155 89.2471C45.2804 89.2471 45.154 89.1627 45.0346 89.0642C44.7115 88.7899 43.981 88.7617 42.7729 88.9657C42.0705 89.0853 41.6561 89.1134 41.1434 89.0923C40.7711 89.0712 40.441 89.0361 40.4129 89.0079C40.3848 88.9868 40.4269 88.9235 40.4972 88.8672C40.6236 88.7758 40.6166 88.7617 40.3567 88.6914C40.2022 88.6492 39.8299 88.5789 39.5279 88.5366C39.2258 88.5015 38.7201 88.3889 38.4041 88.2834C37.9686 88.1498 37.7438 88.1146 37.4699 88.1427C37.1538 88.1779 37.0976 88.1638 37.0695 88.0443C37.0414 87.9458 36.9712 87.9106 36.7956 87.9106C36.5146 87.9106 34.3864 87.4816 33.6489 87.2776C33.3609 87.2002 32.7077 87.0243 32.209 86.8907C31.7033 86.7571 30.7902 86.4546 30.1721 86.2154C29.0904 85.8004 28.662 85.6105 28.978 85.6879C29.0553 85.702 29.259 85.7442 29.4346 85.7653C29.9965 85.8497 29.6593 85.6809 28.8095 85.4487C27.8612 85.1955 27.7067 85.1252 27.8121 84.9986C27.8753 84.9282 27.6927 84.8438 26.9903 84.6047C26.4986 84.4358 25.6557 84.1334 25.1219 83.9224C24.5881 83.7184 24.1245 83.5636 24.1035 83.5918C24.0824 83.6129 24.1878 83.7395 24.3423 83.8731C24.4968 83.9997 24.5951 84.1123 24.56 84.1123C24.3563 84.1123 22.6987 83.029 22.783 82.9446C22.797 82.9235 22.9445 82.9657 23.1061 83.029C23.2676 83.0924 23.4222 83.1275 23.4432 83.0994C23.5205 83.022 23.4292 82.9868 22.6566 82.7758C22.1157 82.6351 21.8488 82.5226 21.7154 82.396C21.315 81.9951 21.7645 82.1006 23.2114 82.7477C24.7356 83.437 24.3212 83.0994 22.6285 82.2764C22.0736 82.0091 21.3993 81.6434 21.1394 81.4745C20.8725 81.2987 20.6548 81.1791 20.6548 81.2002C20.6548 81.2213 20.8023 81.3901 20.9779 81.58C21.2377 81.8544 21.2799 81.9317 21.1745 81.9317C20.9919 81.9317 20.6829 81.7348 19.7065 80.9892C18.7443 80.2506 18.6038 80.1522 18.7513 80.335C18.9269 80.5601 18.7583 80.5531 18.2947 80.328C17.789 80.0748 17.7539 80.0677 17.789 80.1873Z" fill="#0B3B8D"/>
<path d="M31.8231 80.5106C31.8231 80.595 32.4693 80.7357 32.8275 80.7357C33.2279 80.7357 33.0734 80.6302 32.5185 80.5388C31.9636 80.4403 31.8231 80.4333 31.8231 80.5106Z" fill="#0B3B8D"/>
<path d="M72.6456 80.6727C72.3506 80.8908 72.2803 81.0244 72.5402 80.8908C72.6666 80.8205 73.0319 80.4547 72.9757 80.4547C72.9546 80.4547 72.8071 80.5532 72.6456 80.6727Z" fill="#0B3B8D"/>
<path d="M31.8791 81.1368C31.9284 81.1579 31.9917 81.1509 32.0129 81.1297C32.041 81.1086 31.9988 81.0874 31.9213 81.0945C31.8439 81.0945 31.8228 81.1156 31.8791 81.1368Z" fill="#0B3B8D"/>
<path d="M32.2303 81.207C32.2796 81.2282 32.3429 81.2211 32.364 81.2C32.3922 81.1788 32.35 81.1577 32.2725 81.1647C32.1951 81.1647 32.174 81.1859 32.2303 81.207Z" fill="#0B3B8D"/>
<path d="M40.8134 82.1497C40.7361 82.206 40.7291 82.2341 40.7993 82.2623C40.9468 82.3185 40.8134 82.424 40.5816 82.424C40.3006 82.4311 40.4482 82.5225 40.8345 82.5928C41.1084 82.6421 41.1716 82.7335 40.982 82.8039C40.8415 82.8601 39.9776 82.8601 39.6966 82.8039C39.4297 82.7476 39.4789 82.6351 39.7668 82.6351C39.9003 82.6351 39.9635 82.6069 39.9354 82.5577C39.8652 82.4522 39.1277 82.5084 39.0574 82.628C39.0223 82.6984 38.7624 82.7476 38.1865 82.7968C37.7369 82.839 37.3717 82.8883 37.3717 82.9164C37.3717 82.9375 37.6667 83.0149 38.0249 83.0852C39.8441 83.4369 40.6448 83.5565 41.6211 83.5917C42.6536 83.6339 42.6817 83.6339 42.9205 83.4651C43.1594 83.2962 43.1664 83.2822 43.1523 82.8461C43.1453 82.6069 43.1172 82.3818 43.0821 82.3467C43.0189 82.2834 41.5088 82.0723 41.1435 82.0723C41.0171 82.0723 40.8696 82.1075 40.8134 82.1497Z" fill="#0B3B8D"/>
<path d="M68.1009 83.4721C68.0587 83.5073 67.7988 83.662 67.5179 83.8168C66.9981 84.0911 66.949 84.1826 67.3072 84.1826C67.546 84.1826 67.8621 84.0559 68.2694 83.8027C68.5504 83.6198 68.5644 83.6058 68.438 83.5143C68.2905 83.3948 68.1922 83.3877 68.1009 83.4721Z" fill="#0B3B8D"/>
<path d="M66.4151 84.1827C66.1763 84.4359 66.1973 84.4359 66.6328 84.246C66.8927 84.1405 66.9489 84.0912 66.8717 84.042C66.7031 83.9365 66.6328 83.9576 66.4151 84.1827Z" fill="#0B3B8D"/>
<path d="M65.7549 84.6117C65.5863 84.6891 65.4599 84.7664 65.4809 84.7875C65.5512 84.8508 65.8743 84.7383 66.0007 84.5976C66.1412 84.4359 66.1482 84.4359 65.7549 84.6117Z" fill="#0B3B8D"/>
<path d="M50.6257 85.273C50.1411 85.3785 50.0849 85.4137 50.3378 85.477C50.5274 85.5262 51.1736 85.3504 51.2438 85.2308C51.3 85.1464 51.1385 85.1605 50.6257 85.273Z" fill="#0B3B8D"/>
<path d="M61.1966 86.363C60.2203 86.7077 59.244 87.0664 59.0262 87.1649C58.8155 87.2634 58.5556 87.3478 58.4643 87.3478C58.2958 87.3478 57.3546 87.8261 57.4108 87.8824C57.4248 87.9035 57.5793 87.8824 57.7479 87.8472C58.6821 87.6291 58.0359 87.9668 56.884 88.3044C55.7882 88.6139 54.4678 88.8882 53.7654 88.9375L53.2105 88.9726L54.0182 88.6842C55.2404 88.2481 55.3668 88.213 56.0341 88.0793C56.603 87.9738 56.9472 87.8402 56.6732 87.8402C56.61 87.8402 56.5468 87.805 56.5328 87.7628C56.5117 87.7065 56.2307 87.7487 55.6337 87.8964C54.0253 88.2974 52.3466 88.5647 49.3614 88.8953C48.3219 89.0148 47.4299 89.1063 47.3737 89.1063C47.3105 89.1063 47.2894 89.1344 47.3105 89.1766C47.3315 89.2118 47.472 89.247 47.6125 89.247C48.069 89.247 47.753 89.3665 46.9593 89.4931C46.5378 89.5564 46.1305 89.6479 46.0532 89.6831C45.7933 89.8237 46.0602 89.8659 46.6783 89.7745C47.0295 89.7323 47.4861 89.7042 47.6968 89.7182C47.9075 89.7323 48.3359 89.7182 48.645 89.6831L49.2069 89.6268L48.9259 89.4861L48.645 89.3525L49.3404 89.3314C49.8461 89.3173 50.113 89.3454 50.3096 89.4228C50.6819 89.5705 51.3492 89.5564 52.3606 89.3806C52.8312 89.3032 53.4142 89.2118 53.667 89.1766C55.4441 88.9515 59.6443 87.7346 62.3274 86.6725C63.6971 86.1239 63.95 85.941 63.3178 85.941C63.0579 85.941 63.0017 85.9199 63.0369 85.8355C63.0579 85.7792 63.0509 85.73 63.0228 85.73C62.9947 85.737 62.1729 86.0184 61.1966 86.363Z" fill="#0B3B8D"/>
<path d="M44.4657 88.3326C44.4657 88.4171 44.522 88.4171 44.7119 88.3326C44.8385 88.2763 44.8315 88.2692 44.6627 88.2692C44.5501 88.2622 44.4657 88.2903 44.4657 88.3326Z" fill="#0B3B8D"/>
</svg>
