<svg width="339" height="74" viewBox="0 0 339 74" fill="none" xmlns="http://www.w3.org/2000/svg">
<path d="M17.908 73.6C23.7107 73.6 28.1907 72.128 31.348 69.184C34.5053 66.24 36.084 62.144 36.084 56.896V23.232H29.876V29.216C28.5747 27.0187 26.7933 25.3013 24.532 24.064C22.2707 22.8267 19.7747 22.208 17.044 22.208C13.908 22.208 11.1027 22.9653 8.628 24.48C6.17467 25.9947 4.23333 28.064 2.804 30.688C1.37467 33.2907 0.66 36.2667 0.66 39.616C0.66 42.9867 1.38533 45.984 2.836 48.608C4.28667 51.232 6.23867 53.2907 8.692 54.784C11.1453 56.2773 13.8867 57.024 16.916 57.024C19.6467 57.024 22.1427 56.3947 24.404 55.136C26.6653 53.856 28.4893 52.096 29.876 49.856V56.864C29.876 59.232 29.3533 61.2693 28.308 62.976C27.284 64.6827 25.8653 65.9947 24.052 66.912C22.26 67.8293 20.212 68.288 17.908 68.288C15.22 68.288 12.7987 67.68 10.644 66.464C8.48933 65.2693 6.92133 63.6587 5.94 61.632L0.788 64.064C3.62533 70.4213 9.332 73.6 17.908 73.6ZM18.58 51.68C16.3613 51.68 14.388 51.168 12.66 50.144C10.932 49.0987 9.57733 47.6693 8.596 45.856C7.61467 44.0427 7.124 41.9733 7.124 39.648C7.124 37.3013 7.61467 35.2213 8.596 33.408C9.59867 31.5733 10.964 30.144 12.692 29.12C14.42 28.0747 16.3933 27.552 18.612 27.552C20.8307 27.552 22.804 28.0747 24.532 29.12C26.26 30.144 27.6147 31.5733 28.596 33.408C29.5987 35.2213 30.1 37.3013 30.1 39.648C30.1 41.9733 29.6093 44.0427 28.628 45.856C27.6467 47.6693 26.2813 49.0987 24.532 50.144C22.804 51.168 20.82 51.68 18.58 51.68ZM64.3285 57.024C67.6565 57.024 70.6752 56.3093 73.3845 54.88C76.1152 53.4507 78.2592 51.4453 79.8165 48.864L75.2725 46.496C72.6485 50.144 69.1072 51.968 64.6485 51.968C62.2805 51.968 60.1792 51.4773 58.3445 50.496C56.5312 49.4933 55.1018 48.1173 54.0565 46.368C53.0325 44.6187 52.5205 42.6027 52.5205 40.32H80.6805C80.7872 39.872 80.8405 39.424 80.8405 38.976C80.8405 35.648 80.1152 32.7253 78.6645 30.208C77.2352 27.6907 75.2298 25.728 72.6485 24.32C70.0885 22.912 67.1018 22.208 63.6885 22.208C61.2778 22.208 59.0165 22.656 56.9045 23.552C54.7925 24.448 52.9365 25.7067 51.3365 27.328C49.7365 28.928 48.4885 30.784 47.5925 32.896C46.6965 35.008 46.2485 37.28 46.2485 39.712C46.2485 42.9973 47.0378 45.952 48.6165 48.576C50.1952 51.1787 52.3498 53.2373 55.0805 54.752C57.8112 56.2667 60.8938 57.024 64.3285 57.024ZM52.8405 35.744C53.2672 33.1627 54.4725 31.104 56.4565 29.568C58.4405 28.032 60.8832 27.264 63.7845 27.264C66.5365 27.264 68.9045 28.0533 70.8885 29.632C72.8938 31.1893 74.1312 33.2267 74.6005 35.744H52.8405ZM91.06 56H97.268V35.232C97.268 33.056 98.0467 31.168 99.604 29.568C101.161 27.968 103.316 27.168 106.068 27.168C108.735 27.168 110.804 27.9893 112.276 29.632C113.748 31.2747 114.484 33.632 114.484 36.704V56H120.692V35.456C120.692 31.3173 119.572 28.0747 117.332 25.728C115.092 23.3813 112.073 22.208 108.276 22.208C105.695 22.208 103.465 22.7093 101.588 23.712C99.7107 24.7147 98.2707 25.9627 97.268 27.456V23.232H91.06V56Z" fill="#0B3B8D"/>
<path d="M147.041 57.024C149.75 57.024 152.236 56.3947 154.497 55.136C156.758 53.856 158.593 52.096 160.001 49.856V56H166.209V0.927998H160.001V29.216C158.678 27.0187 156.886 25.3013 154.625 24.064C152.385 22.8267 149.9 22.208 147.169 22.208C144.012 22.208 141.196 22.9653 138.721 24.48C136.268 25.9947 134.326 28.064 132.897 30.688C131.489 33.2907 130.785 36.2667 130.785 39.616C130.785 42.9867 131.5 45.984 132.929 48.608C134.38 51.232 136.332 53.2907 138.785 54.784C141.26 56.2773 144.012 57.024 147.041 57.024ZM148.705 51.68C146.486 51.68 144.513 51.168 142.785 50.144C141.057 49.0987 139.702 47.6693 138.721 45.856C137.74 44.0427 137.249 41.9733 137.249 39.648C137.249 37.3013 137.74 35.2213 138.721 33.408C139.724 31.5733 141.089 30.144 142.817 29.12C144.545 28.0747 146.518 27.552 148.737 27.552C150.956 27.552 152.929 28.0747 154.657 29.12C156.385 30.144 157.74 31.5733 158.721 33.408C159.702 35.2213 160.193 37.3013 160.193 39.648C160.193 41.9733 159.702 44.0427 158.721 45.856C157.74 47.6693 156.385 49.0987 154.657 50.144C152.929 51.168 150.945 51.68 148.705 51.68ZM179.31 56H185.518V35.36C185.518 34.016 185.913 32.7573 186.702 31.584C187.513 30.4107 188.558 29.4613 189.838 28.736C191.139 27.9893 192.505 27.616 193.934 27.616C194.702 27.616 195.523 27.7227 196.398 27.936C197.273 28.1493 198.041 28.4373 198.702 28.8L201.262 23.552C200.494 23.1467 199.577 22.8267 198.51 22.592C197.465 22.336 196.43 22.208 195.406 22.208C191.033 22.208 187.737 24.1493 185.518 28.032V23.232H179.31V56ZM212.007 16.608C213.074 16.608 213.98 16.224 214.727 15.456C215.495 14.688 215.879 13.7707 215.879 12.704C215.879 11.6373 215.495 10.7307 214.727 9.984C213.98 9.216 213.074 8.832 212.007 8.832C210.94 8.832 210.023 9.216 209.255 9.984C208.508 10.7307 208.135 11.6373 208.135 12.704C208.135 13.7707 208.508 14.688 209.255 15.456C210.023 16.224 210.94 16.608 212.007 16.608ZM208.903 56H215.111V23.232H208.903V56ZM238.913 56H243.041L259.361 23.232H252.065L240.993 47.456L229.921 23.232H222.625L238.913 56ZM282.454 57.024C285.782 57.024 288.8 56.3093 291.51 54.88C294.24 53.4507 296.384 51.4453 297.942 48.864L293.398 46.496C290.774 50.144 287.232 51.968 282.774 51.968C280.406 51.968 278.304 51.4773 276.47 50.496C274.656 49.4933 273.227 48.1173 272.182 46.368C271.158 44.6187 270.646 42.6027 270.646 40.32H298.806C298.912 39.872 298.966 39.424 298.966 38.976C298.966 35.648 298.24 32.7253 296.79 30.208C295.36 27.6907 293.355 25.728 290.774 24.32C288.214 22.912 285.227 22.208 281.814 22.208C279.403 22.208 277.142 22.656 275.03 23.552C272.918 24.448 271.062 25.7067 269.462 27.328C267.862 28.928 266.614 30.784 265.718 32.896C264.822 35.008 264.374 37.28 264.374 39.712C264.374 42.9973 265.163 45.952 266.742 48.576C268.32 51.1787 270.475 53.2373 273.206 54.752C275.936 56.2667 279.019 57.024 282.454 57.024ZM270.966 35.744C271.392 33.1627 272.598 31.104 274.582 29.568C276.566 28.032 279.008 27.264 281.91 27.264C284.662 27.264 287.03 28.0533 289.014 29.632C291.019 31.1893 292.256 33.2267 292.726 35.744H270.966ZM309.185 56H315.393V35.232C315.393 33.056 316.172 31.168 317.729 29.568C319.286 27.968 321.441 27.168 324.193 27.168C326.86 27.168 328.929 27.9893 330.401 29.632C331.873 31.2747 332.609 33.632 332.609 36.704V56H338.817V35.456C338.817 31.3173 337.697 28.0747 335.457 25.728C333.217 23.3813 330.198 22.208 326.401 22.208C323.82 22.208 321.59 22.7093 319.713 23.712C317.836 24.7147 316.396 25.9627 315.393 27.456V23.232H309.185V56Z" fill="black"/>
</svg>
